<?xml version="1.0" encoding="UTF-8" standalone="no"?>
<!-- Created with Inkscape (http://www.inkscape.org/) -->

<svg
   width="32"
   height="32"
   viewBox="0 0 32 32"
   version="1.1"
   id="svg1"
   xmlns="http://www.w3.org/2000/svg"
   xmlns:svg="http://www.w3.org/2000/svg">
  <defs
     id="defs1" />
  <g
     id="layer1">
    <path
       style="fill:#b3b3b3;stroke-width:0.0440508"
       d="M 10.438431,30.641274 C 9.0921328,28.44098 9.2114856,28.656842 9.2961002,28.575225 c 0.098804,-0.09531 0.9899308,-0.688775 1.0013308,-0.666854 0.0049,0.0095 0.08554,0.253222 0.17909,0.541578 0.09355,0.288355 0.229689,0.692796 0.302528,0.89876 l 0.132438,0.37449 0.168638,-0.618288 c 0.188888,-0.692554 0.340101,-1.008702 0.684135,-1.430315 l 0.233812,-0.286536 -0.0843,-0.255473 c -0.04637,-0.140505 -0.0966,-0.272477 -0.111638,-0.293263 -0.03814,-0.05271 -0.685406,0.229479 -1.145787,0.499512 -0.8155392,0.478351 -1.5356548,1.087025 -2.3165031,1.958021 -0.2828453,0.315494 -0.2874982,0.318488 -0.1571895,0.101113 0.073868,-0.123197 0.2875309,-0.426894 0.4748218,-0.674859 L 8.9980086,28.272265 8.5529807,27.549721 C 8.3082145,27.152326 8.1076634,26.812272 8.107309,26.794045 c -0.00126,-0.06166 1.4677557,-0.635476 1.6388999,-0.640199 0.014668,-3.95e-4 0.1006982,0.244755 0.1911087,0.544805 l 0.1643804,0.545539 0.35297,-0.230257 c 0.194123,-0.126622 0.545341,-0.324827 0.780461,-0.440417 0.271584,-0.133513 0.42499,-0.234845 0.420635,-0.277835 -0.0039,-0.03722 -0.02783,-0.210325 -0.05342,-0.38469 l -0.04655,-0.317013 -0.393518,0.0325 c -1.3164271,0.108749 -2.2245182,0.430908 -3.4894392,1.237884 -0.3134092,0.199947 -0.5632785,0.349917 -0.5552744,0.333275 0.00794,-0.01652 0.1813505,-0.182175 0.3852262,-0.367832 0.2038676,-0.185682 0.3706726,-0.346105 0.3706726,-0.356525 0,-0.01048 -0.2754422,-0.473041 -0.6120916,-1.028061 -0.3366466,-0.555017 -0.6093446,-1.021624 -0.6059853,-1.0369 0.00346,-0.01531 0.2005205,-1.173702 0.4381463,-2.574277 0.2376197,-1.400556 0.5048581,-2.964822 0.5938629,-3.47613 L 7.8492277,17.428257 8.131525,17.134592 C 8.2867996,16.97307 8.4146596,16.825938 8.4156925,16.807609 8.417418,16.775571 8.3061732,16.583774 7.6853848,15.549354 l -0.2852451,-0.475298 0.125776,-0.973652 0.125776,-0.97365 -0.2734375,-0.564577 -0.2734356,-0.56458 -0.1406475,-1.5978 C 6.8868191,9.5210053 6.7770757,8.3001441 6.7203136,7.6867686 L 6.6170892,6.5715414 6.3999942,6.3284488 C 5.8019285,5.6587684 4.6416661,4.6926041 3.547981,3.9535456 3.2017119,3.7195547 2.9533807,3.5396986 2.996129,3.55387 c 0.04274,0.014105 0.2963315,0.095712 0.5635149,0.1812082 0.5738109,0.183606 1.6375289,0.6320988 1.999955,0.8432336 0.140953,0.082131 0.246186,0.1283147 0.2338468,0.1026638 C 5.7528445,4.5965878 4.9867516,3.8083695 4.5358688,3.3870771 3.5340202,2.4509946 2.4737103,1.6360858 1.1112671,0.7550832 0.587622,0.41643366 0.17199274,0.13926957 0.18768724,0.13914263 0.26232983,0.13834268 1.2168892,0.41040078 1.5970877,0.54052893 3.3067147,1.1256784 4.8775155,2.0484779 6.2134468,3.2525038 6.4439811,3.4602837 6.6200574,3.6030479 6.6047275,3.5697743 6.4094019,3.1456932 5.4903915,1.7734901 4.984146,1.1500276 4.8001675,0.92346395 4.6597095,0.73809279 4.6719856,0.73809279 c 0.043046,0 0.7368857,0.56597891 1.0640195,0.86792131 1.2584631,1.1615639 2.291988,2.5866223 3.0466054,4.2007514 0.2214322,0.4736338 0.2884456,0.5732731 0.6121834,0.9101917 1.3560481,1.4112598 2.6737631,3.1535645 3.6469401,4.8220438 0.244489,0.419165 0.298544,0.486006 0.373515,0.461836 0.239814,-0.07734 2.466453,-0.527323 2.609757,-0.527414 0.144945,-9.9e-5 2.389952,0.45027 2.629344,0.527464 0.07986,0.02577 0.137612,-0.04866 0.474221,-0.611124 1.014114,-1.6945134 2.257638,-3.3262494 3.562476,-4.6746273 0.294916,-0.3047513 0.398608,-0.4491638 0.53387,-0.7434815 0.921534,-2.0051583 2.163881,-3.625159 3.78244,-4.9322376 0.210352,-0.16986375 0.39037,-0.29869223 0.400044,-0.28626577 0.0096,0.0122914 -0.09247,0.14687272 -0.227008,0.29877487 -0.394956,0.4459599 -1.318499,1.7948233 -1.663034,2.428921 -0.106464,0.1959378 -0.0974,0.1901144 0.351134,-0.2252297 1.17845,-1.0912972 2.800042,-2.0663374 4.399985,-2.64563736 C 30.6971,0.45478499 31.849562,0.12956336 31.89775,0.15019888 31.91751,0.15886288 31.779939,0.2537493 31.591746,0.36138813 31.176325,0.59901808 30.008575,1.3800509 29.445619,1.7968015 28.511682,2.4881874 27.085528,3.7716462 26.446191,4.4961163 l -0.209925,0.2378778 0.330335,-0.1789917 c 0.491818,-0.2664947 1.264868,-0.5923047 1.943158,-0.8189711 0.331306,-0.1107238 0.618912,-0.2013984 0.639125,-0.2015596 0.02017,-1.512e-4 -0.198402,0.1538849 -0.485788,0.3422866 -0.664205,0.4353993 -1.182087,0.818558 -1.746722,1.2923369 -0.503712,0.4226465 -1.259818,1.1432397 -1.384364,1.3193298 -0.07314,0.1034093 -0.09856,0.3026114 -0.225087,1.7643023 -0.07843,0.9062565 -0.186586,2.1280687 -0.24028,2.7151447 l -0.09766,1.067409 -0.270292,0.544951 -0.270294,0.544948 0.116955,0.891868 c 0.06433,0.490527 0.116955,0.93719 0.116955,0.992582 0,0.05539 -0.180006,0.400216 -0.400024,0.766273 -0.220017,0.366056 -0.441797,0.742158 -0.492841,0.835781 l -0.09281,0.170226 0.280102,0.329091 0.280105,0.329086 0.209352,1.223319 c 0.115142,0.672824 0.378336,2.220157 0.58487,3.438521 0.206531,1.218363 0.383379,2.241533 0.392992,2.273715 0.0096,0.03214 -0.263879,0.515753 -0.607764,1.074613 -0.343884,0.558856 -0.61102,1.032012 -0.593641,1.051455 0.01752,0.01955 0.166357,0.1533 0.331076,0.297467 0.452812,0.39632 0.443009,0.442296 -0.02925,0.13714 -1.278045,-0.825856 -2.133874,-1.154217 -3.340407,-1.281625 -0.731542,-0.07726 -0.657018,-0.111469 -0.714487,0.32799 -0.02722,0.208362 -0.04378,0.384374 -0.03673,0.391162 0.0071,0.0069 0.178946,0.0882 0.382013,0.180967 0.203067,0.09275 0.549776,0.284885 0.770475,0.42698 0.340524,0.219246 0.404657,0.245991 0.423599,0.176695 0.05095,-0.186387 0.293642,-0.981752 0.304423,-0.997703 0.02514,-0.03718 0.606785,0.158661 1.117217,0.376155 0.377436,0.160836 0.530775,0.247946 0.517083,0.293788 -0.01059,0.03585 -0.206341,0.371878 -0.434746,0.746759 l -0.415293,0.681622 0.21289,0.282667 c 0.242951,0.322588 0.691122,0.99527 0.691122,1.037348 0,0.01551 -0.115936,-0.108387 -0.257621,-0.275192 -0.843942,-0.993554 -2.016448,-1.896228 -3.027906,-2.331073 -0.22757,-0.09785 -0.418978,-0.17065 -0.425352,-0.161764 -0.0065,0.0089 -0.05692,0.137564 -0.112331,0.286016 l -0.100739,0.269894 0.281739,0.356164 c 0.317797,0.401733 0.502737,0.806482 0.682444,1.49358 0.06293,0.240607 0.121538,0.446595 0.130196,0.45775 0.0086,0.01108 0.153788,-0.383382 0.322438,-0.876743 0.168659,-0.49336 0.31529,-0.897024 0.325841,-0.897024 0.0517,0 1.015418,0.711222 1.015418,0.749376 0,0.02424 -0.204112,0.376708 -0.453588,0.783275 -0.249474,0.406575 -0.698027,1.138452 -0.996791,1.626399 -0.298759,0.487948 -0.549837,0.878653 -0.557945,0.868233 -0.0081,-0.01048 -0.101941,-0.443348 -0.208534,-0.962072 -0.332889,-1.620031 -0.4913,-2.136201 -0.757243,-2.467369 l -0.131501,-0.163758 -0.262365,0.150661 -0.262363,0.150661 -0.390318,0.936906 c -0.214668,0.515298 -0.425285,0.965618 -0.468038,1.00071 -0.04274,0.0351 -0.57786,0.279896 -1.189147,0.544013 l -1.111389,0.480195 -1.15951,-0.499692 c -0.63773,-0.274835 -1.176379,-0.521369 -1.196997,-0.547856 -0.02064,-0.02648 -0.206907,-0.459374 -0.413979,-0.961963 l -0.376497,-0.913807 -0.256108,-0.170408 c -0.248319,-0.165249 -0.259169,-0.167869 -0.356473,-0.08594 -0.27271,0.229576 -0.511615,0.984894 -0.84308,2.665425 -0.09343,0.47366 -0.178601,0.860842 -0.189296,0.860405 -0.01059,-3.93e-4 -0.377943,-0.586715 -0.816126,-1.302845 z m 6.522119,-0.495505 c 0.460859,-0.193257 0.862268,-0.377317 0.892032,-0.409055 0.05981,-0.06377 0.332884,-0.737094 0.310573,-0.765767 -0.0077,-0.01008 -0.105404,0.0129 -0.217121,0.05084 -0.201152,0.06819 -0.206343,0.06704 -0.542273,-0.120073 -0.186546,-0.103913 -0.569154,-0.294884 -0.850246,-0.424396 l -0.511071,-0.23548 -0.402212,0.184372 c -0.221215,0.101414 -0.594585,0.285131 -0.829705,0.408288 -0.435504,0.228111 -0.525279,0.242407 -0.83211,0.132485 -0.0896,-0.03208 -0.08611,-0.01531 0.07925,0.38547 l 0.172957,0.41904 0.853476,0.358912 c 0.469409,0.197389 0.895115,0.360675 0.946012,0.362825 0.05089,0.002 0.469602,-0.154187 0.930457,-0.347447 z M 14.688208,28.05525 c 0.23827,-0.134702 0.555179,-0.310601 0.704234,-0.390898 0.296892,-0.15993 0.32058,-0.204887 0.327492,-0.621186 0.0039,-0.228145 -0.002,-0.240388 -0.268169,-0.544027 -0.149611,-0.170852 -0.272042,-0.332208 -0.272042,-0.358572 0,-0.02636 0.04372,-0.114694 0.09715,-0.196281 0.15395,-0.235068 0.108378,-0.499854 -0.119217,-0.692609 -0.108256,-0.0917 -0.32726,-0.131055 -0.37657,-0.06768 -0.01263,0.01612 0.0017,0.119831 0.03221,0.230269 l 0.05515,0.200774 -0.106688,-0.0881 c -0.391558,-0.323408 -0.543424,-0.59957 -0.65047,-1.182888 -0.08664,-0.472209 -0.07436,-0.599166 0.126,-1.301139 l 0.18459,-0.646727 0.0264,0.468991 c 0.02595,0.460692 0.137225,1.392746 0.171572,1.436846 0.0096,0.01229 0.09626,-0.0267 0.192555,-0.08683 0.09628,-0.06011 0.215952,-0.109273 0.26592,-0.109273 0.04997,0 0.277082,0.08987 0.504705,0.199706 0.227617,0.109857 0.438619,0.199726 0.468888,0.199726 0.03027,0 0.234527,-0.08987 0.453916,-0.199726 0.45326,-0.226951 0.530299,-0.236762 0.768556,-0.09789 0.09402,0.05481 0.180271,0.08767 0.191679,0.07302 0.04413,-0.0567 0.158514,-1.118617 0.161366,-1.498041 0.0039,-0.474424 0.01243,-0.461351 0.249936,0.368376 0.167742,0.585992 0.172367,0.617309 0.135229,0.913652 -0.04341,0.346339 -0.157923,0.794273 -0.248405,0.971697 -0.0626,0.122774 -0.482149,0.567299 -0.535463,0.567355 -0.0165,2e-5 -0.002,-0.0694 0.03196,-0.154267 0.08361,-0.207712 0.04979,-0.29508 -0.114205,-0.29508 -0.151017,0 -0.357934,0.1909 -0.414647,0.382538 -0.04056,0.13706 0.01039,0.34194 0.123616,0.497292 l 0.07719,0.105888 -0.297947,0.349276 -0.297951,0.349281 0.02787,0.308509 c 0.02143,0.237346 0.04712,0.32413 0.111292,0.376211 0.04588,0.03722 0.378628,0.229905 0.739434,0.428158 l 0.656003,0.360458 0.381006,-0.160333 c 0.555274,-0.233657 0.577679,-0.268427 0.236745,-0.367347 -0.30867,-0.08957 -0.832972,-0.354347 -0.896558,-0.452785 -0.03276,-0.05072 0.0071,-0.0543 0.201355,-0.01793 0.339873,0.06367 0.895282,0.0133 1.197765,-0.108024 0.252644,-0.101556 0.503337,-0.281317 0.527889,-0.378532 0.0079,-0.03174 -0.210509,-0.05166 -0.59938,-0.05467 -0.38951,-0.0032 -0.703828,-0.03172 -0.864605,-0.07897 l -0.252609,-0.07421 0.291473,-0.0646 c 0.700073,-0.155235 1.551555,-0.548539 1.727104,-0.797762 0.07228,-0.102623 0.07185,-0.103127 -0.08467,-0.103127 -0.135758,0 -0.395176,0.03125 -1.467538,0.176856 -0.179089,0.0243 -0.130909,-0.01511 0.614302,-0.501318 0.746329,-0.48705 0.806542,-0.536223 0.781694,-0.638387 -0.01487,-0.06089 -0.153013,-0.576927 -0.307124,-1.146764 -0.154114,-0.56984 -0.271207,-1.036073 -0.260227,-1.036073 0.02371,0 0.894846,0.609656 1.024494,0.717007 0.08644,0.07157 0.119155,0.04806 0.828408,-0.596174 0.699143,-0.635052 0.741942,-0.683301 0.805077,-0.907568 0.03667,-0.130289 0.236169,-0.995396 0.443327,-1.922494 0.207155,-0.927093 0.380504,-1.679806 0.385197,-1.672691 0.0047,0.0071 0.386687,0.975927 0.848866,2.152917 0.462181,1.176984 0.840322,2.115936 0.840322,2.08656 0,-0.02934 -0.03376,-0.239647 -0.07507,-0.467277 -0.04125,-0.22763 -0.198748,-1.14411 -0.349963,-2.036631 -0.151179,-0.89248 -0.283038,-1.668945 -0.292992,-1.725435 -0.01895,-0.107702 -0.127508,-0.221758 -2.041251,-2.145033 -0.651929,-0.655179 -1.500118,-1.508127 -1.884861,-1.895436 -1.030632,-1.037503 -1.006015,-1.014893 -0.978218,-0.8986 0.03367,0.140848 0.259565,1.73759 0.247941,1.752529 -0.0053,0.0069 -0.253392,-0.460571 -0.551251,-1.038698 -0.297856,-0.578131 -0.577317,-1.069598 -0.621023,-1.092151 -0.04372,-0.02255 -0.368022,-0.09916 -0.720707,-0.170227 -0.35268,-0.07107 -0.673567,-0.138369 -0.713081,-0.149593 -0.06234,-0.01773 -0.06857,0.002 -0.04716,0.148586 0.01365,0.09293 0.162323,0.652136 0.330552,1.242677 l 0.305888,1.07371 -0.190558,0.913461 c -0.104814,0.502403 -0.292999,1.40682 -0.418213,2.009817 -0.216306,1.041708 -0.229772,1.087742 -0.270186,0.923724 -0.0819,-0.332339 -0.784931,-3.782038 -0.784501,-3.849424 3.89e-4,-0.03742 0.07212,-0.315201 0.159716,-0.617288 0.212776,-0.733723 0.504754,-1.833697 0.491317,-1.850957 -0.01059,-0.0135 -1.327314,0.253318 -1.492225,0.302377 -0.05614,0.01673 -0.26056,0.371434 -0.633099,1.098697 -0.302587,0.590717 -0.555551,1.074022 -0.56214,1.074022 -0.0065,0 0.04624,-0.398823 0.117444,-0.886275 0.07118,-0.487455 0.125369,-0.901917 0.120419,-0.921029 -0.0049,-0.01914 -0.536398,0.497675 -1.180999,1.148418 -0.644606,0.65074 -1.739381,1.75534 -2.4328314,2.454663 l -1.2608283,1.271492 -0.1450682,0.850584 c -0.079797,0.467823 -0.2485044,1.455439 -0.3749242,2.194703 -0.1264279,0.73926 -0.225529,1.348898 -0.2202404,1.354745 0.0053,0.0056 0.3855603,-0.952893 0.8450584,-2.130531 0.4594981,-1.17764 0.8442415,-2.14115 0.8549897,-2.141134 0.010797,2e-5 0.2027614,0.825757 0.4266932,1.834974 0.3285902,1.480892 0.4260762,1.85932 0.5052212,1.961272 0.128485,0.165512 1.380484,1.296714 1.435195,1.296714 0.02322,0 0.276744,-0.168534 0.563378,-0.374484 0.286637,-0.205975 0.533401,-0.374484 0.548381,-0.374484 0.01507,0 0.01487,0.03931 0,0.08737 -0.01508,0.04804 -0.156252,0.564755 -0.313821,1.148212 l -0.286465,1.060837 0.797382,0.505356 c 0.438566,0.277946 0.790674,0.513986 0.782466,0.52453 -0.0081,0.01068 -0.32824,-0.02559 -0.711187,-0.0803 -0.761026,-0.108729 -1.0266,-0.123479 -1.0266,-0.05706 0,0.07198 0.274985,0.281698 0.563515,0.429741 0.24919,0.127872 0.942668,0.366773 1.321338,0.455221 l 0.155458,0.03631 -0.213744,0.07069 c -0.134169,0.04437 -0.449167,0.07397 -0.846022,0.07945 -0.72333,0.01008 -0.776154,0.05098 -0.38577,0.299275 0.372639,0.236989 1.030801,0.340787 1.513548,0.238696 0.101533,-0.02148 0.184589,-0.02345 0.184589,-0.0044 0,0.08568 -0.744926,0.455759 -1.061921,0.527565 -0.08175,0.01854 -0.13421,0.05045 -0.116588,0.07095 0.0338,0.03931 0.676402,0.330551 0.809308,0.366801 0.04276,0.01169 0.08389,0.0238 0.09143,0.02698 0.0075,0.0032 0.208649,-0.104397 0.446922,-0.239111 z m -1.333582,-4.900135 c 7.97e-4,-0.04004 0.05119,-0.338545 0.111984,-0.663365 l 0.110518,-0.59059 -0.135269,-0.358105 c -0.0744,-0.196945 -0.140892,-0.365674 -0.147737,-0.374915 -0.0069,-0.0093 -0.207635,-0.04955 -0.446163,-0.08957 -0.520954,-0.08739 -0.778705,-0.203893 -1.077498,-0.487008 -0.289476,-0.2743 -0.466669,-0.537079 -0.574462,-0.851947 -0.08638,-0.252319 -0.213494,-0.83906 -0.213494,-0.985457 0,-0.0427 -0.218757,-0.29759 -0.48613,-0.566423 -0.267367,-0.26883 -0.481601,-0.493181 -0.476071,-0.498561 0.0055,-0.0054 0.474594,0.0506 1.042352,0.124386 l 1.032299,0.134158 0.619385,0.451422 c 0.340658,0.248288 0.623805,0.437187 0.62922,0.419777 0.0053,-0.01733 -0.103897,-0.387966 -0.242894,-0.823464 -0.138997,-0.435498 -0.252732,-0.814939 -0.252732,-0.843206 0,-0.02825 0.06513,-0.154811 0.144743,-0.28122 0.276489,-0.43901 1.137733,-1.70535 1.137733,-1.67288 0,0.01793 -0.06234,0.592591 -0.138509,1.276959 -0.07619,0.684369 -0.133028,1.27502 -0.126305,1.312559 0.0067,0.03754 0.252964,0.430045 0.547215,0.872235 l 0.535007,0.803984 -0.06668,0.796492 c -0.03667,0.438072 -0.07155,0.790222 -0.07752,0.782561 -0.0059,-0.0077 -0.05549,-0.347204 -0.110049,-0.754548 -0.05458,-0.407339 -0.113064,-0.772411 -0.129993,-0.811265 -0.03257,-0.07478 -0.629016,-0.663677 -0.672329,-0.66383 -0.01406,-4.9e-5 0.0096,0.117877 0.05236,0.262049 0.188236,0.6344 0.448958,1.81816 0.558098,2.534014 0.01793,0.117172 0.01222,0.114471 -0.0918,-0.04389 l -0.110802,-0.168715 -0.100801,0.218647 c -0.199298,0.432298 -0.84514,1.610929 -0.843705,1.539709 z m -0.276503,-2.76771 c 0.175096,-0.07937 0.492763,-0.351936 0.521218,-0.447207 0.0098,-0.0329 -0.120296,-0.157673 -0.297122,-0.28485 L 12.9876,19.429089 12.836115,19.675325 c -0.08332,0.135428 -0.16597,0.227164 -0.183653,0.203859 -0.06456,-0.08505 -0.223345,-0.546331 -0.246789,-0.716898 -0.02261,-0.164262 -0.04631,-0.188382 -0.379349,-0.386052 l -0.355269,-0.210847 0.02137,0.401239 c 0.02656,0.497967 0.154052,0.858854 0.402736,1.140101 0.292192,0.330449 0.648624,0.432224 0.982941,0.280678 z m 5.320203,2.207543 c -0.182471,-0.336107 -0.396975,-0.743814 -0.476677,-0.906015 l -0.144906,-0.29492 -0.09234,0.145139 c -0.06969,0.109535 -0.09269,0.124225 -0.09375,0.05991 -0.0024,-0.141372 0.253551,-1.367387 0.43811,-2.099275 0.09522,-0.377605 0.165419,-0.686558 0.155987,-0.686558 -0.01324,0 -0.290867,0.261715 -0.667519,0.629379 -0.0075,0.0075 -0.0627,0.368715 -0.122578,0.802984 -0.05987,0.434269 -0.112147,0.778343 -0.116201,0.764617 -0.0043,-0.0139 -0.03683,-0.366261 -0.07291,-0.783398 l -0.06556,-0.758442 0.535538,-0.814363 c 0.468218,-0.711989 0.535386,-0.836334 0.534353,-0.989161 -7.97e-4,-0.09614 -0.05977,-0.691591 -0.131399,-1.323223 -0.07161,-0.631631 -0.127161,-1.153133 -0.123433,-1.158896 0.02326,-0.03599 1.281145,1.912044 1.276692,1.977156 -0.0031,0.04427 -0.120479,0.437836 -0.260995,0.874575 -0.140525,0.436733 -0.250486,0.80051 -0.244358,0.808384 0.0061,0.0079 0.298311,-0.191666 0.649294,-0.443407 l 0.638152,-0.457725 1.002905,-0.128073 c 0.5516,-0.07044 1.00291,-0.112698 1.00291,-0.09392 0,0.01874 -0.201885,0.233169 -0.448619,0.476417 -0.312277,0.307862 -0.454468,0.480215 -0.467873,0.567129 -0.165175,1.071057 -0.360568,1.487125 -0.914331,1.946976 -0.247052,0.205159 -0.54814,0.315899 -1.025612,0.377229 -0.149632,0.01934 -0.299589,0.05332 -0.333252,0.07576 -0.03367,0.02243 -0.118523,0.200612 -0.188582,0.395875 l -0.127365,0.355031 0.116996,0.634027 c 0.06435,0.348719 0.112962,0.639398 0.108052,0.645956 -0.0049,0.0067 -0.158228,-0.263071 -0.340705,-0.599176 z m 1.348951,-2.272933 c 0.192494,-0.127569 0.412739,-0.421478 0.517429,-0.690502 0.104121,-0.267555 0.186098,-0.834204 0.138875,-0.960002 -0.03365,-0.08965 -0.05399,-0.08346 -0.364191,0.110764 -0.318507,0.199403 -0.329921,0.212581 -0.372769,0.430394 -0.0481,0.244559 -0.188481,0.624565 -0.248256,0.672026 -0.02056,0.01632 -0.09514,-0.07115 -0.165725,-0.194386 -0.07059,-0.123258 -0.142257,-0.224964 -0.159309,-0.226034 -0.05011,-0.0032 -0.61026,0.403111 -0.61026,0.442605 0,0.07911 0.225488,0.305302 0.427492,0.428797 0.17693,0.108164 0.254119,0.127065 0.448069,0.109655 0.129973,-0.01169 0.303032,-0.06658 0.388629,-0.123297 z m -4.612558,1.598023 c 0.09703,-0.175082 0.850759,-1.109575 0.894935,-1.109575 0.08312,0 0.970305,1.099224 0.975105,1.208149 7.96e-4,0.01914 -0.142746,-0.06666 -0.319093,-0.190639 -0.176339,-0.123962 -0.395687,-0.270281 -0.487428,-0.325135 l -0.166805,-0.09974 -0.487931,0.32988 c -0.443938,0.300137 -0.480793,0.317001 -0.408774,0.187072 z M 9.9247461,25.432041 C 10.22933,25.330808 10.813276,25.218198 11.242911,25.17785 l 0.357553,-0.03357 0.04419,-0.273478 c 0.0243,-0.150419 0.03832,-0.27983 0.03109,-0.287592 -0.0073,-0.0077 -0.441579,-0.44762 -0.965256,-0.977464 C 10.186804,23.075908 9.7479833,22.622224 9.7353303,22.597567 9.7226997,22.572904 9.6541076,22.228132 9.582969,21.831393 9.5118303,21.434657 9.4391027,21.110056 9.4213792,21.110056 c -0.017724,0 -0.032249,0.02031 -0.032249,0.04509 0,0.02481 -0.3592684,0.813932 -0.7983722,1.753593 -0.4391099,0.939665 -0.7932487,1.727551 -0.7869782,1.750863 0.019761,0.07349 0.3987837,0.688711 0.4261554,0.691722 0.01426,0.0016 0.1859342,-0.395958 0.3812436,-0.883413 0.1953052,-0.487454 0.369493,-0.904975 0.3870617,-0.927825 0.01752,-0.02283 0.075233,0.123197 0.1281188,0.324553 0.314269,1.196359 0.4699081,1.693643 0.5220296,1.667943 0.029784,-0.01471 0.1541337,-0.05992 0.2763569,-0.100568 z M 22.77151,24.550315 c 0.142195,-0.510796 0.258556,-0.954557 0.258556,-0.98614 0,-0.164383 0.09475,0.02124 0.41043,0.803892 0.191068,0.473723 0.353053,0.889404 0.359961,0.923727 0.02288,0.113625 0.07028,0.06585 0.292471,-0.294959 L 24.31301,24.639461 24.2399,24.485032 c -0.285638,-0.603103 -1.51891,-3.229862 -1.552051,-3.305723 -0.05119,-0.117172 -0.04474,-0.140787 -0.201457,0.736683 l -0.121641,0.681122 -0.989586,1.010895 c -0.708628,0.723885 -0.984399,1.033763 -0.971297,1.091438 0.01,0.04431 0.02962,0.162872 0.04347,0.263482 l 0.02518,0.182941 0.375219,0.03307 c 0.460326,0.04056 0.985285,0.143568 1.346798,0.264236 0.149632,0.04993 0.282487,0.07844 0.295246,0.06333 0.01283,-0.01511 0.139547,-0.445395 0.281755,-0.956194 z M 8.9383251,15.555195 c 0.033451,-0.116708 0.1367768,-0.478078 0.2295952,-0.803034 L 9.336681,14.161333 8.895976,12.485185 c -0.2423847,-0.921883 -0.4351659,-1.68326 -0.4284024,-1.691948 0.00672,-0.0087 0.125063,0.02827 0.2628971,0.08211 0.1378362,0.05384 0.2637793,0.09809 0.2798914,0.09827 0.016094,1.97e-4 -0.1995834,-0.589436 -0.479326,-1.310313 L 8.0224112,8.3526064 8.2176757,8.6022618 c 0.291318,0.3724853 2.4895603,3.3415092 2.4808763,3.3507572 -0.0043,0.0044 -0.296057,-0.04606 -0.648737,-0.112094 -0.352684,-0.06603 -0.6643983,-0.113988 -0.6927091,-0.106532 -0.028317,0.0075 0.326215,0.437769 0.7878171,0.956268 0.461607,0.518504 0.847098,0.958971 0.856648,0.978821 0.0096,0.01975 -0.240042,0.02579 -0.554643,0.0133 l -0.5719953,-0.02281 0.3691973,0.490471 c 0.203067,0.269759 0.371533,0.497915 0.374381,0.507014 0.01039,0.03289 1.180141,-1.190165 1.180141,-1.233827 0,-0.02466 -0.119481,-0.344338 -0.265491,-0.710414 C 10.862344,11.031461 10.002935,9.5634934 8.7614706,7.9788618 8.3522728,7.4565538 7.4506681,6.4303509 7.400977,6.4303509 c -0.00896,0 0.098763,1.1964798 0.2396569,2.6588417 l 0.2561479,2.6588414 0.3809299,0.765905 0.3809359,0.765904 -0.096074,0.132848 c -0.052845,0.07308 -0.1249408,0.191404 -0.1602045,0.262977 -0.062216,0.126259 -0.1791097,0.787992 -0.1791097,1.014002 0,0.102986 0.5670617,1.074978 0.6283098,1.076977 0.01426,3.95e-4 0.053313,-0.09464 0.086784,-0.211365 z M 23.542956,15.305538 c 0.158514,-0.254022 0.298609,-0.484331 0.311319,-0.511794 0.03174,-0.06857 -0.06627,-0.766984 -0.139058,-0.990799 -0.03266,-0.100407 -0.1052,-0.259749 -0.161223,-0.354113 -0.120031,-0.202178 -0.144722,-0.119227 0.318319,-1.068794 l 0.324823,-0.666111 0.233012,-2.5045261 c 0.128159,-1.3774864 0.242953,-2.5663132 0.255101,-2.6418351 0.01222,-0.075502 0.0098,-0.1373217 -0.0051,-0.1373217 -0.05307,0 -0.822073,0.8765535 -1.33312,1.5195454 -1.237721,1.5572781 -2.086792,3.0022965 -2.792287,4.7521235 -0.156171,0.387378 -0.283964,0.717686 -0.283964,0.734015 0,0.01632 0.196732,0.225593 0.437203,0.465028 0.24047,0.239435 0.507755,0.508898 0.593967,0.598805 l 0.156762,0.163476 0.365148,-0.502256 0.365145,-0.502261 -0.570482,0.01894 c -0.313766,0.01048 -0.570482,0.01632 -0.570482,0.0133 0,-0.0032 0.388056,-0.441531 0.862348,-0.974247 0.474294,-0.532711 0.837175,-0.974708 0.806407,-0.982211 -0.03078,-0.0075 -0.340618,0.03927 -0.688562,0.103993 -0.347943,0.0647 -0.627755,0.100266 -0.621809,0.07903 0.02644,-0.09432 2.634933,-3.5698473 2.632295,-3.5072072 -7.97e-4,0.023193 -0.224672,0.6095067 -0.497097,1.3029277 -0.272425,0.6934215 -0.485855,1.2605965 -0.474294,1.2603855 0.01161,-2.02e-4 0.133802,-0.04443 0.271624,-0.09827 0.137816,-0.05384 0.25822,-0.0881 0.267534,-0.07615 0.0092,0.01189 -0.180291,0.772606 -0.421343,1.690306 l -0.438291,1.66854 0.22689,0.804679 c 0.124777,0.442572 0.239058,0.80468 0.253943,0.80468 0.01487,0 0.156762,-0.207838 0.315263,-0.461866 z"
       id="path1" />
  </g>
</svg>
