<?xml version="1.0" encoding="UTF-8" standalone="no"?>
<!-- Created with Inkscape (http://www.inkscape.org/) -->

<svg
   width="16"
   height="16"
   viewBox="0 0 16 16"
   version="1.1"
   id="svg1"
   xmlns="http://www.w3.org/2000/svg"
   xmlns:svg="http://www.w3.org/2000/svg">
  <defs
     id="defs1" />
  <g
     id="layer1">
    <path
       style="fill:#b3b3b3;stroke-width:0.0217421"
       d="m 5.2140252,15.3131 c -0.6608611,-1.091962 -0.6022743,-0.984834 -0.560739,-1.025339 0.048504,-0.0473 0.4859295,-0.341825 0.4915254,-0.330946 0.00241,0.0047 0.041991,0.125669 0.087914,0.268774 0.045923,0.143105 0.1127486,0.343821 0.1485038,0.446037 l 0.065006,0.185852 0.082776,-0.306844 c 0.092716,-0.343701 0.1669453,-0.500599 0.3358225,-0.709837 l 0.1147723,-0.142202 -0.041384,-0.126786 c -0.02276,-0.06973 -0.04742,-0.135225 -0.054799,-0.145541 -0.018722,-0.02616 -0.3364477,0.113886 -0.5624352,0.247898 -0.4003262,0.237396 -0.7538107,0.539469 -1.1371083,0.971727 -0.1388404,0.156573 -0.1411243,0.158059 -0.077159,0.05018 0.036255,-0.06114 0.141141,-0.211859 0.2330772,-0.334919 L 4.506955,14.137408 4.2885028,13.778824 C 4.1683543,13.581605 4.0699094,13.412843 4.0697354,13.403797 c -6.193e-4,-0.0306 0.7204811,-0.315374 0.8044911,-0.317718 0.00722,-1.96e-4 0.049433,0.121467 0.093814,0.270376 l 0.08069,0.27074 0.1732626,-0.114272 c 0.095293,-0.06284 0.2676929,-0.161205 0.3831073,-0.21857 0.1333123,-0.06626 0.2086156,-0.116549 0.2064774,-0.137884 -0.00186,-0.01847 -0.013657,-0.10438 -0.026215,-0.190914 l -0.022847,-0.157327 -0.1931664,0.01613 c -0.6461986,0.05397 -1.0919558,0.213851 -1.7128709,0.614337 -0.1538432,0.09923 -0.2764974,0.173657 -0.2725689,0.165398 0.00394,-0.0082 0.089023,-0.09041 0.1890978,-0.182548 0.1000729,-0.09215 0.1819528,-0.171765 0.1819528,-0.176936 0,-0.0052 -0.1352068,-0.234761 -0.300459,-0.510206 -0.1652534,-0.275445 -0.2991129,-0.507013 -0.2974646,-0.514594 0.00165,-0.0076 0.098431,-0.582485 0.2150748,-1.277562 C 3.688752,10.247179 3.819932,9.4708649 3.8636221,9.2171128 L 3.9430589,8.7557436 4.081631,8.6100045 C 4.1578465,8.529848 4.2206145,8.4568246 4.221121,8.4477287 4.2219684,8.431829 4.1673609,8.3366444 3.8626334,7.8232825 L 3.7226145,7.587401 3.7843588,7.1041966 3.8461032,6.6209937 3.7118804,6.3408063 3.5776578,6.0606164 3.5086208,5.2676598 C 3.47065,4.831533 3.4167845,4.2256438 3.3889178,3.9212384 L 3.33825,3.3677732 3.2316839,3.247131 C 2.9381104,2.9147824 2.3685689,2.4352935 1.8317088,2.0685139 1.6617354,1.952389 1.5398356,1.8631301 1.5608198,1.8701634 c 0.020984,0.00703 0.145461,0.0475 0.276614,0.089927 0.2816686,0.091123 0.8038185,0.3136978 0.9817235,0.4184797 0.069191,0.040757 0.1208456,0.063678 0.1147888,0.050949 C 2.9140164,2.3876415 2.5379625,1.9964617 2.3166359,1.7873832 1.8248565,1.3228243 1.3043795,0.9184014 0.63559335,0.48117735 0.37853326,0.31311617 0.17451162,0.17556503 0.18221552,0.17550243 0.21885054,0.17510485 0.68742308,0.31012226 0.87405242,0.37470188 1.7132613,0.66509983 2.4843244,1.123067 3.1400962,1.7206005 3.2532591,1.8237175 3.3396904,1.8945693 3.3321653,1.8780556 3.2362842,1.6675934 2.7851683,0.98659645 2.5366656,0.67718418 2.4463601,0.56474505 2.3774091,0.47274918 2.3834353,0.47274918 c 0.021125,0 0.3617172,0.28088367 0.5222978,0.43073215 C 3.5234782,1.4799423 4.0308073,2.1871704 4.4012284,2.9882295 4.5099235,3.2232854 4.5428183,3.272734 4.7017323,3.4399396 5.3673788,4.1403199 6.0142088,5.0049911 6.4919147,5.8330238 6.6119276,6.0410472 6.6384621,6.0742193 6.675263,6.0622236 6.7929814,6.0238433 7.8859774,5.8005241 7.9563208,5.8004786 8.027473,5.80043 9.1294825,6.0239393 9.2469938,6.062249 9.286194,6.0750351 9.3145403,6.0381002 9.4797764,5.7589595 9.9775772,4.9180066 10.587989,4.1082086 11.228498,3.4390358 11.373264,3.2877936 11.424164,3.2161246 11.49056,3.0700607 11.942916,2.074941 12.55275,1.2709671 13.347256,0.62229024 c 0.103256,-0.0843035 0.191622,-0.1482352 0.196371,-0.1420684 0.0047,0.00615 -0.04539,0.0728925 -0.111432,0.14827583 C 13.238322,0.8498186 12.78498,1.519233 12.615857,1.8339226 c -0.05226,0.097241 -0.04781,0.094353 0.172362,-0.1117769 0.578469,-0.5415885 1.374464,-1.02548144 2.159832,-1.31297669 0.210399,-0.077022 0.776111,-0.23842101 0.799765,-0.2281796 0.0097,0.004284 -0.05783,0.0513882 -0.150209,0.10480829 C 15.393688,0.40372926 14.820472,0.7913398 14.544132,0.99816466 14.085688,1.3412862 13.385628,1.9782413 13.071795,2.3377811 l -0.103046,0.1180534 0.162152,-0.088829 c 0.24142,-0.1322553 0.620889,-0.2939487 0.953843,-0.4064383 0.162629,-0.054947 0.303807,-0.099954 0.313729,-0.1000305 0.0099,-7.47e-5 -0.09739,0.076373 -0.23846,0.1698701 -0.32604,0.2160799 -0.580254,0.406234 -0.857418,0.6413613 -0.247258,0.2097505 -0.61841,0.5673672 -0.679546,0.6547569 -0.0359,0.051322 -0.04838,0.1501802 -0.110489,0.8755879 -0.0385,0.4497575 -0.09159,1.0561179 -0.117947,1.3474724 l -0.04794,0.5297338 -0.132679,0.2704483 -0.13268,0.2704465 0.05741,0.4426165 c 0.03158,0.2434384 0.05741,0.4651087 0.05741,0.4925985 0,0.027491 -0.08836,0.1986192 -0.196361,0.3802858 -0.108,0.1816662 -0.216866,0.3683188 -0.241922,0.4147814 l -0.04556,0.084478 0.137494,0.1633213 0.137496,0.1633191 0.102765,0.6071082 c 0.05652,0.3339089 0.185715,1.1018193 0.287097,1.7064693 0.10138,0.604649 0.18819,1.112428 0.192909,1.128399 0.0047,0.01595 -0.129531,0.255958 -0.298335,0.533309 -0.168803,0.277349 -0.299933,0.512167 -0.291402,0.521816 0.0086,0.0097 0.08166,0.07608 0.162516,0.147627 0.222273,0.196686 0.217461,0.219503 -0.01436,0.06806 -0.627357,-0.409856 -1.04746,-0.572815 -1.639714,-0.636045 -0.359094,-0.03834 -0.322512,-0.05532 -0.350722,0.162775 -0.01336,0.103406 -0.02149,0.190757 -0.01803,0.194126 0.0035,0.0034 0.08784,0.04377 0.18752,0.08981 0.09968,0.04603 0.26987,0.141383 0.378205,0.211902 0.167154,0.108807 0.198635,0.12208 0.207933,0.08769 0.02501,-0.0925 0.144141,-0.487224 0.149433,-0.49514 0.01234,-0.01845 0.297854,0.07874 0.548411,0.186678 0.185273,0.07982 0.260543,0.123051 0.253822,0.145801 -0.0052,0.01779 -0.101287,0.184556 -0.213405,0.370602 l -0.203856,0.338275 0.104502,0.140282 c 0.119258,0.160094 0.339253,0.493933 0.339253,0.514815 0,0.0077 -0.05691,-0.05379 -0.126459,-0.136572 -0.414268,-0.493081 -0.989819,-0.94106 -1.486316,-1.156865 -0.111708,-0.04856 -0.205665,-0.08469 -0.208794,-0.08028 -0.0032,0.0044 -0.02794,0.06827 -0.055141,0.141944 l -0.049452,0.133943 0.138298,0.176757 c 0.155998,0.199372 0.24678,0.400241 0.334993,0.741234 0.03089,0.119408 0.05966,0.221636 0.06391,0.227172 0.0042,0.0055 0.07549,-0.190265 0.158276,-0.43511 0.08279,-0.244845 0.154767,-0.445175 0.159946,-0.445175 0.02538,0 0.498441,0.352965 0.498441,0.3719 0,0.01203 -0.100193,0.186953 -0.222654,0.388724 -0.12246,0.201775 -0.342642,0.564991 -0.489297,0.807149 -0.146653,0.242159 -0.2699,0.436058 -0.27388,0.430887 -0.004,-0.0052 -0.05004,-0.220025 -0.102364,-0.477457 -0.163406,-0.803989 -0.2411662,-1.060154 -0.3717103,-1.224506 l -0.064554,-0.08127 -0.1287879,0.07477 -0.1287865,0.07477 -0.1915959,0.464968 C 9.22052,15.038689 9.1171339,15.262174 9.096148,15.279589 9.075164,15.297009 8.8124923,15.418496 8.5124275,15.549572 L 7.9668785,15.787883 7.3977057,15.539896 C 7.0846621,15.403501 6.8202542,15.281151 6.8101334,15.268006 6.8000035,15.254868 6.7085676,15.040028 6.6069221,14.790603 L 6.4221095,14.337099 6.296394,14.252526 c -0.1218931,-0.08201 -0.1272186,-0.08331 -0.1749828,-0.04265 -0.133866,0.113934 -0.2511378,0.488783 -0.4138454,1.322797 -0.045857,0.235068 -0.08767,0.427219 -0.092916,0.427002 C 5.6094012,15.95948 5.429128,15.6685 5.2140365,15.313099 Z m 3.2015285,-0.245909 c 0.2262229,-0.09591 0.4232645,-0.187255 0.4378739,-0.203006 0.029357,-0.03165 0.1634041,-0.365805 0.1524527,-0.380035 -0.0038,-0.005 -0.051745,0.0064 -0.1065789,0.02523 -0.098742,0.03384 -0.1012885,0.03327 -0.2661878,-0.05959 -0.091571,-0.05157 -0.2793819,-0.146345 -0.4173612,-0.210619 l -0.2508712,-0.116864 -0.1974347,0.0915 c -0.1085883,0.05033 -0.2918656,0.141505 -0.4072795,0.202625 -0.2137771,0.113207 -0.2578448,0.120302 -0.4084603,0.06575 -0.043977,-0.01592 -0.042267,-0.0076 0.038896,0.191301 l 0.084897,0.207961 0.4189479,0.178121 c 0.2304204,0.09796 0.4393871,0.178996 0.4643715,0.180063 0.024983,9.94e-4 0.2305148,-0.07652 0.4567355,-0.172431 z M 7.3001245,14.029708 c 0.1169599,-0.06685 0.2725216,-0.154145 0.3456885,-0.193995 0.1457362,-0.07937 0.1573638,-0.101681 0.1607575,-0.308282 0.00186,-0.113224 -0.00104,-0.1193 -0.1316373,-0.26999 -0.073444,-0.08479 -0.1335377,-0.164868 -0.1335377,-0.177952 0,-0.01308 0.021463,-0.05692 0.047693,-0.09741 0.07557,-0.11666 0.053201,-0.248068 -0.058517,-0.343728 -0.053136,-0.04551 -0.1606421,-0.06504 -0.1848475,-0.03359 -0.0062,0.008 8.474e-4,0.05947 0.015808,0.114278 l 0.027066,0.09964 -0.052368,-0.04372 C 7.1440251,12.614458 7.069478,12.477404 7.0169316,12.187915 6.9743978,11.953567 6.9804325,11.890561 7.0787872,11.542186 l 0.090613,-0.320958 0.012962,0.232751 c 0.012735,0.228632 0.067364,0.691192 0.084215,0.713078 0.00472,0.0061 0.047252,-0.01325 0.094518,-0.04309 0.047265,-0.02983 0.106005,-0.05423 0.1305324,-0.05423 0.024526,0 0.1360123,0.0446 0.2477461,0.09911 0.1117317,0.05452 0.2153067,0.09912 0.230164,0.09912 0.014862,0 0.115123,-0.0446 0.2228153,-0.09912 0.2224932,-0.112631 0.2603092,-0.1175 0.3772629,-0.04858 0.046155,0.0272 0.088495,0.04351 0.094092,0.03624 0.021664,-0.02814 0.077811,-0.555147 0.079214,-0.743448 0.00186,-0.235447 0.00611,-0.228959 0.1226868,0.182818 0.082337,0.290816 0.084612,0.306358 0.066377,0.453427 -0.021306,0.171881 -0.077518,0.394182 -0.1219349,0.482234 -0.030735,0.06093 -0.2366736,0.281539 -0.2628433,0.281567 -0.00813,10e-6 -0.00104,-0.03444 0.015687,-0.07656 0.041037,-0.103083 0.024438,-0.146442 -0.056061,-0.146442 -0.074131,0 -0.1757005,0.09474 -0.2035391,0.189846 -0.019911,0.06802 0.00509,0.169698 0.060682,0.246796 l 0.037892,0.05255 -0.1462541,0.173339 -0.1462564,0.173341 0.013676,0.153107 c 0.010518,0.11779 0.023129,0.160859 0.054629,0.186706 0.022522,0.01847 0.1858581,0.114097 0.3629677,0.212486 l 0.3220143,0.178888 0.1870252,-0.07957 C 9.322239,13.961633 9.3332373,13.944377 9.1658819,13.895285 9.014364,13.850835 8.7569992,13.71943 8.7257859,13.670577 c -0.016078,-0.02517 0.00353,-0.02695 0.098841,-0.0089 0.1668345,0.0316 0.4394687,0.0066 0.5879505,-0.05361 0.1240156,-0.0504 0.2470738,-0.139612 0.2591255,-0.187858 0.00394,-0.01575 -0.1033324,-0.02564 -0.2942188,-0.02713 -0.1911999,-0.0016 -0.3454896,-0.01574 -0.4244107,-0.03919 l -0.1239991,-0.03683 0.1430762,-0.03206 c 0.3436466,-0.07704 0.761615,-0.272229 0.8477875,-0.395913 0.035485,-0.05093 0.03527,-0.05118 -0.041563,-0.05118 -0.066643,0 -0.193981,0.01551 -0.7203735,0.08777 -0.087906,0.01206 -0.064256,-0.0075 0.3015431,-0.248794 0.3663526,-0.241713 0.3959095,-0.266117 0.3837121,-0.316819 -0.00729,-0.03022 -0.075114,-0.286317 -0.1507583,-0.569116 -0.075646,-0.2828 -0.1331288,-0.514182 -0.1277383,-0.514182 0.011644,0 0.4392548,0.30256 0.5028963,0.355836 0.042433,0.03552 0.058487,0.02385 0.4066426,-0.295869 0.34319,-0.315164 0.364199,-0.339109 0.39519,-0.450408 0.018,-0.06466 0.115929,-0.493995 0.217617,-0.9540947 0.101687,-0.460098 0.186779,-0.833654 0.189083,-0.8301228 0.0023,0.00352 0.189814,0.4843323 0.416685,1.0684485 0.226872,0.584114 0.412491,1.050097 0.412491,1.035518 0,-0.01456 -0.01657,-0.118932 -0.03685,-0.2319 -0.02025,-0.112968 -0.09756,-0.567799 -0.171787,-1.0107393 C 11.722516,9.5205138 11.657792,9.1351699 11.652906,9.1071346 11.643597,9.0536893 11.590311,8.9970813 10.650912,8.0425977 10.330898,7.7174456 9.9145455,7.2941449 9.7256849,7.1019315 9.2197764,6.587039 9.2318597,6.5982601 9.2455051,6.6559742 9.2620332,6.7258716 9.3729184,7.5183053 9.3672123,7.5257191 9.3646047,7.5291018 9.2428293,7.2971466 9.0966179,7.0102338 8.9504085,6.7233186 8.8132292,6.4794136 8.7917754,6.4682213 8.7703188,6.4570277 8.6111232,6.4190153 8.4379999,6.3837465 8.264879,6.3484798 8.1073637,6.3150724 8.0879683,6.3095076 c -0.030598,-0.00877 -0.03366,9.934e-4 -0.023154,0.073741 0.00666,0.04612 0.079677,0.3236426 0.1622584,0.6167162 l 0.1501525,0.5328616 -0.09354,0.453332 C 8.2322395,8.2354914 8.1398597,8.6843353 8.078396,8.9835898 7.9722175,9.5005688 7.9656069,9.5234155 7.9457686,9.4420159 7.9055705,9.2770833 7.5604681,7.5650655 7.5606793,7.5316243 7.5608697,7.5130558 7.5960761,7.3751956 7.6390798,7.2252763 7.7435257,6.8611438 7.8868504,6.3152491 7.8802544,6.3066826 7.8750925,6.2999723 7.228712,6.4323999 7.147762,6.4567472 7.1201977,6.4650391 7.0198605,6.641082 6.8369914,7.0020082 6.6884592,7.2951686 6.5642857,7.5350243 6.5610518,7.5350243 c -0.00323,0 0.022705,-0.1979285 0.057649,-0.4398416 C 6.6536397,6.8532692 6.6802414,6.6475796 6.6778122,6.6380955 6.6753986,6.6286064 6.4145089,6.8850814 6.0980921,7.2080316 5.7816732,7.5309814 5.2442778,8.0791723 4.9038815,8.4262322 L 4.2849758,9.0572484 4.2137666,9.4793765 C 4.1746002,9.7115469 4.0917831,10.201681 4.029727,10.568563 c -0.062059,0.36688 -0.1107064,0.669431 -0.1081104,0.672333 0.00261,0.0028 0.1892619,-0.472902 0.414816,-1.05734 0.2255551,-0.5844385 0.4144152,-1.0626099 0.419691,-1.0626019 0.00527,9.9e-6 0.09953,0.4098068 0.2094522,0.9106609 0.1612966,0.734937 0.2091495,0.922743 0.2479988,0.97334 0.06307,0.08214 0.6776419,0.643533 0.7044985,0.643533 0.011398,0 0.1358463,-0.08364 0.2765464,-0.185849 0.1407022,-0.102221 0.2618324,-0.185849 0.2691851,-0.185849 0.00736,0 0.00732,0.01951 0,0.04336 -0.00738,0.02384 -0.076704,0.280277 -0.1540461,0.569835 l -0.1406178,0.526472 0.3914133,0.250798 c 0.2152799,0.137939 0.38812,0.255081 0.3840912,0.260314 -0.00404,0.0053 -0.1611245,-0.0127 -0.3491026,-0.03985 -0.3735664,-0.05396 -0.50393,-0.06128 -0.50393,-0.02832 0,0.03572 0.1349833,0.139801 0.276614,0.213272 0.1223219,0.06346 0.4627307,0.182022 0.6486098,0.225917 l 0.076308,0.01802 -0.1049216,0.03508 c -0.065856,0.02202 -0.2204841,0.03671 -0.4152888,0.03943 -0.355063,0.005 -0.3809925,0.0253 -0.1893643,0.148524 0.182918,0.117613 0.5059927,0.169126 0.7429597,0.11846 0.049838,-0.01066 0.090614,-0.01164 0.090614,-0.0022 0,0.04252 -0.3656639,0.226184 -0.5212682,0.26182 -0.040129,0.0092 -0.065883,0.02504 -0.057229,0.03521 0.01659,0.01951 0.3320272,0.164046 0.3972673,0.182036 0.020987,0.0058 0.041182,0.01181 0.044882,0.01339 0.00369,0.0016 0.1024202,-0.05181 0.2193824,-0.118666 z M 6.6455048,11.597869 c 3.912e-4,-0.01987 0.025133,-0.168013 0.054972,-0.329215 l 0.054254,-0.293098 -0.066401,-0.17772 c -0.036521,-0.09774 -0.069157,-0.181477 -0.072521,-0.186063 -0.00338,-0.0046 -0.1019219,-0.02459 -0.2190092,-0.04445 C 6.1410782,10.523952 6.0145551,10.466135 5.8678861,10.325631 5.7257896,10.189501 5.6388111,10.059089 5.5858977,9.9028273 5.5434968,9.7776059 5.4811004,9.4864185 5.4811004,9.4137638 c 0,-0.021188 -0.1073827,-0.147688 -0.2386279,-0.2811034 C 5.1112293,8.9992451 5.0060672,8.8879043 5.0087822,8.8852338 c 0.00271,-0.00268 0.2329648,0.025109 0.5116622,0.06173 l 0.5067267,0.066583 0.3040387,0.2240326 C 6.4984298,9.360799 6.6374193,9.4545457 6.6400769,9.4459065 6.6427169,9.4372631 6.589081,9.2533659 6.5208472,9.0372372 6.4526131,8.821108 6.3967882,8.6327986 6.3967882,8.6187712 c 0,-0.014022 0.031974,-0.07683 0.071054,-0.1395641 0.1357212,-0.2178722 0.5584817,-0.8463313 0.5584817,-0.8302175 0,0.00893 -0.030602,0.2940912 -0.067995,0.6337297 -0.037396,0.3396385 -0.065296,0.6327668 -0.062,0.6513962 0.00329,0.018627 0.1241734,0.2134233 0.2686133,0.4328734 l 0.2626201,0.3990012 -0.032727,0.3952829 c -0.018001,0.217406 -0.035122,0.392171 -0.038049,0.388369 -0.00294,-0.0038 -0.027235,-0.17231 -0.05402,-0.374467 C 7.2759788,9.9730214 7.2472631,9.7918433 7.2389547,9.7725605 7.2229616,9.7354531 6.930188,9.4431912 6.9089271,9.4431147 c -0.00687,-2.38e-5 0.0047,0.058497 0.025703,0.1300504 0.092405,0.3148404 0.2203811,0.9023159 0.2739547,1.2575799 0.00878,0.05815 0.00601,0.05681 -0.045056,-0.02178 l -0.054394,-0.08373 -0.049479,0.10851 c -0.097825,0.214541 -0.4148554,0.799472 -0.4141521,0.764127 z M 6.5097774,10.22431 C 6.5957234,10.18492 6.7516613,10.049651 6.7656291,10.00237 6.7704491,9.986041 6.7065831,9.924122 6.6197802,9.8610051 L 6.4653425,9.7487175 6.3909801,9.870919 C 6.3500801,9.938129 6.3095121,9.9836559 6.3008271,9.97209 6.2691405,9.929882 6.1911934,9.7009569 6.1796848,9.6163084 6.1685896,9.5347923 6.1569604,9.5228145 5.9934735,9.4247184 L 5.819081,9.3200792 5.8295762,9.5192061 c 0.013041,0.2471309 0.075617,0.4262319 0.1976919,0.5658089 0.1434286,0.163995 0.3183916,0.214504 0.482499,0.139295 z m 2.6115417,1.095559 C 9.0317503,11.153066 8.9264553,10.950729 8.8873312,10.870232 l -0.071133,-0.146363 -0.045332,0.07203 c -0.034212,0.05436 -0.045503,0.06165 -0.046021,0.02973 -0.00124,-0.07016 0.1244605,-0.678607 0.215056,-1.0418285 0.046742,-0.1873974 0.081199,-0.3407246 0.076571,-0.3407246 -0.00652,0 -0.1427793,0.1298843 -0.3276677,0.3123483 -0.00371,0.00367 -0.030781,0.1829855 -0.060169,0.3985048 -0.02939,0.215519 -0.055052,0.386276 -0.057037,0.379464 -0.00209,-0.0069 -0.018082,-0.181768 -0.035791,-0.388785 L 8.503628,9.7682094 8.7665086,9.3640575 C 8.9963443,9.0107106 9.0293151,8.9490009 9.0288082,8.873156 9.0284171,8.8254436 8.9994649,8.5299332 8.9643086,8.2164675 8.9291561,7.9030013 8.9018875,7.6441903 8.9037168,7.6413297 8.9151372,7.6234662 9.5325957,8.590239 9.5304097,8.6225526 9.5289321,8.6445258 9.471274,8.8398422 9.402295,9.0565869 9.3333152,9.2733294 9.2793378,9.4538643 9.2823458,9.4577724 c 0.00304,0.0039 0.1464328,-0.095117 0.3187215,-0.2200544 l 0.313251,-0.2271604 0.4922987,-0.063561 c 0.270765,-0.034955 0.492301,-0.055932 0.492301,-0.046612 0,0.00932 -0.0991,0.1157174 -0.220215,0.2364368 -0.153288,0.1527859 -0.223086,0.2383211 -0.229666,0.2814542 -0.08108,0.5315444 -0.176993,0.7380304 -0.44882,0.9662454 -0.121271,0.101816 -0.2690668,0.156774 -0.5034446,0.187211 -0.073449,0.0096 -0.1470601,0.02646 -0.1635846,0.0376 -0.016528,0.01113 -0.058181,0.09956 -0.092569,0.196465 l -0.062523,0.176195 0.057429,0.314655 c 0.03159,0.173062 0.055454,0.31732 0.05304,0.320575 -0.00241,0.0033 -0.077674,-0.130557 -0.1672425,-0.297359 z m 0.6621625,-1.128011 c 0.094493,-0.06331 0.2026026,-0.2091712 0.2539924,-0.3426823 0.05111,-0.1327818 0.09135,-0.4139989 0.06817,-0.4764301 -0.01652,-0.044489 -0.0265,-0.041419 -0.178772,0.054968 C 9.7705258,9.5266726 9.7649227,9.5332143 9.7438904,9.6413097 9.7202778,9.7626801 9.6513698,9.9512694 9.6220283,9.9748226 9.6119394,9.9829246 9.5753249,9.9395162 9.540678,9.8783508 9.5060322,9.8171853 9.470844,9.766706 9.4624803,9.7661747 9.4378824,9.7646167 9.1629196,9.9662315 9.1629196,9.9858312 c 0,0.039264 0.1106863,0.1515148 0.2098444,0.2128028 0.086846,0.05368 0.1247397,0.06306 0.219945,0.05442 0.063805,-0.0058 0.1487497,-0.03304 0.1907665,-0.06119 z m -2.2641773,0.793067 c 0.047625,-0.08689 0.4176134,-0.55066 0.4392984,-0.55066 0.040801,0 0.4762965,0.545523 0.4786527,0.59958 3.911e-4,0.0095 -0.070071,-0.03308 -0.1566341,-0.09461 C 8.1940609,10.877714 8.0863895,10.8051 8.041356,10.777877 L 7.959473,10.728377 7.7199609,10.89209 C 7.502044,11.041042 7.4839528,11.049411 7.5193047,10.98493 Z m -2.5574335,1.742937 c 0.1495125,-0.05024 0.4361555,-0.106126 0.6470513,-0.12615 l 0.1755126,-0.01666 0.021694,-0.135722 c 0.011933,-0.07465 0.018807,-0.138874 0.015257,-0.142726 -0.00355,-0.0038 -0.2167583,-0.222145 -0.4738177,-0.485096 -0.2570587,-0.262948 -0.4724642,-0.488102 -0.4786751,-0.500339 -0.00622,-0.01224 -0.039866,-0.183343 -0.074787,-0.380237 -0.034921,-0.196892 -0.070617,-0.357985 -0.07932,-0.357985 -0.00871,0 -0.015831,0.01008 -0.015831,0.02238 0,0.01231 -0.176355,0.403938 -0.3918993,0.870273 -0.2155465,0.466337 -0.3893835,0.857349 -0.3863056,0.868918 0.00969,0.03647 0.1957519,0.341794 0.2091883,0.343288 0.00705,7.94e-4 0.091268,-0.196506 0.1871417,-0.43842 0.095874,-0.241914 0.1813744,-0.449121 0.1899984,-0.460461 0.00863,-0.01133 0.036929,0.06114 0.06289,0.161069 0.1542659,0.593729 0.2306643,0.840521 0.2562497,0.827767 0.014621,-0.0073 0.075663,-0.02974 0.1356558,-0.04991 z m 6.3061242,-0.437583 c 0.0698,-0.253498 0.126918,-0.473728 0.126918,-0.489402 0,-0.08158 0.04651,0.01054 0.201469,0.398956 0.09379,0.235099 0.173304,0.441393 0.176695,0.458427 0.01123,0.05639 0.0345,0.03268 0.143566,-0.146382 l 0.108032,-0.177358 -0.03589,-0.07664 c -0.140212,-0.299308 -0.745591,-1.602916 -0.761859,-1.640564 -0.02513,-0.05815 -0.02196,-0.06987 -0.09889,0.365601 l -0.05971,0.338027 -0.485761,0.501687 c -0.347846,0.35925 -0.483214,0.513036 -0.476783,0.541659 0.0049,0.02199 0.01454,0.08083 0.02134,0.130761 l 0.01236,0.09079 0.184185,0.01641 c 0.225961,0.02013 0.483649,0.07125 0.661106,0.131135 0.07345,0.02478 0.138665,0.03893 0.144928,0.03143 0.0063,-0.0075 0.0685,-0.221041 0.138306,-0.47454 z M 4.477664,7.8261809 C 4.4940875,7.7682594 4.544807,7.5889205 4.5903655,7.4276507 L 4.6732048,7.1344353 4.4568751,6.3025963 C 4.3378951,5.8450837 4.2432643,5.4672282 4.2465839,5.4629164 c 0.00329,-0.00428 0.061392,0.014025 0.1290495,0.040746 0.067656,0.026721 0.1294817,0.048676 0.1373902,0.048775 0.00791,9.78e-5 -0.097971,-0.2925252 -0.2352877,-0.6502825 L 4.0280661,4.2516806 4.1239118,4.3755802 c 0.143,0.184857 1.2220573,1.6583235 1.2177945,1.6629135 -0.00209,0.00215 -0.1453259,-0.022857 -0.318447,-0.055631 -0.1731231,-0.032773 -0.3261357,-0.056567 -0.3400319,-0.05287 -0.0139,0.00369 0.1601297,0.2172565 0.3867179,0.4745773 0.2265898,0.257323 0.4158172,0.4759183 0.4205049,0.4857694 0.0047,0.00984 -0.1178298,0.012802 -0.2722593,0.00656 L 4.9374143,6.8855751 5.118643,7.128986 C 5.21832,7.2628617 5.3010178,7.3760912 5.302416,7.3806068 5.307476,7.3969238 5.8817155,6.7899516 5.8817155,6.7682831 5.8817155,6.7560461 5.8230695,6.5973955 5.751393,6.415719 5.4221072,5.5810984 5.0002474,4.8525748 4.390846,4.0661536 4.1899824,3.8069433 3.7474092,3.2976593 3.7230171,3.2976593 c -0.00445,0 0.048485,0.5937885 0.1176411,1.3195301 L 3.9663941,5.9367189 4.1533823,6.3168219 4.3403727,6.696925 4.2932107,6.76286 c -0.025937,0.036265 -0.061328,0.094994 -0.07864,0.1305097 -0.030543,0.062661 -0.087922,0.3910653 -0.087922,0.5032298 0,0.051107 0.2783553,0.5334891 0.3084206,0.5344813 0.00701,1.96e-4 0.026167,-0.046972 0.042596,-0.1048962 z m 7.169013,-0.1238995 c 0.07781,-0.1260666 0.146579,-0.2403646 0.152818,-0.2539938 0.01558,-0.034035 -0.03253,-0.3806381 -0.06826,-0.491714 -0.01603,-0.049826 -0.05164,-0.1289079 -0.07914,-0.1757389 -0.05892,-0.1003369 -0.07104,-0.059173 0.156254,-0.5304205 l 0.159447,-0.3305781 0.114379,-1.2429456 c 0.06291,-0.6836196 0.119259,-1.2736102 0.125222,-1.3110909 0.006,-0.037473 0.0048,-0.068148 -0.0025,-0.068148 -0.02605,0 -0.403533,0.4350166 -0.654392,0.7541201 -0.607563,0.7728466 -1.024349,1.4899799 -1.370657,2.3583839 -0.07666,0.1922488 -0.13939,0.3561739 -0.13939,0.3642775 0,0.00809 0.09657,0.1119565 0.214611,0.2307838 0.11804,0.1188274 0.249243,0.2525559 0.291562,0.2971755 l 0.07695,0.081126 0.179241,-0.2492601 0.17924,-0.2492625 -0.280034,0.00941 c -0.154019,0.00517 -0.280034,0.00813 -0.280034,0.00659 0,-0.00156 0.190486,-0.219123 0.423303,-0.483499 0.232818,-0.2643737 0.410946,-0.4837281 0.395843,-0.4874518 -0.01511,-0.00372 -0.1672,0.01949 -0.337996,0.051608 -0.170796,0.03211 -0.308148,0.04976 -0.305229,0.039221 0.01298,-0.046809 1.293416,-1.7716441 1.292121,-1.7405575 -3.91e-4,0.01151 -0.110285,0.3024865 -0.244011,0.6466176 -0.133726,0.344131 -0.238493,0.6256086 -0.232818,0.6255044 0.0057,-10e-5 0.06568,-0.022053 0.133333,-0.048775 0.06765,-0.026721 0.126753,-0.043722 0.131325,-0.037792 0.0045,0.00593 -0.0885,0.3834284 -0.206826,0.8388643 l -0.215145,0.8280629 0.111374,0.3993459 c 0.06125,0.2196404 0.117347,0.3993479 0.124654,0.3993479 0.0073,0 0.07695,-0.1031467 0.154754,-0.2292151 z"
       id="path1" />
  </g>
</svg>
