<?xml version="1.0" encoding="UTF-8" standalone="no"?>
<!-- Created with Inkscape (http://www.inkscape.org/) -->

<svg
   width="120"
   height="120"
   viewBox="0 0 120 120"
   version="1.1"
   id="svg1"
   xmlns="http://www.w3.org/2000/svg"
   xmlns:svg="http://www.w3.org/2000/svg">
  <defs
     id="defs1" />
  <g
     id="layer1">
    <path
       style="fill:#b3b3b3;stroke-width:0.164502"
       d="m 38.846713,114.08447 c -5.042898,-8.19177 -4.595806,-7.3881 -4.278878,-7.69197 0.370079,-0.35484 3.708026,-2.56433 3.750728,-2.48272 0.01873,0.0354 0.320261,0.94276 0.670825,2.01632 0.350602,1.07355 0.860361,2.5793 1.133201,3.34611 l 0.496086,1.39424 0.631682,-2.30191 c 0.707497,-2.5784 1.273928,-3.75543 2.562577,-5.32511 l 0.875792,-1.06678 -0.315766,-0.95113 c -0.173802,-0.52311 -0.361839,-1.01445 -0.418175,-1.091832 -0.142713,-0.196241 -2.567333,0.854362 -4.291799,1.859702 -3.054805,1.78091 -5.752192,4.04703 -8.677057,7.28977 -1.059447,1.1746 -1.076864,1.18574 -0.588794,0.37645 0.276811,-0.45867 1.077052,-1.58934 1.778592,-2.51252 l 1.275539,-1.67852 -1.666969,-2.69005 c -0.916846,-1.47952 -1.668055,-2.745548 -1.669366,-2.813407 -0.0037,-0.229563 5.497817,-2.365898 6.138902,-2.383482 0.05506,-0.0015 0.377197,0.911231 0.71585,2.028327 l 0.615725,2.031062 1.322136,-0.85726 c 0.727124,-0.47142 2.042704,-1.209339 2.923404,-1.639684 1.017269,-0.497073 1.591904,-0.874335 1.575573,-1.034388 -0.01498,-0.138572 -0.104132,-0.783047 -0.200023,-1.432214 l -0.174177,-1.180249 -1.473988,0.120998 c -4.931011,0.404876 -8.332486,1.604285 -13.070554,4.608687 -1.173954,0.7444 -2.109903,1.30275 -2.079937,1.24079 0.02997,-0.0615 0.679291,-0.67824 1.442973,-1.369452 0.763645,-0.6913 1.388435,-1.28856 1.388435,-1.327354 0,-0.03902 -1.031728,-1.761146 -2.292733,-3.827504 -1.261005,-2.066346 -2.282432,-3.803538 -2.269883,-3.860411 0.01124,-0.057 0.751096,-4.36973 1.641198,-9.584116 0.890064,-5.214314 1.891076,-11.038126 2.224448,-12.941742 l 0.606211,-3.461136 1.057424,-1.093324 c 0.581602,-0.601351 1.060533,-1.149128 1.064391,-1.217368 0.0075,-0.119286 -0.410234,-0.833345 -2.735555,-4.684523 l -1.068437,-1.76955 0.47114,-3.624937 0.471103,-3.62493 -1.024237,-2.101938 -1.024199,-2.10195 -0.526839,-5.94866 c -0.289546,-3.27177 -0.700791,-7.817074 -0.913437,-10.100689 l -0.386636,-4.152029 -0.813201,-0.90504 c -2.24018,-2.493243 -6.586218,-6.090303 -10.682902,-8.841839 -1.297039,-0.871156 -2.22722,-1.540766 -2.067089,-1.488007 0.159943,0.05253 1.109976,0.356332 2.110764,0.674644 2.149346,0.683571 6.13377,2.353324 7.49134,3.139387 0.527963,0.305772 0.922128,0.47772 0.875943,0.382221 C 21.295986,17.119266 18.426371,14.184713 16.73749,12.616226 12.984815,9.1311626 9.0131645,6.0972304 3.9098119,2.8172282 1.9483526,1.5564272 0.39150863,0.52453684 0.45031682,0.52406401 0.72974939,0.52108559 4.3054375,1.5339662 5.7295697,2.0184369 12.13337,4.1969652 18.017224,7.632579 23.021276,12.115206 c 0.863507,0.773572 1.523058,1.305087 1.465636,1.181206 C 23.755255,11.717545 20.312878,6.6087899 18.416632,4.287621 17.72749,3.444116 17.201363,2.7539739 17.247361,2.7539739 c 0.161067,0 2.760164,2.1071578 3.985547,3.2312975 4.71387,4.3245396 8.585172,9.6300766 11.411786,15.6395336 0.829421,1.763351 1.08046,2.134314 2.29307,3.38867 5.079419,5.254166 10.015262,11.740822 13.660509,17.952623 0.915797,1.560564 1.118292,1.809416 1.39911,1.71943 0.898267,-0.287939 9.238693,-1.96324 9.775496,-1.963579 0.542908,-3.69e-4 8.952142,1.676369 9.848836,1.963765 0.299285,0.09594 0.515452,-0.181163 1.776307,-2.275234 3.798635,-6.308726 8.456544,-12.38373 13.344142,-17.403785 1.104657,-1.134601 1.493091,-1.672251 1.99974,-2.768007 3.451817,-7.465267 8.105343,-13.4965822 14.168056,-18.3628753 0.78792,-0.6324091 1.46223,-1.1120435 1.49845,-1.0657774 0.0374,0.045756 -0.34648,0.5468128 -0.85032,1.1123488 -1.47939,1.6603233 -4.938769,6.6821829 -6.22929,9.0429499 -0.39881,0.729484 -0.364836,0.707801 1.315243,-0.838538 4.414177,-4.0629336 10.488237,-7.6930386 16.481237,-9.8497908 1.6055,-0.577796 5.92233,-1.78860783 6.10283,-1.71177935 0.0742,0.0323904 -0.44128,0.38551995 -1.14619,0.78626335 -1.5561,0.8847041 -5.93019,3.7925148 -8.03886,5.344092 -3.4983,2.5740484 -8.8403,7.3524068 -11.2351,10.0496318 l -0.786307,0.885628 1.237332,-0.666393 c 1.842235,-0.992166 4.737885,-2.205167 7.278585,-3.049055 1.24096,-0.412226 2.31828,-0.749812 2.39398,-0.750411 0.0757,-5.62e-4 -0.74316,0.572919 -1.81961,1.274342 -2.48796,1.621008 -4.42781,3.047517 -6.54281,4.811411 -1.886765,1.573529 -4.718922,4.256319 -5.185455,4.911908 -0.273814,0.384995 -0.36933,1.126631 -0.84313,6.568553 -0.293666,3.374023 -0.698881,7.922868 -0.900027,10.10857 l -0.36596,3.973998 -1.012437,2.02887 -1.012437,2.028859 0.438065,3.320453 c 0.240851,1.826247 0.438102,3.489188 0.438102,3.695414 0,0.206219 -0.674272,1.490017 -1.49841,2.852859 -0.824102,1.362838 -1.654833,2.763078 -1.846053,3.111639 l -0.347605,0.633757 1.049183,1.225216 1.04922,1.225198 0.784172,4.554456 c 0.431285,2.504945 1.417165,8.265715 2.190774,12.801723 0.773608,4.536004 1.436043,8.345299 1.47204,8.465113 0.03746,0.119658 -0.988427,1.920165 -2.276514,4.000819 -1.288124,2.080638 -2.288725,3.842213 -2.223624,3.9146 0.06555,0.07278 0.623142,0.570741 1.240104,1.107479 1.696148,1.475511 1.659402,1.646681 -0.109376,0.510581 -4.787212,-3.074692 -7.992932,-4.297191 -12.512286,-4.771535 -2.740162,-0.287641 -2.461029,-0.415003 -2.676297,1.221117 -0.101885,0.775739 -0.164064,1.431037 -0.137469,1.456309 0.02622,0.02569 0.670301,0.328371 1.430912,0.673746 0.760648,0.345311 2.059336,1.060636 2.886021,1.589663 1.275501,0.81626 1.515754,0.91583 1.586698,0.65784 0.191033,-0.69393 1.0999,-3.655096 1.14028,-3.714482 0.09402,-0.138422 2.27288,0.5907 4.184821,1.400437 1.413756,0.598798 1.988129,0.923111 1.936849,1.093782 -0.0397,0.133473 -0.772897,1.384513 -1.628462,2.780203 l -1.555571,2.53771 0.797432,1.05237 c 0.910029,1.20101 2.588759,3.70543 2.588759,3.86208 0,0.0578 -0.434244,-0.40353 -0.964979,-1.02455 -3.161183,-3.69903 -7.553107,-7.05971 -11.34174,-8.67865 -0.85242,-0.3643 -1.569393,-0.63534 -1.59329,-0.602257 -0.02248,0.03314 -0.213133,0.512157 -0.42076,1.064847 l -0.377346,1.00482 1.055326,1.32601 c 1.190398,1.49567 1.883136,3.00256 2.556283,5.56065 0.235608,0.89579 0.455258,1.66269 0.487659,1.70422 0.03371,0.0413 0.576058,-1.42735 1.207778,-3.26414 0.631757,-1.8368 1.180996,-3.33965 1.220513,-3.33965 0.193655,0 3.803505,2.6479 3.803505,2.78995 0,0.0902 -0.764544,1.40249 -1.699033,2.91615 -0.934451,1.5137 -2.614605,4.2385 -3.733721,6.05514 -1.119078,1.81665 -2.05956,3.27125 -2.089901,3.23246 -0.02997,-0.039 -0.381841,-1.6506 -0.781137,-3.58183 -1.246921,-6.03142 -1.840285,-7.95314 -2.836428,-9.18609 l -0.492566,-0.60968 -0.982771,0.56092 -0.982733,0.56092 -1.462039,3.48813 c -0.804099,1.91847 -1.592991,3.59502 -1.753159,3.72567 -0.159943,0.13068 -2.164516,1.04206 -4.454215,2.02538 l -4.162983,1.78778 -4.343229,-1.86037 c -2.388774,-1.02322 -4.406419,-1.94107 -4.483657,-2.03968 -0.07716,-0.0986 -0.775032,-1.71027 -1.550663,-3.58142 l -1.410235,-3.40213 -0.959323,-0.63444 c -0.930144,-0.61523 -0.970785,-0.62498 -1.335283,-0.31996 -1.021502,0.85472 -1.916361,3.6668 -3.157963,9.92347 -0.349853,1.76345 -0.66899,3.20494 -0.709032,3.20331 -0.03971,-10e-4 -1.415667,-2.18436 -3.057015,-4.85053 z m 24.430197,-1.84478 c 1.726264,-0.7195 3.229844,-1.40477 3.341317,-1.52293 0.223996,-0.23741 1.246921,-2.74422 1.163354,-2.85097 -0.02997,-0.0375 -0.394839,0.048 -0.813314,0.18928 -0.753456,0.25387 -0.772897,0.24959 -2.031205,-0.44704 -0.698731,-0.38687 -2.131891,-1.09786 -3.184782,-1.58004 l -1.914375,-0.8767 -1.506576,0.68642 c -0.828597,0.37757 -2.227145,1.06156 -3.107845,1.52007 -1.631309,0.84927 -1.967565,0.90249 -3.116872,0.49325 -0.335618,-0.11943 -0.322508,-0.057 0.297038,1.43512 l 0.647826,1.5601 3.196919,1.33624 c 1.75829,0.73488 3.352891,1.3428 3.543512,1.35081 0.190658,0.007 1.759002,-0.57405 3.485266,-1.29356 z m -8.511605,-7.78307 c 0.892498,-0.5015 2.079562,-1.15638 2.637865,-1.45533 1.112075,-0.59542 1.200811,-0.7628 1.226694,-2.31269 0.01498,-0.849393 -0.0075,-0.894974 -1.004458,-2.025432 -0.560439,-0.636087 -1.01903,-1.236821 -1.01903,-1.334975 0,-0.09814 0.163689,-0.427009 0.363711,-0.73076 0.576658,-0.875166 0.405964,-1.860973 -0.44653,-2.578606 -0.405514,-0.341402 -1.225832,-0.487922 -1.410535,-0.251974 -0.0472,0.06002 0.0075,0.446134 0.120613,0.857298 l 0.206391,0.747488 -0.399634,-0.327999 c -1.466684,-1.204058 -2.03555,-2.232218 -2.436495,-4.403929 -0.324381,-1.75805 -0.278683,-2.230715 0.471964,-4.844182 l 0.691427,-2.407786 0.09889,1.746069 c 0.09701,1.715171 0.513991,5.185238 0.642657,5.349423 0.03746,0.04576 0.360716,-0.0994 0.721281,-0.323271 0.360715,-0.223791 0.808894,-0.406826 0.996031,-0.406826 0.187287,0 1.037909,0.334588 1.890515,0.743511 0.852606,0.409001 1.642959,0.743587 1.756342,0.743587 0.113496,0 0.87849,-0.334589 1.700231,-0.743587 1.697797,-0.844945 1.986369,-0.881472 2.87883,-0.364447 0.3521,0.204059 0.675245,0.326398 0.717984,0.271856 0.165188,-0.211096 0.593738,-4.164647 0.604414,-5.577255 0.01498,-1.766295 0.04645,-1.717624 0.936211,1.371476 0.628312,2.181667 0.645654,2.298261 0.506537,3.401555 -0.162565,1.289431 -0.591528,2.957104 -0.93048,3.617659 -0.234484,0.457092 -1.805974,2.112072 -2.005697,2.112281 -0.0618,7.4e-5 -0.0075,-0.258378 0.119864,-0.574341 0.313144,-0.773318 0.186538,-1.098592 -0.427764,-1.098592 -0.565682,0 -1.340752,0.710726 -1.553173,1.424201 -0.152077,0.510279 0.03896,1.273053 0.463049,1.851434 l 0.289171,0.394224 -1.116044,1.300366 -1.116045,1.300384 0.104506,1.14859 c 0.08016,0.88365 0.176425,1.20675 0.416864,1.40064 0.17193,0.13858 1.418252,0.85595 2.769716,1.59405 l 2.457247,1.342 1.427128,-0.59693 c 2.079938,-0.86991 2.163842,-0.99936 0.886805,-1.36764 -1.156199,-0.33347 -3.120093,-1.31925 -3.358285,-1.68574 -0.12286,-0.18883 0.02622,-0.20216 0.754206,-0.0667 1.273104,0.23705 3.353528,0.0495 4.486541,-0.40218 0.946325,-0.37809 1.885383,-1.04735 1.977341,-1.409283 0.02997,-0.118169 -0.788517,-0.192332 -2.245124,-0.203538 -1.459005,-0.01191 -2.636368,-0.118095 -3.238609,-0.294008 l -0.946212,-0.276286 1.091809,-0.240508 c 2.622284,-0.577945 5.811711,-2.042228 6.469276,-2.970093 0.270818,-0.382069 0.268945,-0.383945 -0.317264,-0.383945 -0.508523,0 -1.480206,0.116344 -5.497031,0.65844 -0.670825,0.09047 -0.490318,-0.05625 2.301049,-1.866423 2.795524,-1.813302 3.021093,-1.996375 2.928011,-2.376735 -0.05581,-0.226695 -0.573136,-2.147917 -1.150393,-4.269439 -0.577294,-2.121532 -1.015884,-3.857332 -0.974755,-3.857332 0.08877,0 3.351842,2.269768 3.837478,2.669439 0.323632,0.266458 0.446343,0.178929 3.103012,-2.219574 2.6188,-2.364319 2.779118,-2.543952 3.015625,-3.378905 0.137469,-0.48507 0.884632,-3.705891 1.660563,-7.157506 0.775969,-3.451597 1.425294,-6.253972 1.442861,-6.227482 0.01873,0.02643 1.448442,3.633407 3.179651,8.015378 1.731208,4.381949 3.147624,7.877697 3.147624,7.76833 0,-0.109234 -0.126606,-0.892214 -0.281305,-1.739687 -0.154325,-0.847474 -0.744467,-4.259558 -1.310861,-7.582443 -0.566282,-3.322731 -1.060196,-6.213535 -1.097504,-6.423849 -0.07079,-0.400978 -0.477582,-0.825612 -7.646001,-7.986026 -2.441926,-2.439253 -5.61903,-5.614805 -7.060205,-7.056769 -3.860477,-3.862657 -3.768257,-3.778479 -3.664125,-3.345516 0.126232,0.524381 0.972246,6.469103 0.92872,6.524721 -0.01873,0.02569 -0.949172,-1.714721 -2.064842,-3.867106 -1.115707,-2.1524 -2.162493,-3.982147 -2.32622,-4.066113 -0.163689,-0.08395 -1.378509,-0.369176 -2.699558,-0.63376 -1.321087,-0.264596 -2.523022,-0.515152 -2.671053,-0.55694 -0.23336,-0.06601 -0.256958,0.0074 -0.1768,0.553191 0.05094,0.345981 0.608047,2.427923 1.238194,4.626526 l 1.145748,3.997456 -0.713751,3.400845 c -0.392629,1.870462 -1.097504,5.237635 -1.566546,7.482612 -0.810204,3.878312 -0.86066,4.049698 -1.012025,3.439054 -0.306777,-1.237308 -2.940148,-14.080648 -2.938537,-14.331528 0.0014,-0.139316 0.270068,-1.173503 0.598233,-2.298183 0.79702,-2.731674 1.890702,-6.826912 1.840359,-6.891172 -0.0397,-0.05026 -4.971802,0.943111 -5.589513,1.125759 -0.210136,0.06229 -0.975991,1.382861 -2.371393,4.090484 -1.133425,2.199259 -2.080986,3.998619 -2.105633,3.998619 -0.02622,0 0.173053,-1.484831 0.4399,-3.299631 0.266697,-1.81481 0.469604,-3.357865 0.451063,-3.42902 -0.01873,-0.07126 -2.009218,1.85286 -4.423725,4.275597 -2.414545,2.422726 -6.515274,6.535187 -9.112761,9.138789 l -4.722749,4.733805 -0.543395,3.166751 c -0.29891,1.74172 -0.930817,5.418646 -1.404354,8.170949 -0.473575,2.752289 -0.844778,5.021991 -0.824963,5.043759 0.01873,0.02085 1.444209,-3.547651 3.165341,-7.932035 1.72117,-4.384391 3.162346,-7.971569 3.202575,-7.97151 0.04045,7.5e-5 0.759525,3.07432 1.598311,6.831667 1.230814,5.513408 1.595949,6.922307 1.892425,7.301878 0.481253,0.616206 5.170926,4.827708 5.375855,4.827708 0.0869,0 1.036635,-0.627458 2.110278,-1.394216 1.073681,-0.766852 1.997981,-1.394216 2.054092,-1.394216 0.05656,0 0.05581,0.146352 0,0.325281 -0.05656,0.178855 -0.585273,2.102601 -1.17549,4.27483 l -1.073006,3.94953 2.986782,1.881456 c 1.642734,1.034802 2.961648,1.913587 2.930896,1.952842 -0.02997,0.03976 -1.229504,-0.09527 -2.663899,-0.298959 -2.850624,-0.404802 -3.845382,-0.459716 -3.845382,-0.212436 0,0.267983 1.030005,1.04877 2.110765,1.599939 0.933402,0.476072 3.531001,1.365508 4.949402,1.694802 l 0.582314,0.135184 -0.800653,0.263181 c -0.502529,0.165191 -1.682439,0.275392 -3.168975,0.295795 -2.70941,0.03753 -2.90726,0.1898 -1.444996,1.114215 1.395814,0.88231 3.861114,1.26876 5.669372,0.88867 0.380305,-0.08 0.691427,-0.0873 0.691427,-0.0164 0,0.31899 -2.790318,1.6968 -3.977681,1.96414 -0.306028,0.069 -0.502717,0.18782 -0.436717,0.26415 0.126606,0.14635 2.533622,1.23065 3.031469,1.36561 0.160318,0.0435 0.314268,0.0886 0.342361,0.10045 0.02997,0.0119 0.78155,-0.38868 1.674048,-0.89022 z M 49.770054,86.21326 c 0.003,-0.14907 0.191782,-1.260414 0.419449,-2.469729 l 0.413979,-2.198785 -0.506687,-1.333236 c -0.278683,-0.733233 -0.527738,-1.361416 -0.553396,-1.395821 -0.02622,-0.03462 -0.777729,-0.184476 -1.671201,-0.333472 -1.951346,-0.325356 -2.916849,-0.7591 -4.036041,-1.813146 -1.08428,-1.021228 -1.748026,-1.999562 -2.15178,-3.171826 -0.323632,-0.939392 -0.799679,-3.123847 -0.799679,-3.668888 0,-0.158973 -0.819419,-1.107937 -1.820919,-2.108811 -1.0015,-1.000862 -1.803988,-1.836128 -1.783274,-1.856158 0.01873,-0.02011 1.77773,0.188385 3.904414,0.463093 l 3.866733,0.499474 2.320039,1.680659 c 1.276026,0.924384 2.336633,1.627661 2.356898,1.562843 0.01873,-0.06452 -0.389183,-1.44441 -0.909804,-3.065783 -0.520659,-1.621373 -0.9467,-3.034044 -0.9467,-3.139283 0,-0.105175 0.243848,-0.576366 0.542197,-1.046991 1.035661,-1.634448 4.261646,-6.349072 4.261646,-6.228185 0,0.06675 -0.23336,2.206235 -0.518823,4.754159 -0.285426,2.547928 -0.498296,4.74694 -0.473088,4.886699 0.02622,0.139763 0.947524,1.601071 2.049709,3.247359 l 2.004011,2.993258 -0.249841,2.965365 c -0.137469,1.630956 -0.267821,2.942021 -0.290295,2.913499 -0.02247,-0.02867 -0.207889,-1.292651 -0.412219,-2.809206 -0.204518,-1.516536 -0.423494,-2.875711 -0.48691,-3.020365 -0.122111,-0.278409 -2.356148,-2.470891 -2.518376,-2.471461 -0.05282,-1.82e-4 0.03746,0.43886 0.196277,0.975617 0.705061,2.361892 1.681689,6.769068 2.0905,9.434215 0.06705,0.436235 0.0457,0.426179 -0.343859,-0.163404 l -0.415066,-0.628131 -0.377571,0.81403 c -0.746527,1.609459 -3.165679,5.99754 -3.160285,5.732385 z M 48.734318,75.908988 c 0.65588,-0.295497 1.845791,-1.310269 1.952357,-1.664966 C 50.724133,74.121534 50.2361,73.657 49.57374,73.183516 l -1.178487,-0.842369 -0.567442,0.916744 c -0.312021,0.504203 -0.621644,0.845739 -0.687907,0.758974 -0.241975,-0.316644 -0.836574,-2.034008 -0.924412,-2.669034 -0.08465,-0.611553 -0.173428,-0.701353 -1.420948,-1.437284 l -1.330714,-0.78499 0.08016,1.493825 c 0.09964,1.853947 0.577032,3.197541 1.508524,4.244633 1.094469,1.230272 2.429603,1.609183 3.681843,1.044973 z m 19.92815,8.218753 c -0.683487,-1.251337 -1.486986,-2.769244 -1.785522,-3.373123 l -0.542796,-1.097997 -0.345732,0.540358 c -0.261079,0.407802 -0.347231,0.462493 -0.350977,0.223046 -0.0075,-0.526332 0.949734,-5.090825 1.641049,-7.815667 0.356595,-1.405836 0.619621,-2.556078 0.584298,-2.556078 -0.04944,0 -1.089524,0.974374 -2.500359,2.343198 -0.02997,0.02792 -0.234858,1.372738 -0.459154,2.989535 -0.22437,1.616798 -0.420047,2.897796 -0.435255,2.846694 -0.01498,-0.05175 -0.137844,-1.363601 -0.273065,-2.916616 l -0.245721,-2.823704 2.005996,-3.031899 c 1.753833,-2.650758 2.005435,-3.113698 2.001539,-3.682678 -0.003,-0.357932 -0.223995,-2.574815 -0.492191,-4.926401 -0.268195,-2.351583 -0.476309,-4.293151 -0.462337,-4.314607 0.08728,-0.133992 4.798861,7.118601 4.782155,7.361015 -0.01124,0.164818 -0.451287,1.630077 -0.977602,3.25607 -0.526389,1.625971 -0.938272,2.980325 -0.91531,3.00964 0.02247,0.02941 1.117393,-0.713579 2.432075,-1.650819 l 2.390384,-1.704124 3.756608,-0.47682 c 2.066153,-0.262251 3.756645,-0.419578 3.756645,-0.349667 0,0.06977 -0.756191,0.868095 -1.680416,1.773715 -1.169684,1.14618 -1.702329,1.787856 -1.752522,2.11144 -0.618722,3.987579 -1.350603,5.536613 -3.424847,7.248653 -0.925386,0.763814 -2.053193,1.176102 -3.841673,1.404436 -0.560514,0.072 -1.122188,0.198512 -1.248307,0.282057 -0.126232,0.08351 -0.443946,0.746885 -0.706373,1.473855 l -0.477058,1.321792 0.438215,2.360502 c 0.240851,1.298292 0.423157,2.3805 0.404765,2.404915 -0.01873,0.02495 -0.592689,-0.979421 -1.276213,-2.230751 z m 5.052822,-8.462202 c 0.721019,-0.474944 1.546019,-1.569176 1.938161,-2.570761 0.390007,-0.996116 0.697046,-3.105768 0.520171,-3.574118 -0.125857,-0.33377 -0.20227,-0.310725 -1.364162,0.412378 -1.193058,0.742383 -1.235797,0.791445 -1.396302,1.60237 -0.18017,0.910501 -0.705998,2.325276 -0.929881,2.501974 -0.07716,0.06076 -0.35622,-0.264893 -0.620782,-0.723705 -0.26445,-0.458893 -0.53287,-0.837548 -0.596735,-0.841532 -0.187662,-0.01191 -2.285878,1.500795 -2.285878,1.647833 0,0.294529 0.844628,1.136649 1.601268,1.596425 0.662735,0.402698 0.951869,0.473067 1.678356,0.408249 0.486835,-0.04352 1.135073,-0.24788 1.455709,-0.459039 z m -17.277473,5.94949 c 0.363337,-0.651836 3.18673,-4.130983 3.35218,-4.130983 0.311271,0 3.634533,4.092446 3.652513,4.497977 0.003,0.07126 -0.534705,-0.248177 -1.19523,-0.709755 -0.660525,-0.461514 -1.482154,-1.006264 -1.825788,-1.210488 l -0.624828,-0.371335 -1.827661,1.228154 c -1.662886,1.11742 -1.800917,1.180205 -1.531148,0.696475 z M 36.922599,94.690328 c 1.140879,-0.376893 3.328206,-0.796144 4.937491,-0.946361 l 1.339291,-0.124982 0.165562,-1.018167 c 0.09102,-0.560015 0.143462,-1.041816 0.116492,-1.070715 -0.02622,-0.02867 -1.654008,-1.666503 -3.61558,-3.639129 -1.961609,-1.972604 -3.605317,-3.661684 -3.652702,-3.753483 -0.0472,-0.09181 -0.304154,-1.375418 -0.570702,-2.85249 -0.266322,-1.477061 -0.5389,-2.685561 -0.605274,-2.685561 -0.0663,0 -0.120988,0.07561 -0.120988,0.167872 0,0.09237 -1.345734,3.030295 -2.99049,6.528683 -1.644794,3.498402 -2.971312,6.431727 -2.947827,6.518518 0.07417,0.273606 1.493728,2.564093 1.596287,2.575303 0.05356,0.006 0.696446,-1.474164 1.428028,-3.288974 0.731544,-1.814807 1.384015,-3.369251 1.449828,-3.454322 0.06555,-0.085 0.28168,0.458666 0.479905,1.208321 1.177175,4.454082 1.760163,6.305487 1.955391,6.209805 0.111623,-0.05477 0.577333,-0.223084 1.035175,-0.374418 z m 48.120685,-3.282694 c 0.532645,-1.901709 0.9685,-3.553846 0.9685,-3.67143 0,-0.612003 0.355097,0.07908 1.537366,2.992915 0.715662,1.763686 1.322435,3.31128 1.348318,3.439065 0.08578,0.42303 0.263326,0.245162 1.095518,-1.098142 L 90.81735,91.739528 90.543536,91.164584 C 89.473601,88.919212 84.854087,79.139704 84.729953,78.857272 84.53817,78.421036 84.562518,78.333117 83.975335,81.599966 l -0.455633,2.535839 -3.706714,3.763594 c -2.654347,2.695047 -3.687311,3.848733 -3.638242,4.063458 0.03746,0.164968 0.110874,0.606378 0.16294,0.980952 l 0.09439,0.681096 1.405478,0.12312 c 1.724242,0.151006 3.690608,0.534508 5.044769,0.983759 0.560476,0.185891 1.058098,0.292035 1.105894,0.23578 0.04795,-0.05625 0.522719,-1.65822 1.055401,-3.559941 z M 33.22772,57.918516 c 0.125482,-0.434508 0.512305,-1.7799 0.859985,-2.989721 l 0.632132,-2.199672 -1.65075,-6.240352 c -0.907931,-3.4322 -1.630036,-6.266831 -1.604714,-6.299176 0.02622,-0.03239 0.46848,0.10525 0.984756,0.305698 0.516314,0.200448 0.988053,0.365192 1.048397,0.365862 0.06031,7.34e-4 -0.747576,-2.194489 -1.795411,-4.878337 l -1.905198,-4.87977 0.731432,0.929478 c 1.091172,1.386773 9.325258,12.440543 9.292707,12.474974 -0.01498,0.01638 -1.108928,-0.171483 -2.429977,-0.41733 -1.321088,-0.245831 -2.488674,-0.424381 -2.594716,-0.396622 -0.106005,0.02792 1.221899,1.629828 2.950936,3.560217 1.729074,1.930407 3.173021,3.570279 3.208793,3.644181 0.03746,0.07353 -0.899129,0.09602 -2.07754,0.04952 l -2.142566,-0.08492 1.382929,1.82604 c 0.760648,1.004321 1.391656,1.853753 1.402332,1.887629 0.03895,0.12245 4.420503,-4.431022 4.420503,-4.593577 0,-0.09181 -0.447542,-1.281982 -0.994458,-2.644894 -2.51272,-6.261228 -5.731813,-11.726519 -10.382045,-17.62615 -1.532759,-1.94457 -4.909922,-5.765156 -5.096048,-5.765156 -0.03371,0 0.370079,4.454533 0.897667,9.898953 l 0.959473,9.898949 1.426867,2.851489 1.426904,2.851485 -0.359966,0.494597 c -0.197776,0.272079 -0.467994,0.712603 -0.600069,0.979072 -0.232985,0.470066 -0.6709,2.933719 -0.6709,3.775162 0,0.38342 2.124062,4.002177 2.353489,4.009619 0.05356,0.0015 0.199648,-0.352347 0.32513,-0.786918 z m 54.705219,-0.929481 c 0.593738,-0.945732 1.118479,-1.80318 1.166088,-1.905425 0.11874,-0.255289 -0.248343,-2.855506 -0.520846,-3.688777 C 88.455695,51.021015 88.184129,50.42778 87.974255,50.076459 87.524653,49.323744 87.43217,49.632573 89.1666,46.097305 l 1.21673,-2.479952 0.872796,-9.32443 c 0.480055,-5.128424 0.910029,-9.554465 0.95554,-9.835635 0.0457,-0.281089 0.03746,-0.511255 -0.01873,-0.511255 -0.198899,0 -3.079264,3.263439 -4.993527,5.657315 -4.636184,5.797799 -7.816583,11.177646 -10.459206,17.692308 -0.584973,1.442221 -1.063642,2.671968 -1.063642,2.732761 0,0.06076 0.7369,0.83989 1.63764,1.731314 0.900739,0.891425 1.901939,1.894644 2.22486,2.229371 l 0.587183,0.608626 1.367759,-1.869915 1.367721,-1.869934 -2.136873,0.07051 c -1.175265,0.03902 -2.136872,0.06076 -2.136872,0.04952 0,-0.01191 1.453574,-1.643834 3.230143,-3.627153 1.776569,-1.9833 3.135825,-3.628869 3.020569,-3.656803 -0.115369,-0.02792 -1.275839,0.146204 -2.579171,0.387169 -1.303294,0.240881 -2.351391,0.373294 -2.329141,0.294232 0.09889,-0.351157 9.869813,-13.290654 9.859924,-13.057443 -0.003,0.08634 -0.841556,2.269214 -1.86201,4.850842 -1.020416,2.581628 -1.81987,4.693239 -1.776569,4.692453 0.04345,-7.52e-4 0.501181,-0.165414 1.017419,-0.365862 0.516239,-0.200448 0.967226,-0.327999 1.002099,-0.283509 0.03371,0.04427 -0.67532,2.876437 -1.578232,6.293063 l -1.641722,6.212028 0.849872,2.995845 c 0.467394,1.64771 0.895457,2.99585 0.951194,2.99585 0.05581,0 0.587221,-0.773788 1.180921,-1.719542 z"
       id="path1" />
  </g>
</svg>
