<?xml version="1.0" encoding="UTF-8" standalone="no"?>
<!-- Created with Inkscape (http://www.inkscape.org/) -->

<svg
   width="48"
   height="48"
   viewBox="0 0 48 48"
   version="1.1"
   id="svg1"
   xml:space="preserve"
   xmlns="http://www.w3.org/2000/svg"
   xmlns:svg="http://www.w3.org/2000/svg"><defs
     id="defs1" /><g
     id="layer1"><path
       style="fill:#b3b3b3;stroke-width:0.0661776"
       d="m 15.42613,45.878492 c -2.027596,-3.29728 -1.847845,-2.973793 -1.72041,-3.096104 0.148818,-0.142833 1.490886,-1.032173 1.508055,-0.999324 0.0074,0.01427 0.128831,0.379473 0.26973,0.811588 0.140897,0.43212 0.345925,1.038204 0.455626,1.346853 l 0.199447,0.561193 0.253964,-0.926539 c 0.284463,-1.037837 0.512207,-1.511605 1.030341,-2.14342 l 0.352134,-0.429391 -0.126969,-0.382842 c -0.06983,-0.210565 -0.145491,-0.408325 -0.168131,-0.439474 -0.05744,-0.07899 -1.032259,0.34389 -1.725614,0.748548 -1.228246,0.716839 -2.312776,1.628979 -3.488776,2.934221 -0.425978,0.472785 -0.432985,0.477272 -0.236734,0.151518 0.111236,-0.184632 0.433036,-0.639726 0.715107,-1.011318 l 0.512857,-0.675617 -0.670236,-1.082777 c -0.368629,-0.595521 -0.670669,-1.105114 -0.671203,-1.132428 -0.0019,-0.0924 2.210517,-0.952299 2.468269,-0.95938 0.02215,-5.92e-4 0.151667,0.366784 0.287834,0.816425 l 0.247567,0.817525 0.531589,-0.345056 c 0.292371,-0.189777 0.821312,-0.486774 1.175416,-0.659992 0.409017,-0.200079 0.640056,-0.35193 0.633496,-0.416353 -0.0057,-0.05577 -0.0419,-0.315191 -0.08043,-0.57648 l -0.0701,-0.475064 -0.592656,0.04873 c -1.98261,0.162979 -3.350243,0.64574 -5.25528,1.855048 -0.472008,0.299626 -0.848325,0.524373 -0.836272,0.499434 0.01208,-0.02493 0.273134,-0.272988 0.580173,-0.551223 0.307036,-0.27824 0.558252,-0.518658 0.558252,-0.534271 0,-0.01563 -0.41483,-0.708885 -0.921842,-1.540615 -0.507016,-0.831732 -0.9177122,-1.530972 -0.9126546,-1.553867 0.00505,-0.02291 0.3019956,-1.758868 0.6598736,-3.857717 0.357866,-2.098848 0.760341,-4.443001 0.894387,-5.209229 l 0.243722,-1.393147 0.425155,-0.440073 c 0.233839,-0.24204 0.426417,-0.462541 0.427971,-0.490007 0.0026,-0.04801 -0.164942,-0.335429 -1.09988,-1.885573 L 10.850314,22.550028 11.039751,21.090947 11.22919,19.631871 10.81738,18.785819 10.40557,17.93976 10.193755,15.545353 C 10.077256,14.228426 9.9119924,12.398889 9.826493,11.47971 L 9.6710379,9.8084695 9.3440811,9.4441769 C 8.4433649,8.440621 6.6959479,6.992759 5.048801,5.8852344 4.5273031,5.5345835 4.1533008,5.2650588 4.2176827,5.2862965 4.2820634,5.3075518 4.6639735,5.4297269 5.0663655,5.5578402 5.9305564,5.8329896 7.532571,6.5050783 8.0784033,6.8214775 8.2906906,6.9445345 8.4491711,7.01376 8.4305881,6.9753106 8.3694406,6.848861 7.2156664,5.6676524 6.5366115,5.0363222 5.0277771,3.6335411 3.4308955,2.4123498 1.3789845,1.0921104 0.59029862,0.58464753 -0.03566137,0.16930089 -0.01202654,0.16911126 0.10037397,0.16795637 1.5380071,0.57560711 2.110607,0.77061265 4.6853937,1.6474944 7.0511018,3.0303701 9.0630833,4.834679 9.4102797,5.1460398 9.6754606,5.3599923 9.6523729,5.3101276 9.3581975,4.6746172 7.9741249,2.6182854 7.2116902,1.6839842 6.9346247,1.3444644 6.7230738,1.0666747 6.7415628,1.0666747 c 0.064814,0 1.1097886,0.8481541 1.6024679,1.3006358 1.8953113,1.7406786 3.4518543,3.8762184 4.5883473,6.2950899 0.333489,0.7097736 0.434414,0.8590898 0.92198,1.3639826 2.042278,2.114864 4.026825,4.725816 5.49248,7.226139 0.368213,0.628146 0.449624,0.728312 0.562533,0.69209 0.361174,-0.115893 3.714608,-0.790226 3.93043,-0.790363 0.218302,-1.47e-4 3.599391,0.67476 3.959929,0.79044 0.12027,0.03861 0.207242,-0.07292 0.714203,-0.915811 1.527309,-2.539335 3.400124,-4.984595 5.365277,-7.005224 0.444157,-0.4566927 0.600324,-0.6731013 0.804037,-1.1141566 1.387877,-3.0048549 3.258917,-5.4325306 5.696549,-7.3912702 0.316799,-0.2545631 0.587919,-0.4476099 0.602488,-0.4289891 0.01459,0.018654 -0.13928,0.2201044 -0.341885,0.4477339 -0.594826,0.6682993 -1.985731,2.6896572 -2.504618,3.6398912 -0.160344,0.293634 -0.146668,0.2849068 0.528827,-0.3375186 1.774808,-1.635378 4.217007,-3.0965372 6.626607,-3.9646568 0.64553,-0.23257334 2.381196,-0.7199341 2.453767,-0.68900993 0.02995,0.0127924 -0.177435,0.15518333 -0.460853,0.31649444 C 46.658477,0.85827612 44.899787,2.0287028 44.051947,2.6532298 42.64539,3.6893147 40.497526,5.6126605 39.534648,6.6983259 l -0.316156,0.3564709 0.497505,-0.268228 c 0.7407,-0.3993551 1.904955,-0.8876043 2.926494,-1.2272781 0.498964,-0.1659172 0.932113,-0.3018282 0.962555,-0.3020355 0.03045,-2.25e-4 -0.298787,0.2306194 -0.731622,0.5129388 -1.000326,0.6524732 -1.780281,1.2266622 -2.630656,1.9366497 -0.758611,0.6333609 -1.897348,1.7132187 -2.084919,1.9771001 -0.110155,0.1549641 -0.148429,0.4534832 -0.338993,2.6439192 -0.118151,1.358083 -0.280991,3.189046 -0.361873,4.068817 l -0.147064,1.599581 -0.407073,0.816644 -0.407079,0.816638 0.176133,1.336522 c 0.09687,0.735085 0.176133,1.404439 0.176133,1.487447 0,0.08301 -0.271106,0.599749 -0.602462,1.148308 -0.331356,0.548558 -0.665366,1.112173 -0.742241,1.252471 l -0.139778,0.255089 0.42185,0.493164 0.421851,0.493157 0.315295,1.83322 c 0.173416,1.008269 0.569795,3.327051 0.880848,5.152846 0.311048,1.825795 0.577387,3.359082 0.591863,3.407307 0.01447,0.0482 -0.397417,0.772889 -0.915323,1.610374 -0.517906,0.83748 -0.92023,1.546536 -0.894053,1.575673 0.02617,0.02913 0.250548,0.229737 0.498618,0.445773 0.681955,0.593913 0.66719,0.662812 -0.04404,0.205498 -1.924803,-1.237597 -3.213725,-1.729666 -5.030826,-1.920598 -1.101742,-0.115769 -0.989506,-0.167036 -1.076056,0.491518 -0.04101,0.31223 -0.06593,0.576006 -0.0553,0.586178 0.01062,0.01023 0.269521,0.132205 0.575335,0.271194 0.305821,0.138985 0.827993,0.426923 1.160374,0.639863 0.512849,0.328542 0.609439,0.368632 0.637963,0.264788 0.07674,-0.279306 0.44224,-1.47122 0.458476,-1.495121 0.03787,-0.05571 0.91385,0.237753 1.682589,0.563691 0.568441,0.24101 0.799374,0.371563 0.778754,0.440256 -0.01611,0.05371 -0.310766,0.557284 -0.654754,1.11907 l -0.625449,1.021425 0.320623,0.423595 c 0.365898,0.483418 1.040871,1.491474 1.040871,1.554529 0,0.02315 -0.174599,-0.162412 -0.387993,-0.412392 -1.271019,-1.488904 -3.036875,-2.841619 -4.560184,-3.493264 -0.342735,-0.146616 -0.631004,-0.255712 -0.640605,-0.242432 -0.0096,0.01327 -0.08573,0.206155 -0.169199,0.42861 l -0.151739,0.404459 0.424317,0.533727 c 0.47862,0.602028 0.757145,1.208568 1.027798,2.238228 0.09478,0.360569 0.183023,0.669253 0.196101,0.685969 0.01308,0.01669 0.231595,-0.574522 0.48561,-1.313858 0.254008,-0.739331 0.474839,-1.344243 0.49073,-1.344243 0.07786,0 1.529272,1.065807 1.529272,1.122983 0,0.0363 -0.307405,0.564521 -0.683125,1.173791 -0.375719,0.609276 -1.051264,1.706042 -1.501216,2.437262 -0.449952,0.731219 -0.828086,1.316716 -0.840297,1.301103 -0.0122,-0.01563 -0.153537,-0.664386 -0.314068,-1.441728 -0.501343,-2.427718 -0.73992,-3.201235 -1.140444,-3.697511 l -0.198056,-0.245411 -0.395134,0.225783 -0.395133,0.225775 -0.587836,1.404013 c -0.323304,0.772209 -0.640504,1.447039 -0.704891,1.499627 -0.06438,0.05258 -0.870287,0.419445 -1.79092,0.815241 l -1.673856,0.719633 -1.746286,-0.748822 c -0.960453,-0.411854 -1.771686,-0.781303 -1.802738,-0.820995 -0.03108,-0.03967 -0.311615,-0.688401 -0.623475,-1.441563 l -0.567026,-1.369394 -0.385709,-0.25538 c -0.373982,-0.247618 -0.390321,-0.251532 -0.536867,-0.128776 -0.410716,0.344032 -0.770519,1.475926 -1.269724,3.994308 -0.140695,0.70981 -0.26898,1.290031 -0.285078,1.289374 -0.01611,-5.91e-4 -0.569203,-0.879232 -1.229128,-1.952399 z m 9.822649,-0.74254 c 0.694077,-0.289589 1.298623,-0.565437 1.343446,-0.612999 0.09007,-0.09557 0.501342,-1.104582 0.467742,-1.14755 -0.01163,-0.01486 -0.158758,0.01943 -0.326996,0.07617 -0.302952,0.102169 -0.310765,0.10045 -0.816694,-0.179937 -0.280952,-0.155704 -0.857175,-0.441889 -1.280511,-0.635972 l -0.769701,-0.352883 -0.605752,0.276287 c -0.333161,0.151955 -0.895476,0.427288 -1.249579,0.611845 -0.655892,0.34184 -0.791097,0.363262 -1.253202,0.198534 -0.134929,-0.04808 -0.129681,-0.02274 0.119338,0.577647 l 0.26047,0.627961 1.285379,0.537853 c 0.706956,0.29582 1.348089,0.540494 1.424744,0.543715 0.07665,0.003 0.707245,-0.231075 1.401316,-0.520671 z m -3.422262,-3.132778 c 0.358846,-0.201851 0.836127,-0.465454 1.060611,-0.585788 0.447135,-0.239678 0.48281,-0.30702 0.493222,-0.930884 0.0057,-0.341889 -0.0032,-0.360237 -0.403878,-0.815264 -0.225335,-0.256026 -0.409709,-0.497831 -0.409709,-0.537339 0,-0.0395 0.06585,-0.17188 0.146327,-0.294148 0.231859,-0.352268 0.163224,-0.749066 -0.179537,-1.037921 -0.163029,-0.137397 -0.492868,-0.196403 -0.567133,-0.101462 -0.019,0.02428 0.0026,0.179583 0.0485,0.345073 l 0.08304,0.300905 -0.160671,-0.132039 c -0.589704,-0.484608 -0.818423,-0.898456 -0.979641,-1.772597 -0.130499,-0.707631 -0.111984,-0.897888 0.189779,-1.949836 l 0.278014,-0.969163 0.03977,0.702813 c 0.03907,0.690378 0.206682,2.087119 0.258382,2.153206 0.01447,0.01853 0.144974,-0.04002 0.289991,-0.130108 0.145014,-0.09007 0.325235,-0.163761 0.400488,-0.163761 0.07525,0 0.417301,0.134685 0.760113,0.2993 0.342805,0.164615 0.660585,0.2993 0.706169,0.2993 0.0456,0 0.35321,-0.134685 0.683622,-0.2993 0.682634,-0.340101 0.798658,-0.354801 1.157485,-0.146682 0.141609,0.08214 0.271511,0.131382 0.288685,0.109428 0.06647,-0.08496 0.238735,-1.676315 0.243037,-2.244913 0.0057,-0.710953 0.01874,-0.691362 0.376417,0.552039 0.252619,0.878143 0.259601,0.925077 0.203651,1.369163 -0.06537,0.519013 -0.237836,1.190267 -0.37411,1.45615 -0.0943,0.183976 -0.726141,0.850138 -0.806433,0.85022 -0.02498,3.1e-5 -0.0032,-0.104003 0.04813,-0.23118 0.125906,-0.311261 0.07498,-0.442198 -0.172,-0.442198 -0.227442,0 -0.539069,0.286067 -0.624481,0.573258 -0.06109,0.205393 0.01561,0.512419 0.186179,0.745223 l 0.116256,0.158688 -0.448724,0.523413 -0.448731,0.523418 0.04196,0.462321 c 0.03227,0.355679 0.07096,0.485728 0.167609,0.563776 0.0691,0.05577 0.570234,0.344528 1.113626,0.641621 l 0.987976,0.540174 0.573814,-0.240259 c 0.836272,-0.350148 0.870016,-0.402256 0.356551,-0.550494 -0.464874,-0.134211 -1.254498,-0.531009 -1.350264,-0.678525 -0.04933,-0.07601 0.01082,-0.08135 0.303254,-0.02682 0.511867,0.0954 1.348339,0.02037 1.803897,-0.161868 0.380494,-0.15218 0.75805,-0.421569 0.795027,-0.567255 0.01208,-0.04754 -0.317036,-0.07741 -0.902696,-0.08192 -0.586623,-0.0047 -1.060001,-0.04754 -1.30214,-0.118332 l -0.380443,-0.111244 0.438974,-0.09685 c 1.054346,-0.232627 2.336719,-0.82202 2.601108,-1.195496 0.108852,-0.153762 0.108205,-0.15455 -0.127529,-0.15455 -0.204468,0 -0.595159,0.04684 -2.21019,0.265055 -0.269705,0.03641 -0.197145,-0.0225 0.925168,-0.751255 1.124011,-0.729876 1.214696,-0.803566 1.177271,-0.956664 -0.02234,-0.09123 -0.230449,-0.864562 -0.462541,-1.718499 -0.232097,-0.853945 -0.408457,-1.552624 -0.391917,-1.552624 0.03574,0 1.347685,0.913614 1.542942,1.074481 0.130211,0.107284 0.17945,0.07203 1.247629,-0.893406 1.052944,-0.951661 1.117406,-1.023966 1.212488,-1.360046 0.05523,-0.195219 0.355682,-1.491663 0.667674,-2.88098 0.311998,-1.389317 0.573059,-2.517304 0.58013,-2.506641 0.0071,0.01065 0.582369,1.462486 1.278436,3.226279 0.696065,1.763788 1.26557,3.170867 1.26557,3.126846 0,-0.04399 -0.05083,-0.359129 -0.113029,-0.700242 -0.06215,-0.341119 -0.299341,-1.714526 -0.527067,-3.052025 -0.227712,-1.337505 -0.426292,-2.501087 -0.441283,-2.585742 -0.02856,-0.161382 -0.192049,-0.332316 -3.074235,-3.214468 -0.981838,-0.981827 -2.259253,-2.260023 -2.838698,-2.840429 -1.552185,-1.554766 -1.515112,-1.520883 -1.473246,-1.34661 0.05071,0.211063 0.390918,2.603889 0.373411,2.626276 -0.008,0.01023 -0.381621,-0.690196 -0.830214,-1.556556 -0.448587,-0.866367 -0.869468,-1.602861 -0.935291,-1.636657 -0.06583,-0.0338 -0.554261,-0.148581 -1.085423,-0.255078 -0.531154,-0.10649 -1.014429,-0.207368 -1.073936,-0.224172 -0.09388,-0.02647 -0.103275,0.003 -0.07104,0.222668 0.02044,0.139262 0.244459,0.977269 0.497827,1.862232 l 0.460684,1.609025 -0.286992,1.368878 c -0.157839,0.752883 -0.441271,2.108209 -0.629848,3.011836 -0.325768,1.561066 -0.34605,1.630054 -0.406916,1.38426 -0.123333,-0.498029 -1.182145,-5.667626 -1.181497,-5.768605 5.84e-4,-0.05607 0.1086,-0.472351 0.24054,-0.925046 0.320452,-1.099532 0.760188,-2.747912 0.739951,-2.773779 -0.01585,-0.02025 -1.999005,0.379615 -2.247369,0.453134 -0.08457,0.02505 -0.392416,0.556616 -0.953479,1.646466 -0.455714,0.885225 -0.836692,1.609492 -0.846614,1.609492 -0.0099,0 0.06966,-0.597664 0.17687,-1.328143 0.107198,-0.73048 0.188816,-1.351579 0.181362,-1.380217 -0.0074,-0.02866 -0.807844,0.745797 -1.778646,1.720975 -0.970809,0.975177 -2.619598,2.63049 -3.663972,3.67847 l -1.898872,1.905412 -0.218477,1.274655 c -0.120169,0.70106 -0.374259,2.181065 -0.564654,3.288898 -0.190403,1.107833 -0.33966,2.021411 -0.331695,2.030174 0.008,0.0088 0.580677,-1.427969 1.272702,-3.192738 0.692028,-1.764765 1.271472,-3.208648 1.287659,-3.208624 0.01617,3e-5 0.305367,1.23745 0.642623,2.749825 0.494876,2.219211 0.641694,2.786308 0.760888,2.939092 0.193503,0.248037 2.079081,1.943209 2.16148,1.943209 0.03497,0 0.416792,-0.252537 0.848476,-0.561191 0.43169,-0.308656 0.803331,-0.561188 0.82589,-0.561188 0.02258,0 0.02246,0.05891 0,0.130943 -0.02264,0.07201 -0.235336,0.84632 -0.472631,1.720667 l -0.431431,1.589718 1.2009,0.757311 c 0.660503,0.416519 1.190796,0.770238 1.178435,0.78604 -0.0124,0.0158 -0.494348,-0.03837 -1.071086,-0.120322 -1.146144,-0.162921 -1.546114,-0.185035 -1.546114,-0.08549 0,0.107881 0.414144,0.422143 0.848683,0.643994 0.375297,0.191608 1.41971,0.549636 1.990008,0.682178 l 0.234122,0.05441 -0.321911,0.105934 c -0.202053,0.0665 -0.67647,0.110819 -1.274153,0.119049 -1.089373,0.01504 -1.168928,0.07642 -0.580991,0.448485 0.561213,0.355145 1.552443,0.51069 2.279484,0.357703 0.152907,-0.03215 0.278015,-0.03517 0.278015,-0.0066 0,0.128391 -1.121898,0.682982 -1.59931,0.790586 -0.12312,0.02777 -0.20214,0.0756 -0.175587,0.106325 0.0509,0.0589 1.018697,0.495354 1.218861,0.549676 0.06439,0.01747 0.126353,0.03565 0.137703,0.04044 0.01132,0.0047 0.314237,-0.156475 0.67309,-0.358325 z M 19.81807,34.66001 c 0.0012,-0.05999 0.07711,-0.507332 0.16866,-0.994095 l 0.166457,-0.885035 -0.203725,-0.536645 c -0.112053,-0.295155 -0.21218,-0.547984 -0.222504,-0.561833 -0.01036,-0.01385 -0.312708,-0.07425 -0.671945,-0.134217 -0.784579,-0.130968 -1.172766,-0.305552 -1.622763,-0.729821 -0.435968,-0.411056 -0.702828,-0.804845 -0.865172,-1.276693 -0.13009,-0.378118 -0.32153,-1.257386 -0.32153,-1.476773 0,-0.06398 -0.329462,-0.445958 -0.732137,-0.848818 -0.402669,-0.40286 -0.725318,-0.739064 -0.716988,-0.747128 0.0083,-0.0081 0.714762,0.07582 1.569837,0.186397 l 1.554694,0.201058 0.932825,0.676487 c 0.51305,0.372072 0.939485,0.655149 0.947639,0.629062 0.0081,-0.02611 -0.156462,-0.581394 -0.36581,-1.234015 -0.20935,-0.652622 -0.380627,-1.22124 -0.380627,-1.263597 0,-0.04234 0.0981,-0.231998 0.217999,-0.421427 0.416408,-0.657885 1.713485,-2.555576 1.713485,-2.506919 0,0.02695 -0.09389,0.888036 -0.20862,1.913606 -0.114735,1.02557 -0.200334,1.910698 -0.190225,1.966951 0.0101,0.05625 0.380978,0.644452 0.824136,1.307102 l 0.805748,1.204821 -0.100409,1.193595 c -0.05523,0.656476 -0.107758,1.184198 -0.116742,1.172718 -0.009,-0.01149 -0.08356,-0.520309 -0.16574,-1.13074 -0.08218,-0.610424 -0.170283,-1.157507 -0.195773,-1.215733 -0.04907,-0.11205 -0.947331,-0.994561 -1.012562,-0.994792 -0.02107,-7.2e-5 0.01441,0.176639 0.07886,0.392699 0.283507,0.95069 0.676154,2.724631 0.840524,3.797378 0.02693,0.175585 0.01843,0.171553 -0.138237,-0.06576 l -0.166886,-0.252827 -0.151811,0.327648 c -0.300141,0.647826 -1.272825,2.414075 -1.270667,2.307348 z m -0.416427,-4.147591 c 0.263689,-0.118936 0.742127,-0.527397 0.784982,-0.67017 0.01478,-0.04932 -0.181161,-0.236285 -0.447481,-0.426863 l -0.473832,-0.339063 -0.228153,0.368999 c -0.125485,0.202946 -0.249952,0.34042 -0.2766,0.305494 -0.09722,-0.127451 -0.336369,-0.818711 -0.371679,-1.074315 -0.03404,-0.246144 -0.06972,-0.282315 -0.571317,-0.578524 l -0.535056,-0.315967 0.0322,0.601282 c 0.04001,0.746235 0.232004,1.287048 0.606541,1.708511 0.440055,0.495201 0.976861,0.647719 1.480361,0.420616 z m 8.012503,3.308146 C 27.139339,33.316887 26.816282,32.705912 26.696245,32.462841 L 26.478,32.020885 26.338914,32.238361 c -0.104966,0.164118 -0.139608,0.186143 -0.141199,0.08976 -0.0038,-0.211822 0.381859,-2.049097 0.659816,-3.145876 0.143409,-0.565864 0.249127,-1.02885 0.234929,-1.02885 -0.02,0 -0.438063,0.392198 -1.005321,0.943165 -0.01139,0.01107 -0.09444,0.552543 -0.184607,1.203323 -0.09017,0.650779 -0.168905,1.1664 -0.174994,1.145827 -0.0064,-0.02061 -0.05548,-0.548868 -0.10981,-1.173975 l -0.09873,-1.136554 0.806547,-1.220374 c 0.705162,-1.066964 0.80632,-1.253302 0.804765,-1.482323 -0.0012,-0.14407 -0.09003,-1.036393 -0.197893,-1.982932 -0.107851,-0.94654 -0.191514,-1.728044 -0.185902,-1.736682 0.03504,-0.05394 1.92947,2.86532 1.922763,2.962894 -0.0044,0.06635 -0.181436,0.656126 -0.393069,1.310607 -0.211639,0.654474 -0.377247,1.199616 -0.368018,1.211417 0.0093,0.01178 0.449272,-0.287216 0.977873,-0.664475 l 0.96109,-0.685932 1.510431,-0.191928 c 0.830735,-0.105553 1.510433,-0.168894 1.510433,-0.140748 0,0.02813 -0.304041,0.34942 -0.675646,0.713943 -0.470303,0.461351 -0.684453,0.719633 -0.70464,0.849877 -0.248756,1.605046 -0.543032,2.22855 -1.377033,2.917666 -0.37207,0.307435 -0.825526,0.473395 -1.544623,0.565302 -0.225341,0.02884 -0.451197,0.0799 -0.501896,0.113566 -0.05071,0.03363 -0.178505,0.300621 -0.28401,0.593243 l -0.19183,0.532038 0.176197,0.950133 c 0.09692,0.522573 0.170138,0.958175 0.162733,0.968003 -0.0074,0.0098 -0.238312,-0.394228 -0.513119,-0.897901 z m 2.031591,-3.406135 c 0.289924,-0.191186 0.621606,-0.631614 0.779275,-1.034764 0.156814,-0.400947 0.280268,-1.250108 0.209155,-1.438625 -0.05071,-0.134337 -0.0813,-0.12507 -0.548493,0.165982 -0.479677,0.298815 -0.496869,0.318567 -0.561397,0.644972 -0.07245,0.366489 -0.283876,0.935953 -0.373887,1.007074 -0.03094,0.02445 -0.143295,-0.10661 -0.249587,-0.291308 -0.106291,-0.184692 -0.214256,-0.337122 -0.239917,-0.338726 -0.07547,-0.0047 -0.919085,0.604089 -0.919085,0.663272 0,0.118564 0.339598,0.457515 0.643826,0.64258 0.266453,0.162092 0.382715,0.1904 0.674815,0.164313 0.195755,-0.01747 0.456381,-0.09976 0.585295,-0.18477 z m -6.946752,2.394739 c 0.146119,-0.262342 1.281285,-1.662772 1.347817,-1.662772 0.125183,0 1.461331,1.64726 1.46856,1.81049 0.0012,0.02866 -0.214986,-0.0999 -0.480571,-0.285682 -0.265577,-0.185782 -0.595925,-0.40504 -0.734093,-0.487244 l -0.251228,-0.149463 -0.73485,0.494347 c -0.668592,0.449777 -0.724098,0.475046 -0.615635,0.280324 z m -7.846493,5.262961 c 0.458721,-0.151725 1.338174,-0.320473 1.985226,-0.380924 l 0.538492,-0.05032 0.06656,-0.409823 c 0.03661,-0.225403 0.0577,-0.419345 0.04681,-0.430978 -0.01088,-0.01161 -0.665039,-0.670787 -1.453726,-1.464789 -0.788685,-0.793997 -1.449573,-1.473872 -1.468629,-1.510823 -0.01906,-0.03695 -0.122313,-0.553621 -0.229454,-1.148159 -0.10714,-0.594533 -0.21666,-1.08097 -0.243365,-1.08097 -0.02673,0 -0.04857,0.03044 -0.04857,0.0676 0,0.03719 -0.541077,1.21973 -1.202391,2.627875 -0.661321,1.408146 -1.194672,2.588845 -1.185229,2.623777 0.02975,0.11015 0.600589,1.032077 0.641813,1.036589 0.02164,0.0024 0.280021,-0.593367 0.574172,-1.323846 0.294151,-0.730485 0.556477,-1.356167 0.582936,-1.390407 0.02648,-0.03421 0.1133,0.184622 0.192955,0.48636 0.473305,1.792823 0.707704,2.538033 0.786203,2.499519 0.04486,-0.02202 0.232141,-0.08981 0.416207,-0.15069 z M 34.00039,36.750807 c 0.214169,-0.76546 0.389397,-1.430467 0.389397,-1.477797 0,-0.246322 0.142721,0.03185 0.618133,1.204685 0.28776,0.709903 0.531715,1.332827 0.54212,1.384266 0.03448,0.170299 0.105838,0.09867 0.440472,-0.442015 l 0.331456,-0.53555 -0.110148,-0.231412 c -0.430186,-0.903786 -2.287556,-4.840153 -2.337468,-4.953832 -0.07709,-0.175591 -0.06737,-0.210951 -0.303424,1.103967 l -0.183229,1.020702 -1.49037,1.514891 c -1.06723,1.084789 -1.482558,1.54916 -1.462829,1.635591 0.01516,0.06638 0.0446,0.244066 0.0655,0.394844 l 0.03793,0.274149 0.565102,0.04955 c 0.693272,0.06079 1.48389,0.215142 2.028345,0.395975 0.225341,0.07484 0.425437,0.117551 0.444654,0.0949 0.01925,-0.02262 0.210181,-0.667452 0.424342,-1.432918 z M 13.166891,23.271045 c 0.05039,-0.1749 0.206002,-0.71643 0.345781,-1.203399 l 0.254159,-0.885391 -0.663724,-2.511815 c -0.365044,-1.381502 -0.655382,-2.522473 -0.645197,-2.535493 0.0101,-0.01303 0.188356,0.04234 0.395938,0.123034 0.207575,0.08069 0.397265,0.146971 0.421529,0.147284 0.02428,2.96e-4 -0.300587,-0.883306 -0.721889,-1.963588 l -0.766015,-1.964164 0.294064,0.374126 c 0.43874,0.558192 3.749409,5.007462 3.73633,5.021322 -0.0064,0.0065 -0.445876,-0.06902 -0.977031,-0.167983 -0.531161,-0.09896 -1.000621,-0.170808 -1.043256,-0.159647 -0.04265,0.01113 0.491296,0.656026 1.186494,1.43303 0.695203,0.777011 1.275774,1.43708 1.290156,1.466826 0.01441,0.02972 -0.361515,0.03866 -0.835322,0.01984 l -0.861454,-0.03421 0.55603,0.735002 c 0.305821,0.40425 0.559546,0.746157 0.563836,0.759792 0.01554,0.04927 1.777356,-1.783538 1.777356,-1.848968 0,-0.03695 -0.179933,-0.516011 -0.399844,-1.0646 -1.010286,-2.520223 -2.304599,-4.720068 -4.174311,-7.094741 -0.616272,-0.782707 -1.974136,-2.3205385 -2.048974,-2.3205385 -0.01365,0 0.148756,1.7929995 0.360936,3.9844435 l 0.385772,3.984443 0.573701,1.147756 0.573707,1.147757 -0.144697,0.199097 c -0.07958,0.109504 -0.188163,0.286843 -0.241276,0.394086 -0.09371,0.189209 -0.269756,1.180858 -0.269756,1.519549 0,0.154324 0.854025,1.61092 0.946269,1.613916 0.02152,5.92e-4 0.08028,-0.141838 0.130688,-0.316743 z m 21.995338,-0.374126 c 0.238728,-0.38067 0.44972,-0.725803 0.468864,-0.766958 0.04781,-0.10277 -0.09981,-1.149372 -0.209432,-1.484776 -0.04919,-0.150453 -0.158437,-0.389249 -0.242798,-0.53066 -0.180771,-0.302977 -0.217981,-0.178677 0.479406,-1.601654 l 0.489201,-0.998211 0.350927,-3.753189 c 0.193011,-2.064254 0.365899,-3.8457855 0.384193,-3.9589606 0.01831,-0.1131697 0.01485,-0.2057698 -0.0077,-0.2057698 -0.07991,0 -1.238084,1.3135724 -2.007747,2.2771334 -1.864074,2.333684 -3.142817,4.499135 -4.20533,7.121361 -0.235217,0.580513 -0.427668,1.0755 -0.427668,1.09997 0,0.02445 0.296302,0.338063 0.658457,0.696873 0.362157,0.35881 0.7647,0.762616 0.894544,0.897349 l 0.236086,0.244966 0.549935,-0.752664 0.549926,-0.752671 -0.859176,0.02841 c -0.47255,0.01563 -0.859176,0.02457 -0.859176,0.01989 0,-0.0047 0.584433,-0.661662 1.298741,-1.45997 0.71431,-0.798301 1.260828,-1.460662 1.214489,-1.471906 -0.04636,-0.01125 -0.512988,0.05885 -1.037009,0.155834 -0.524021,0.09696 -0.945432,0.150257 -0.93648,0.118433 0.03983,-0.141345 3.968347,-5.349645 3.964377,-5.255777 -0.0012,0.03476 -0.338369,0.913388 -0.748651,1.952523 -0.410288,1.039134 -0.731729,1.889082 -0.714316,1.888767 0.01742,-3e-4 0.201499,-0.06659 0.40908,-0.147284 0.207576,-0.08069 0.388893,-0.132033 0.40292,-0.114099 0.01403,0.01794 -0.271522,1.157799 -0.634564,2.53303 l -0.660088,2.500413 0.341705,1.205862 c 0.187934,0.663225 0.360035,1.205868 0.382456,1.205868 0.02239,0 0.236079,-0.311461 0.474801,-0.692136 z"
       id="path1" /></g></svg>
