<?xml version="1.0" encoding="UTF-8" standalone="no"?>
<!-- Created with Inkscape (http://www.inkscape.org/) -->

<svg
   width="180"
   height="180"
   viewBox="0 0 180 180"
   version="1.1"
   id="svg1"
   xmlns="http://www.w3.org/2000/svg"
   xmlns:svg="http://www.w3.org/2000/svg">
  <defs
     id="defs1" />
  <g
     id="layer1">
    <path
       style="fill:#b3b3b3;stroke-width:0.246967"
       d="m 58.655608,171.53589 c -7.566919,-12.30484 -6.896053,-11.09765 -6.420499,-11.55409 0.555307,-0.53301 5.56393,-3.85187 5.628005,-3.72929 0.0281,0.0532 0.480554,1.41612 1.006579,3.02871 0.526082,1.61258 1.29098,3.87436 1.70038,5.02618 l 0.744382,2.09429 0.947845,-3.45769 c 1.061606,-3.87301 1.911541,-5.64103 3.845172,-7.99884 l 1.314135,-1.60241 -0.47381,-1.42869 c -0.260792,-0.78576 -0.542943,-1.5238 -0.627476,-1.64003 -0.214142,-0.29477 -3.852309,1.28333 -6.439887,2.79345 -4.583766,2.6751 -8.631222,6.07903 -13.020011,10.94994 -1.589711,1.76437 -1.615845,1.7811 -0.883491,0.56547 0.415357,-0.68897 1.616127,-2.38735 2.668795,-3.77405 l 1.913959,-2.5213 -2.501304,-4.04072 c -1.375736,-2.22238 -2.502933,-4.12408 -2.5049,-4.226 -0.0056,-0.34484 8.249529,-3.55382 9.211484,-3.58024 0.08262,-0.003 0.565987,1.36876 1.07414,3.04675 l 0.923901,3.05086 1.983878,-1.28769 c 1.091057,-0.70812 3.065098,-1.81655 4.386597,-2.46297 1.526423,-0.74664 2.388668,-1.31334 2.364163,-1.55375 -0.02248,-0.20815 -0.156251,-1.17622 -0.300136,-2.15133 l -0.261354,-1.77284 -2.211734,0.18175 c -7.399031,0.60816 -12.502979,2.40979 -19.612497,6.92269 -1.76153,1.11817 -3.16593,1.95686 -3.120966,1.86379 0.04497,-0.0924 1.019283,-1.01878 2.165195,-2.05705 1.145857,-1.0384 2.083361,-1.93554 2.083361,-1.99381 0,-0.0586 -1.548118,-2.64542 -3.440269,-5.74929 -1.892151,-3.10385 -3.424812,-5.71328 -3.405982,-5.79871 0.01687,-0.0856 1.127027,-6.56376 2.462634,-14.39628 1.33555,-7.8324 2.837578,-16.58034 3.337806,-19.43975 l 0.909626,-5.198966 1.586675,-1.642281 c 0.8727,-0.903286 1.591341,-1.726101 1.59713,-1.828604 0.01125,-0.179179 -0.615561,-1.251767 -4.104728,-7.03661 l -1.6032,-2.658036 0.70695,-5.44501 0.706895,-5.444996 -1.536878,-3.157316 -1.536821,-3.157333 -0.790527,-8.935467 C 38.694358,53.423814 38.077281,46.596324 37.758203,43.166112 L 37.178052,36.92936 35.957836,35.569902 C 32.596424,31.824808 26.07515,26.421674 19.928035,22.288599 c -1.94622,-1.308561 -3.341966,-2.314381 -3.101688,-2.235132 0.239996,0.07891 1.66553,0.535246 3.167223,1.013381 3.225115,1.026791 9.203783,3.534922 11.24083,4.715665 0.792214,0.4593 1.383662,0.717582 1.314361,0.574134 -0.228194,-0.471941 -4.53408,-4.879926 -7.068263,-7.235946 C 19.849572,13.885797 13.890071,9.3285356 6.2324387,4.4016528 3.2892499,2.5078069 0.95318992,0.95780712 1.0414319,0.95709692 1.4607224,0.95262067 6.8260795,2.4740683 8.9630038,3.2017905 18.57197,6.4741522 27.400752,11.634779 34.909382,18.368122 c 1.295701,1.161979 2.285363,1.960366 2.199201,1.774285 -1.097858,-2.371611 -6.26318,-10.04546 -9.108516,-13.532081 -1.034064,-1.2670266 -1.823523,-2.3036873 -1.754502,-2.3036873 0.241682,0 4.141653,3.1651563 5.980353,4.8537236 7.073209,6.4958807 12.882136,14.4653117 17.123499,23.4921017 1.244554,2.648725 1.621241,3.205947 3.440774,5.090114 7.621719,7.892269 15.028001,17.635858 20.49773,26.966588 1.374163,2.344119 1.678008,2.717919 2.099379,2.582751 1.347858,-0.432512 13.862751,-2.948977 14.668229,-2.949487 0.814639,-5.54e-4 13.432781,2.51807 14.778271,2.949767 0.44909,0.144111 0.77344,-0.272125 2.66538,-3.417623 5.69988,-9.476321 12.68912,-18.601569 20.02301,-26.14218 1.65755,-1.704282 2.2404,-2.511884 3.00063,-4.157816 5.17949,-11.213559 12.16214,-20.273182 21.25931,-27.5828281 1.18228,-0.9499401 2.19409,-1.6703977 2.24844,-1.6009015 0.0561,0.06873 -0.51989,0.8213661 -1.27591,1.6708562 -2.21984,2.4939673 -7.41067,10.0372904 -9.34711,13.5833924 -0.59842,1.095756 -0.54745,1.063186 1.97353,-1.259566 6.62352,-6.102922 15.73771,-11.5556939 24.73026,-14.7953457 2.40907,-0.8679059 8.88652,-2.68666308 9.15736,-2.5712592 0.11134,0.048653 -0.66215,0.5790884 -1.71987,1.181044 -2.33494,1.3289117 -8.89831,5.6967266 -12.06239,8.0273469 -5.24923,3.866471 -13.26496,11.044031 -16.85838,15.095526 l -1.17986,1.3303 1.85662,-1.000988 c 2.7643,-1.49033 7.10925,-3.312375 10.9216,-4.579977 1.86207,-0.619204 3.4786,-1.126291 3.59219,-1.127191 0.11359,-8.44e-4 -1.11512,0.860581 -2.73034,1.914186 -3.73321,2.434912 -6.64398,4.577668 -9.81756,7.227208 -2.83111,2.363594 -7.08079,6.393406 -7.78083,7.378164 -0.41085,0.5783 -0.55418,1.69231 -1.26512,9.866607 -0.44066,5.068111 -1.04868,11.900919 -1.35051,15.184056 l -0.54912,5.969332 -1.51916,3.047561 -1.51918,3.047543 0.65731,4.987644 c 0.36142,2.743201 0.65739,5.2411 0.65739,5.550872 0,0.309761 -1.01176,2.238151 -2.24838,4.285272 -1.23658,2.047115 -2.4831,4.150412 -2.77003,4.673985 l -0.52158,0.951965 1.57431,1.840393 1.57436,1.840367 1.17666,6.841238 c 0.64715,3.76267 2.12648,12.41591 3.28729,19.22943 1.1608,6.81352 2.15479,12.53546 2.20881,12.71543 0.0563,0.17974 -1.48315,2.88427 -3.41594,6.00962 -1.93284,3.12532 -3.43425,5.77138 -3.33657,5.8801 0.0983,0.10936 0.93503,0.85731 1.86078,1.66355 2.54509,2.21636 2.48996,2.47347 -0.16411,0.76694 -7.18325,-4.61849 -11.99347,-6.4548 -18.77481,-7.16731 -4.11164,-0.43206 -3.6928,-0.62337 -4.01582,1.83423 -0.15287,1.16524 -0.24617,2.14956 -0.20626,2.18752 0.0393,0.0386 1.00579,0.49324 2.1471,1.01204 1.14136,0.51869 3.09004,1.59319 4.3305,2.38783 1.9139,1.2261 2.2744,1.37566 2.38086,0.98814 0.28664,-1.04235 1.65041,-5.49031 1.711,-5.57952 0.14105,-0.20792 3.41048,0.88729 6.27936,2.1036 2.12135,0.89945 2.98321,1.3866 2.90627,1.64297 -0.0596,0.20048 -1.15975,2.07967 -2.44354,4.17613 l -2.33415,3.81189 1.19657,1.58076 c 1.36549,1.80403 3.88444,5.56591 3.88444,5.80122 0,0.0868 -0.65158,-0.60614 -1.44794,-1.53898 -4.7434,-5.5563 -11.33352,-10.60437 -17.0184,-13.03617 -1.27906,-0.54722 -2.3549,-0.95435 -2.39074,-0.90464 -0.0338,0.0497 -0.31982,0.7693 -0.63136,1.59949 l -0.56622,1.50934 1.58354,1.9918 c 1.78619,2.24664 2.82565,4.51013 3.83572,8.35263 0.35354,1.34557 0.68312,2.49753 0.73174,2.55991 0.0506,0.062 0.86438,-2.14402 1.81228,-4.90306 0.94795,-2.75905 1.77209,-5.01648 1.83139,-5.01648 0.29058,0 5.70719,3.97741 5.70719,4.19078 0,0.13549 -1.1472,2.10668 -2.54941,4.38034 -1.40215,2.27372 -3.92323,6.36664 -5.60248,9.09541 -1.67919,2.72879 -3.09039,4.91374 -3.13592,4.85547 -0.045,-0.0586 -0.57295,-2.47936 -1.17211,-5.38026 -1.87101,-9.05978 -2.76136,-11.94639 -4.25609,-13.7984 l -0.73909,-0.9158 -1.47466,0.84256 -1.47461,0.84255 -2.1938,5.23952 c -1.20655,2.88172 -2.39029,5.40007 -2.63063,5.59631 -0.23999,0.1963 -3.247877,1.56528 -6.683593,3.04232 l -6.246597,2.68542 -6.517059,-2.79445 c -3.584379,-1.53698 -6.611875,-2.91568 -6.727772,-3.0638 -0.115779,-0.14811 -1.162943,-2.56899 -2.326785,-5.37964 l -2.116072,-5.11033 -1.439474,-0.953 c -1.39569,-0.92413 -1.456672,-0.93878 -2.003605,-0.48061 -1.532774,1.28388 -2.875519,5.50789 -4.738555,14.90602 -0.524958,2.64888 -1.003826,4.81413 -1.06391,4.81169 -0.05959,-0.002 -2.124222,-3.28113 -4.587081,-7.28597 z m 36.657754,-2.77104 c 2.590277,-1.08076 4.846418,-2.1101 5.013678,-2.28759 0.33611,-0.35661 1.87102,-4.12209 1.74563,-4.28244 -0.045,-0.0563 -0.59246,0.0721 -1.22039,0.28432 -1.130568,0.38134 -1.159739,0.37491 -3.047843,-0.6715 -1.048453,-0.58111 -3.198924,-1.64909 -4.778797,-2.37337 l -2.872539,-1.31689 -2.260632,1.03107 c -1.243318,0.56715 -3.341853,1.59457 -4.663353,2.28329 -2.447795,1.27569 -2.952351,1.35563 -4.676897,0.74091 -0.503598,-0.17939 -0.483927,-0.0856 0.445708,2.15569 l 0.97207,2.34343 4.797009,2.00716 c 2.638331,1.10386 5.031046,2.01701 5.317075,2.02905 0.286084,0.0105 2.6394,-0.86228 5.229676,-1.94306 z M 82.541614,157.07392 c 1.339202,-0.7533 3.120404,-1.737 3.958143,-2.18605 1.66868,-0.89438 1.801829,-1.1458 1.840667,-3.47388 0.02248,-1.27587 -0.01125,-1.34434 -1.5072,-3.0424 -0.840944,-0.95547 -1.529064,-1.85783 -1.529064,-2.00526 0,-0.14735 0.245617,-0.64141 0.545752,-1.09767 0.865281,-1.31459 0.609153,-2.79537 -0.670023,-3.87332 -0.608478,-0.51282 -1.839373,-0.73291 -2.116522,-0.37849 -0.07082,0.0901 0.01125,0.67013 0.180981,1.28774 l 0.309692,1.1228 -0.599655,-0.49269 c -2.200774,-1.80861 -3.054363,-3.353 -3.655985,-6.61513 -0.486737,-2.64076 -0.418167,-3.35075 0.708187,-7.27643 l 1.037493,-3.61673 0.148385,2.62277 c 0.145565,2.57635 0.771249,7.78873 0.964313,8.03535 0.05621,0.0687 0.541258,-0.14931 1.08229,-0.48558 0.541256,-0.33616 1.213753,-0.61109 1.494554,-0.61109 0.281026,0 1.557393,0.50258 2.836737,1.11682 1.279344,0.61436 2.465276,1.11694 2.635409,1.11694 0.170301,0 1.318183,-0.50258 2.551213,-1.11694 2.547561,-1.26919 2.980567,-1.32406 4.319713,-0.54743 0.52833,0.30651 1.013212,0.49028 1.077342,0.40835 0.247867,-0.31709 0.89091,-6.2557 0.90693,-8.37758 0.02248,-2.65315 0.0697,-2.58004 1.404794,2.06009 0.94279,3.27708 0.96881,3.45221 0.76006,5.10947 -0.24393,1.93685 -0.88759,4.44186 -1.396191,5.43408 -0.351846,0.68659 -2.709882,3.17253 -3.009568,3.17285 -0.09273,1.1e-4 -0.01125,-0.38811 0.179857,-0.86272 0.469875,-1.1616 0.279902,-1.65019 -0.641864,-1.65019 -0.848812,0 -2.011812,1.06758 -2.330552,2.13929 -0.228193,0.76648 0.05846,1.91225 0.69481,2.78103 l 0.433904,0.59216 -1.674636,1.95328 -1.674636,1.9533 0.156812,1.7253 c 0.120281,1.32733 0.264728,1.81265 0.625509,2.1039 0.257982,0.20816 2.128101,1.28572 4.155986,2.39441 l 3.687119,2.01582 2.14142,-0.89665 c 3.12098,-1.30669 3.24687,-1.50113 1.33066,-2.05433 -1.73488,-0.5009 -4.681726,-1.98164 -5.039136,-2.53214 -0.184352,-0.28364 0.03934,-0.30367 1.131694,-0.10019 1.910302,0.35607 5.032002,0.0743 6.732102,-0.60412 1.41997,-0.56792 2.82903,-1.57322 2.96702,-2.11687 0.045,-0.1775 -1.18318,-0.2889 -3.36884,-0.30574 -2.18925,-0.0179 -3.95589,-0.17739 -4.85956,-0.44163 l -1.4198,-0.415 1.63827,-0.36127 c 3.93476,-0.86814 8.72053,-3.06763 9.70722,-4.46137 0.40635,-0.57391 0.40355,-0.57673 -0.47607,-0.57673 -0.76304,0 -2.22105,0.17476 -8.24834,0.98904 -1.00658,0.1359 -0.73573,-0.0845 3.45274,-2.80354 4.19471,-2.72376 4.53318,-2.99875 4.39351,-3.57009 -0.0837,-0.34052 -0.85999,-3.22638 -1.72617,-6.41312 -0.86625,-3.18674 -1.52435,-5.79408 -1.46264,-5.79408 0.13325,0 5.02949,3.40941 5.75818,4.00975 0.48561,0.40025 0.66974,0.26877 4.6561,-3.33401 3.92953,-3.55144 4.17009,-3.82127 4.52498,-5.07545 0.20627,-0.72862 1.3274,-5.56661 2.49169,-10.75127 1.16435,-5.18463 2.13867,-9.39407 2.16502,-9.35428 0.0281,0.0397 2.1734,5.45773 4.7711,12.03988 2.5977,6.58211 4.72305,11.83306 4.72305,11.66878 0,-0.16408 -0.18998,-1.34019 -0.42211,-2.61318 -0.23156,-1.27298 -1.11707,-6.39827 -1.96696,-11.38956 -0.84971,-4.99107 -1.59082,-9.33334 -1.64681,-9.64925 -0.10623,-0.60231 -0.71661,-1.24015 -11.4729,-11.995789 -3.66414,-3.663995 -8.43141,-8.433984 -10.59391,-10.599954 -5.79268,-5.802087 -5.65431,-5.675643 -5.49805,-5.025291 0.18941,0.787671 1.45885,9.717223 1.39355,9.800766 -0.0281,0.03859 -1.42425,-2.575677 -3.09832,-5.808769 -1.67413,-3.233115 -3.244841,-5.981573 -3.490515,-6.107698 -0.245617,-0.126101 -2.068467,-0.554538 -4.050714,-0.951969 -1.982304,-0.397449 -3.78582,-0.773809 -4.007942,-0.836578 -0.350159,-0.09915 -0.385568,0.01111 -0.26529,0.830946 0.07644,0.519697 0.912381,3.646977 1.857923,6.949493 l 1.719206,6.004568 -1.07099,5.108401 c -0.589144,2.809616 -1.646816,7.867437 -2.350618,11.239614 -1.21572,5.8256 -1.291429,6.08304 -1.518554,5.16579 -0.460322,-1.85856 -4.411721,-21.150503 -4.409304,-21.527349 0.0021,-0.209266 0.40524,-1.762716 0.897655,-3.452095 1.195936,-4.10324 2.837017,-10.254687 2.761477,-10.351211 -0.05957,-0.0755 -7.460239,1.416644 -8.38712,1.690999 -0.315312,0.09357 -1.464485,2.077192 -3.558299,6.144306 -1.700716,3.303501 -3.122541,6.006315 -3.159524,6.006315 -0.03934,0 0.259668,-2.230361 0.660075,-4.956367 0.400181,-2.726022 0.704645,-5.043841 0.676824,-5.150722 -0.0281,-0.10704 -3.014852,2.783176 -6.637843,6.422363 -3.623049,3.63917 -9.776234,9.816487 -13.673789,13.727351 l -7.086532,7.11064 -0.81537,4.75676 c -0.448517,2.61624 -1.3967,8.13934 -2.107247,12.27357 -0.710604,4.1342 -1.267598,7.54352 -1.237865,7.57621 0.0281,0.0313 2.16705,-5.32891 4.749625,-11.91469 2.582633,-6.58578 4.745132,-11.97407 4.805496,-11.97398 0.0607,1.1e-4 1.139675,4.61793 2.398282,10.26183 1.846849,8.28167 2.394737,10.39798 2.839602,10.96813 0.722125,0.9256 7.759027,7.25169 8.066525,7.25169 0.130394,0 1.555481,-0.94251 3.166493,-2.09425 1.611069,-1.15189 2.99799,-2.09425 3.082185,-2.09425 0.08487,0 0.08374,0.21984 0,0.48861 -0.08487,0.26865 -0.878208,3.15831 -1.763834,6.42121 l -1.610056,5.93258 4.481696,2.82613 c 2.464939,1.55437 4.443982,2.87439 4.397839,2.93335 -0.04497,0.0597 -1.844883,-0.1431 -3.997207,-0.44906 -4.27739,-0.60805 -5.770035,-0.69054 -5.770035,-0.3191 0,0.40254 1.545533,1.57536 3.167224,2.40327 1.400579,0.7151 5.298303,2.05111 7.426627,2.54576 l 0.873768,0.20305 -1.201387,0.39532 c -0.75405,0.24813 -2.524517,0.41367 -4.755079,0.44433 -4.065497,0.0563 -4.362373,0.28509 -2.168231,1.67365 2.094433,1.32531 5.79364,1.9058 8.506949,1.33487 0.570652,-0.12017 1.037494,-0.13114 1.037494,-0.0246 0,0.47916 -4.186901,2.54876 -5.968551,2.95033 -0.459198,0.10365 -0.754331,0.28213 -0.655298,0.39678 0.189974,0.21983 3.801725,1.84856 4.54875,2.05128 0.240558,0.0653 0.471562,0.13309 0.513716,0.15089 0.04497,0.0179 1.172723,-0.58384 2.511926,-1.3372 z m -7.495424,-27.4033 c 0.0045,-0.22392 0.287771,-1.89327 0.629388,-3.70978 l 0.621179,-3.30279 -0.760289,-2.00265 c -0.418166,-1.10139 -0.791876,-2.04498 -0.830376,-2.09666 -0.03934,-0.052 -1.16699,-0.2771 -2.507654,-0.5009 -2.928014,-0.48872 -4.376761,-1.14025 -6.05612,-2.72353 -1.626972,-1.53398 -2.62293,-3.00353 -3.228767,-4.76439 -0.485613,-1.41106 -1.199926,-4.69232 -1.199926,-5.51102 0,-0.2388 -1.229547,-1.66423 -2.732307,-3.16764 -1.502761,-1.5034 -2.706902,-2.758047 -2.675821,-2.788134 0.0281,-0.03021 2.667502,0.282972 5.858612,0.69561 l 5.802072,0.750254 3.481242,2.52452 c 1.914689,1.38851 3.506141,2.4449 3.536549,2.34754 0.0281,-0.0969 -0.583973,-2.16964 -1.36517,-4.6051 -0.781254,-2.435464 -1.420533,-4.557433 -1.420533,-4.715513 0,-0.157983 0.365896,-0.865758 0.813572,-1.572682 1.554019,-2.4551 6.394642,-9.536925 6.394642,-9.355341 0,0.100265 -0.350159,3.31398 -0.778499,7.14121 -0.428285,3.827236 -0.747698,7.130366 -0.709873,7.340298 0.03934,0.209938 1.421769,2.404968 3.075609,4.877848 l 3.007038,4.49617 -0.374889,4.45426 c -0.206273,2.44986 -0.401868,4.41921 -0.43559,4.37636 -0.03372,-0.0431 -0.31194,-1.94168 -0.618539,-4.2197 -0.306881,-2.27798 -0.635457,-4.3196 -0.730613,-4.53688 -0.183229,-0.4182 -3.535424,-3.71152 -3.778849,-3.71238 -0.07926,-2.7e-4 0.05621,0.65921 0.294516,1.46548 1.057951,3.54779 2.523391,10.1678 3.136816,14.17111 0.100609,0.65526 0.06857,0.64016 -0.515964,-0.24545 l -0.622811,-0.94352 -0.566549,1.22276 c -1.120171,2.41756 -4.750133,9.00888 -4.742039,8.6106 z m -1.554132,-15.47803 c 0.984154,-0.44386 2.769628,-1.96815 2.929531,-2.50094 0.05621,-0.18399 -0.676092,-0.88176 -1.66997,-1.59298 l -1.768331,-1.26532 -0.851453,1.37704 c -0.46819,0.75736 -0.932783,1.27038 -1.032211,1.14005 -0.363086,-0.47563 -1.255288,-3.05528 -1.38709,-4.00915 -0.127018,-0.91861 -0.26023,-1.0535 -2.132146,-2.15894 l -1.99675,-1.17913 0.120281,2.24387 c 0.149511,2.78481 0.865842,4.80302 2.263555,6.37585 1.642262,1.84799 3.645644,2.41715 5.524643,1.56965 z m 29.902392,12.34537 c -1.02558,-1.87963 -2.23124,-4.15967 -2.6792,-5.06676 l -0.814468,-1.6493 -0.518775,0.81167 c -0.391751,0.61256 -0.521023,0.69471 -0.526644,0.33504 -0.01125,-0.7906 1.425087,-7.64691 2.462407,-11.73989 0.53508,-2.11171 0.92975,-3.83948 0.87675,-3.83948 -0.0742,0 -1.63484,1.4636 -3.751815,3.51971 -0.04497,0.0419 -0.352407,2.06199 -0.688966,4.49057 -0.336669,2.42859 -0.630284,4.35278 -0.653104,4.27602 -0.02248,-0.0777 -0.206836,-2.04827 -0.409737,-4.38105 l -0.368707,-4.24147 3.010017,-4.55421 c 2.631642,-3.9817 3.009172,-4.67708 3.003332,-5.531743 -0.004,-0.537649 -0.33611,-3.867623 -0.73854,-7.399934 -0.40243,-3.532307 -0.71471,-6.448731 -0.69374,-6.48096 0.13096,-0.201269 7.20074,10.692832 7.17567,11.056961 -0.0168,0.247573 -0.67717,2.448535 -1.4669,4.890936 -0.78985,2.44237 -1.40788,4.47674 -1.37343,4.52077 0.0338,0.0442 1.67665,-1.07186 3.64934,-2.47969 l 3.58681,-2.55976 5.63683,-0.71623 c 3.10028,-0.393927 5.63687,-0.630247 5.63687,-0.525234 0,0.104801 -1.13467,1.303964 -2.52147,2.664294 -1.75513,1.72167 -2.55436,2.68553 -2.62969,3.17159 -0.92839,5.98973 -2.02659,8.31653 -5.139,10.88818 -1.38856,1.14732 -3.08085,1.76662 -5.76448,2.1096 -0.84105,0.10815 -1.68385,0.29818 -1.87309,0.42368 -0.18942,0.12544 -0.66615,1.12189 -1.05993,2.21387 l -0.71582,1.98546 0.65754,3.5457 c 0.3614,1.95017 0.63496,3.57575 0.60736,3.61242 -0.0281,0.0375 -0.88934,-1.47118 -1.91498,-3.3508 z m 7.58181,-12.71105 c 1.0819,-0.71341 2.31982,-2.35706 2.90823,-3.86153 0.5852,-1.49627 1.04592,-4.66517 0.78052,-5.36868 -0.18885,-0.50135 -0.30351,-0.46674 -2.04694,0.61943 -1.79019,1.11514 -1.85433,1.18883 -2.09517,2.40692 -0.27035,1.36766 -1.05935,3.49279 -1.3953,3.75821 -0.11584,0.0913 -0.53451,-0.3979 -0.93148,-1.08708 -0.39681,-0.6893 -0.79958,-1.25807 -0.8954,-1.26406 -0.2816,-0.0179 -3.42999,2.25434 -3.42999,2.47521 0,0.44241 1.26738,1.70735 2.40272,2.39798 0.99444,0.60489 1.42829,0.71059 2.51838,0.61323 0.73051,-0.0654 1.7032,-0.37234 2.18431,-0.68952 z m -25.925025,8.93671 c 0.545191,-0.97912 4.78172,-6.20514 5.02998,-6.20514 0.467065,0 5.453653,6.14726 5.480632,6.7564 0.0045,0.10704 -0.80233,-0.37278 -1.793455,-1.06612 -0.991124,-0.69324 -2.223986,-1.5115 -2.739613,-1.81827 l -0.93756,-0.55778 -2.742424,1.84481 c -2.495177,1.67847 -2.702294,1.77278 -2.297503,1.04617 z M 55.768456,142.404 c 1.7119,-0.56613 4.994006,-1.19589 7.408754,-1.42153 l 2.00962,-0.18774 0.248427,-1.52938 c 0.136577,-0.8412 0.215266,-1.56491 0.174798,-1.60832 -0.03934,-0.0431 -2.481856,-2.50325 -5.425214,-5.46633 -2.943414,-2.96304 -5.409814,-5.5002 -5.480916,-5.63809 -0.07082,-0.13791 -0.456386,-2.06602 -0.856344,-4.28472 -0.399619,-2.21869 -0.808625,-4.03398 -0.90822,-4.03398 -0.09948,0 -0.181544,0.11358 -0.181544,0.25216 0,0.13875 -2.019287,4.5518 -4.48726,9.80672 -2.468029,5.25494 -4.458483,9.66108 -4.423244,9.79145 0.111293,0.41098 2.241354,3.85152 2.395245,3.86836 0.08037,0.009 1.045024,-2.21434 2.14277,-4.94036 1.097689,-2.72602 2.076729,-5.06095 2.175482,-5.18873 0.09836,-0.12768 0.422663,0.68896 0.720102,1.81502 1.766363,6.69046 2.641142,9.47145 2.934084,9.32773 0.167491,-0.0823 0.866294,-0.3351 1.55329,-0.56241 z m 72.205564,-4.93093 c 0.79925,-2.85655 1.45325,-5.33822 1.45325,-5.51485 0,-0.91928 0.53283,0.11879 2.30684,4.49565 1.07385,2.64923 1.98432,4.97387 2.02315,5.16581 0.12874,0.63544 0.39513,0.36826 1.64384,-1.64951 l 1.23697,-1.99856 -0.41087,-0.86362 c -1.60544,-3.37277 -8.53707,-18.06255 -8.72333,-18.48679 -0.28777,-0.65526 -0.25125,-0.78733 -1.13232,4.1198 l -0.68367,3.80907 -5.56197,5.65329 c -3.98287,4.04822 -5.53285,5.78117 -5.45922,6.10371 0.0563,0.2478 0.16638,0.91084 0.24449,1.47348 l 0.14165,1.02308 2.10894,0.18493 c 2.58724,0.22683 5.5378,0.80289 7.56973,1.47771 0.84099,0.27922 1.58769,0.43866 1.6594,0.35416 0.0719,-0.0845 0.78434,-2.49081 1.58363,-5.34738 z M 50.224253,87.169153 c 0.188287,-0.652674 0.768719,-2.673584 1.290416,-4.490853 l 0.94852,-3.304121 -2.476967,-9.373617 c -1.362359,-5.155498 -2.445885,-9.41339 -2.407889,-9.461975 0.03934,-0.04865 0.702959,0.158095 1.477636,0.459188 0.774735,0.301092 1.482584,0.548554 1.57313,0.54956 0.0905,0.0011 -1.121745,-3.296336 -2.694032,-7.327737 l -2.858768,-7.32989 1.097521,1.396167 c 1.637314,2.083068 13.992642,18.686907 13.943799,18.738625 -0.02248,0.0246 -1.663957,-0.257584 -3.646204,-0.62687 -1.982306,-0.369262 -3.734281,-0.637461 -3.893398,-0.595765 -0.159061,0.04194 1.833472,2.448161 4.427909,5.347793 2.594493,2.899659 4.76115,5.362907 4.814826,5.473915 0.05621,0.110449 -1.349152,0.144231 -3.117369,0.07438 l -3.214942,-0.127559 2.075099,2.74289 c 1.14136,1.508587 2.088194,2.784516 2.104213,2.835401 0.05844,0.183932 6.633009,-6.655826 6.633009,-6.9 0,-0.137907 -0.671541,-1.925661 -1.492194,-3.972888 -3.770362,-9.404974 -8.600643,-17.614374 -15.578362,-26.476194 -2.299921,-2.920933 -7.367387,-8.659826 -7.646671,-8.659826 -0.05058,0 0.555307,6.691143 1.346958,14.869192 l 1.439699,14.869185 2.141028,4.283214 2.141084,4.283209 -0.540133,0.742932 c -0.296765,0.40869 -0.70223,1.0704 -0.90041,1.470662 -0.349596,0.706085 -1.006692,4.406732 -1.006692,5.670661 0,0.575934 3.187177,6.01166 3.531434,6.022838 0.08037,0.0023 0.299574,-0.529259 0.487861,-1.182027 z m 82.085737,-1.396171 c 0.8909,-1.420582 1.67827,-2.708552 1.74971,-2.862134 0.17817,-0.383469 -0.37263,-4.289248 -0.78152,-5.540903 -0.1838,-0.561511 -0.59129,-1.452607 -0.90621,-1.980324 -0.67463,-1.130653 -0.81339,-0.66676 1.78914,-5.977079 l 1.82571,-3.725128 1.30963,-14.006202 c 0.72034,-7.703392 1.36551,-14.351738 1.4338,-14.774083 0.0686,-0.422223 0.0563,-0.767953 -0.0281,-0.767953 -0.29845,0 -4.62046,4.902003 -7.49284,8.497838 -6.95664,8.708859 -11.72886,16.789913 -15.69414,26.57557 -0.87775,2.166356 -1.596,4.013556 -1.596,4.104873 0,0.09127 1.10573,1.261597 2.4573,2.600602 1.35157,1.339007 2.85388,2.84594 3.33842,3.348733 l 0.88107,0.914215 2.05234,-2.808794 2.05228,-2.808823 -3.2064,0.105913 c -1.7635,0.05861 -3.20639,0.09127 -3.20639,0.07438 0,-0.01789 2.18109,-2.469198 4.84685,-5.448337 2.66577,-2.979109 4.70533,-5.450914 4.5324,-5.492874 -0.17311,-0.04194 -1.91441,0.219613 -3.87007,0.581566 -1.95562,0.361826 -3.52828,0.560724 -3.4949,0.441965 0.1484,-0.527472 14.80975,-19.963857 14.79491,-19.613551 -0.004,0.129691 -1.26277,3.40858 -2.79396,7.286437 -1.53116,3.877856 -2.73074,7.049702 -2.66577,7.048521 0.0653,-0.0011 0.75203,-0.248468 1.52665,-0.54956 0.77463,-0.301093 1.45134,-0.492687 1.50366,-0.425858 0.0506,0.0665 -1.01332,4.320688 -2.36815,9.452793 l -2.46343,9.331071 1.27526,4.500051 c 0.70132,2.475021 1.34363,4.500059 1.42727,4.500059 0.0837,0 0.88113,-1.162305 1.77198,-2.58292 z"
       id="path1" />
  </g>
</svg>
