<?xml version="1.0" encoding="UTF-8" standalone="no"?>
<!-- Created with Inkscape (http://www.inkscape.org/) -->

<svg
   width="512"
   height="512"
   viewBox="0 0 512 512"
   version="1.1"
   id="svg1"
   xmlns="http://www.w3.org/2000/svg"
   xmlns:svg="http://www.w3.org/2000/svg">
  <defs
     id="defs1" />
  <g
     id="layer1">
    <path
       style="fill:#ffffff;stroke-width:0.701977"
       d="m 166.09371,486.70927 c -21.49343,-34.99903 -19.58784,-31.56538 -18.23705,-32.86365 1.57729,-1.51604 15.80402,-10.956 15.98601,-10.60733 0.0797,0.15125 1.36499,4.02791 2.85916,8.61465 1.49429,4.5867 3.66695,11.01996 4.82983,14.29613 l 2.11439,5.95684 2.69229,-9.83482 c 3.01541,-11.01612 5.42964,-16.04494 10.92198,-22.75134 l 3.73276,-4.55777 -1.34585,-4.06367 c -0.74076,-2.23497 -1.5422,-4.3342 -1.78229,-4.6648 -0.60829,-0.83843 -10.9423,3.65022 -18.29215,7.94549 -13.01996,7.60888 -24.51655,17.29079 -36.98264,31.14527 -4.5155,5.01844 -4.58971,5.06603 -2.5095,1.60837 1.1798,-1.95965 4.59052,-6.79039 7.58056,-10.73465 l 5.4365,-7.17141 -7.10482,-11.49314 c -3.90772,-6.32119 -7.10946,-11.73026 -7.11505,-12.02019 -0.017,-0.98078 23.43235,-10.10822 26.16471,-10.18333 0.23484,-0.004 1.60767,3.89319 3.05104,8.66597 l 2.62431,8.67763 5.63507,-3.66261 c 3.09911,-2.01413 8.70627,-5.16686 12.45992,-7.00548 4.33572,-2.12376 6.78486,-3.73559 6.71526,-4.4194 -0.0639,-0.59203 -0.44381,-3.34555 -0.85251,-6.1191 l -0.74237,-5.04258 -6.28232,0.51697 c -21.01654,1.72984 -35.514,6.85427 -55.70821,19.69047 -5.00351,3.18042 -8.99264,5.56595 -8.86495,5.30122 0.12786,-0.26275 2.89521,-2.89775 6.15015,-5.85092 3.25472,-2.95355 5.91765,-5.50533 5.91765,-5.6711 0,-0.16663 -4.39735,-7.52441 -9.77188,-16.35285 -5.37457,-8.82841 -9.72798,-16.25049 -9.67454,-16.49346 0.0477,-0.24353 3.20128,-18.66951 6.99499,-40.94779 3.79358,-22.27795 8.06,-47.15996 9.48086,-55.2931 l 2.58374,-14.78755 4.50689,-4.67121 c 2.47885,-2.56925 4.5201,-4.90961 4.53656,-5.20117 0.0298,-0.50962 -1.74849,-3.56041 -11.65928,-20.01443 l -4.55382,-7.56034 2.00806,-15.48742 2.00792,-15.48738 -4.36543,-8.98041 -4.36526,-8.98055 -2.24545,-25.41542 c -1.23405,-13.97852 -2.98685,-33.39814 -3.89315,-43.15478 l -1.6479,-17.73939 -3.46595,-3.866752 C 92.074038,89.324671 73.550708,73.956368 56.09018,62.200559 c -5.528136,-3.721998 -9.492672,-6.582882 -8.810179,-6.357466 0.681683,0.224304 4.730822,1.522406 8.996306,2.882374 9.16078,2.920569 26.142843,10.054514 31.928965,13.412925 2.250227,1.306391 3.930226,2.041041 3.733358,1.633021 C 91.29049,72.429091 79.059835,59.891293 71.861631,53.190022 55.867314,38.300191 38.939635,25.337839 17.188563,11.324162 8.8285912,5.9374418 2.1931575,1.5287305 2.4438126,1.5266798 3.6347758,1.5138624 18.874784,5.8414823 24.944592,7.9113621 52.238335,17.21905 77.31599,31.897564 98.643878,51.049432 c 3.680342,3.305049 6.491412,5.575906 6.246682,5.046633 -3.11842,-6.745663 -17.790199,-28.572605 -25.872238,-38.489717 -2.937195,-3.603822 -5.179623,-6.552462 -4.983565,-6.552462 0.686499,0 11.764166,9.002762 16.986879,13.805608 20.091064,18.476435 36.590994,41.144155 48.638334,66.819347 3.53509,7.533847 4.60505,9.118759 9.77334,14.477919 21.64908,22.44825 42.68625,50.16226 58.22268,76.70194 3.90325,6.66743 4.76633,7.73064 5.96317,7.3462 3.82854,-1.23021 39.37642,-8.38787 41.66433,-8.38932 2.31394,-0.002 38.15506,7.16223 41.9769,8.39009 1.27557,0.40973 2.19691,-0.774 7.5708,-9.72084 16.19025,-26.95381 36.0428,-52.90902 56.87428,-74.35699 4.70819,-4.84758 6.36377,-7.144669 8.52313,-11.82622 14.71206,-31.895085 34.54594,-57.663631 60.38592,-78.454714 3.3582,-2.701948 6.23219,-4.751149 6.38657,-4.553463 0.1594,0.195252 -1.47674,2.336226 -3.62417,4.752431 -6.30533,7.093698 -21.04961,28.549406 -26.54995,38.635664 -1.69978,3.116719 -1.55499,3.024049 5.6057,-3.582588 18.81375,-17.358758 44.7021,-32.868224 70.24497,-42.0828573 6.84282,-2.4686287 25.24166,-7.641769 26.01097,-7.3135157 0.31625,0.1384278 -1.88079,1.6471197 -4.8852,3.3592663 -6.63228,3.7798475 -25.27516,16.2033567 -34.26256,22.8324237 -14.91016,10.997532 -37.67839,31.412895 -47.8853,42.936666 l -3.35135,3.783821 5.27369,-2.847126 c 7.8518,-4.239009 20.1934,-9.421506 31.02216,-13.026994 5.28911,-1.761195 9.88078,-3.203535 10.20342,-3.206099 0.32264,-0.0024 -3.16744,2.447779 -7.75539,5.44457 -10.60398,6.925704 -18.87184,13.020415 -27.88622,20.556611 -8.04159,6.722805 -20.11258,18.184925 -22.10103,20.985904 -1.16701,1.6449 -1.57409,4.81349 -3.59348,28.06393 -1.25165,14.41537 -2.97875,33.85012 -3.83603,43.18849 l -1.55976,16.97872 -4.31514,8.66827 -4.31514,8.66823 1.86711,14.18654 c 1.02653,7.80254 1.86723,14.90739 1.86723,15.7885 0,0.88107 -2.87382,6.36605 -6.3864,12.18874 -3.51241,5.82268 -7.05308,11.80515 -7.86808,13.29436 l -1.48155,2.70772 4.47177,5.23466 4.47189,5.23462 3.34223,19.45876 c 1.83816,10.70226 6.0401,35.31493 9.33732,54.69487 3.29721,19.37989 6.12057,35.65498 6.274,36.16686 0.15983,0.51124 -4.21276,8.20386 -9.70275,17.09335 -5.49016,8.88946 -9.75483,16.4157 -9.47737,16.72499 0.27959,0.31103 2.65594,2.43847 5.28549,4.73167 7.22919,6.30406 7.07256,7.03538 -0.46619,2.18143 -20.40364,-13.1365 -34.0668,-18.35959 -53.32879,-20.38619 -11.67893,-1.22897 -10.4892,-1.77311 -11.40671,5.21715 -0.43426,3.31432 -0.69928,6.11407 -0.58591,6.22203 0.11167,0.1098 2.8569,1.40295 6.09871,2.87857 3.24197,1.47533 8.77714,4.53151 12.30055,6.79177 5.43633,3.48744 6.46035,3.91285 6.7627,2.8106 0.81419,-2.96479 4.6879,-15.61629 4.86001,-15.86999 0.40064,-0.59139 9.68728,2.52375 17.83619,5.98333 6.02561,2.55832 8.47364,3.94396 8.25508,4.67314 -0.16921,0.57025 -3.29419,5.91527 -6.94069,11.8783 l -6.63002,10.84228 3.39874,4.49621 c 3.87865,5.13127 11.0336,15.83131 11.0336,16.50059 0,0.24695 -1.85083,-1.72407 -4.11286,-4.37735 -13.47332,-15.80397 -32.19224,-30.16235 -48.33982,-37.07921 -3.63311,-1.55646 -6.68892,-2.71447 -6.79079,-2.57313 -0.0959,0.14142 -0.90838,2.18818 -1.79333,4.54953 l -1.60831,4.29305 4.49794,5.66533 c 5.07363,6.3902 8.02617,12.82833 10.89517,23.75767 1.0042,3.82723 1.94037,7.10378 2.07846,7.28122 0.14364,0.17645 2.45524,-6.0983 5.1477,-13.94592 2.69264,-7.84766 5.03356,-14.26853 5.20196,-14.26853 0.8254,0 16.211,11.31306 16.211,11.91996 0,0.38537 -3.2586,5.99208 -7.24151,12.45914 -3.98273,6.46723 -11.14373,18.10883 -15.91355,25.87036 -4.7696,7.76157 -8.77808,13.97629 -8.90739,13.81056 -0.12787,-0.16662 -1.62745,-7.05212 -3.32927,-15.30323 -5.31456,-25.76902 -7.84353,-33.97949 -12.0892,-39.24723 l -2.09939,-2.60483 -4.18868,2.39651 -4.18851,2.39651 -6.23138,14.9029 c -3.42717,8.19659 -6.78951,15.35959 -7.47218,15.91779 -0.68168,0.55832 -9.22543,4.45216 -18.9844,8.65336 l -17.74311,7.63822 -18.51135,-7.94836 c -10.18122,-4.37167 -18.78068,-8.29315 -19.10984,-8.71446 -0.32904,-0.42126 -3.30331,-7.30706 -6.60914,-15.30148 l -6.01056,-14.53547 -4.08878,-2.71062 c -3.96436,-2.62855 -4.13758,-2.67021 -5.69112,-1.36702 -4.35375,3.65176 -8.16775,15.66627 -13.45959,42.39765 -1.4911,7.53428 -2.85131,13.69299 -3.02197,13.68602 -0.16921,-0.004 -6.03375,-9.33259 -13.02938,-20.7237 z m 104.12436,-7.88175 c 7.35752,-3.07404 13.76596,-6.00183 14.2411,-6.50666 0.95467,-1.01433 5.31451,-11.72458 4.95833,-12.18066 -0.12786,-0.16022 -1.68285,0.20507 -3.46642,0.80869 -3.21134,1.08465 -3.29419,1.06636 -8.65726,-1.90996 -2.97807,-1.65289 -9.08636,-4.69057 -13.5739,-6.75067 l -8.15931,-3.74566 -6.42118,2.9327 c -3.53159,1.61315 -9.49237,4.53547 -13.24602,6.49444 -6.95279,3.62848 -8.38597,3.85586 -13.28446,2.10739 -1.43045,-0.51026 -1.37458,-0.24353 1.26602,6.1315 l 2.76112,6.66547 13.62565,5.70903 c 7.49404,3.13975 14.29041,5.73707 15.10285,5.77129 0.81262,0.0299 7.49707,-2.45261 14.85459,-5.52669 z m -36.27743,-33.25288 c 3.80389,-2.14264 8.86333,-4.94059 11.24286,-6.21784 4.73982,-2.54391 5.118,-3.25903 5.2283,-9.88088 0.0639,-3.62899 -0.0298,-3.82373 -4.28108,-8.65358 -2.38866,-2.71767 -4.34323,-5.28427 -4.34323,-5.70365 0,-0.41913 0.69767,-1.82439 1.55018,-3.12215 2.45779,-3.73909 1.73025,-7.95092 -1.90317,-11.01697 -1.72837,-1.45866 -5.22463,-2.08466 -6.01188,-1.07657 -0.20117,0.25634 0.0341,1.90611 0.51409,3.66278 l 0.87966,3.19362 -1.70331,-1.40137 c -6.25116,-5.1443 -8.67575,-9.53707 -10.3846,-18.81562 -1.38255,-7.51121 -1.18781,-9.53063 2.01154,-20.69658 l 2.94696,-10.28719 0.42152,7.46002 c 0.41343,7.328 2.19069,22.15374 2.73905,22.85523 0.15983,0.19526 1.53743,-0.42468 3.07422,-1.3812 1.53739,-0.95613 3.44759,-1.73812 4.2452,-1.73812 0.79821,0 4.42369,1.42952 8.05758,3.17662 3.63392,1.74744 7.00248,3.17696 7.48572,3.17696 0.48375,0 3.74423,-1.42952 7.24662,-3.17696 7.23618,-3.61002 8.4661,-3.76605 12.26991,-1.5571 1.50065,0.87184 2.87795,1.39453 3.06012,1.16151 0.70406,-0.90192 2.53059,-17.79331 2.57606,-23.82863 0.0639,-7.54641 0.19776,-7.33847 3.99024,5.85959 2.67797,9.32111 2.75188,9.81923 2.15893,14.533 -0.69285,5.50904 -2.52117,12.63414 -3.96581,15.45632 -0.99938,1.95294 -7.69726,9.02373 -8.54853,9.02463 -0.2634,3.4e-4 -0.0298,-1.10387 0.5109,-2.45384 1.33464,-3.30398 0.79505,-4.69369 -1.82321,-4.69369 -2.41099,0 -5.71443,3.03657 -6.61979,6.08484 -0.64818,2.18015 0.16622,5.43906 1.97358,7.91021 l 1.23247,1.68429 -4.75669,5.55578 -4.75674,5.55584 0.44544,4.9073 c 0.34182,3.77536 0.75192,5.1558 1.7767,5.98419 0.73279,0.59207 6.04475,3.65701 11.80487,6.81051 l 10.47309,5.73365 6.08255,-2.55036 c 8.86495,-3.71666 9.22254,-4.26973 3.77969,-5.84319 -4.92786,-1.42474 -13.29823,-5.63645 -14.31342,-7.20226 -0.52365,-0.80677 0.11166,-0.86372 3.21453,-0.28498 5.4261,1.01279 14.29313,0.21149 19.12215,-1.7183 4.03333,-1.61537 8.03571,-4.47476 8.42766,-6.02109 0.12786,-0.50488 -3.36077,-0.82177 -9.56897,-0.86962 -6.21847,-0.0508 -11.23651,-0.50458 -13.80333,-1.25615 l -4.03286,-1.18043 4.65338,-1.02754 c 11.17651,-2.46927 24.77023,-8.72535 27.57283,-12.68964 1.15426,-1.63238 1.14629,-1.64037 -1.3522,-1.64037 -2.16742,0 -6.30883,0.49706 -23.42898,2.81316 -2.85916,0.38666 -2.08981,-0.24054 9.8073,-7.97421 11.91487,-7.7473 12.87628,-8.52946 12.47956,-10.15453 -0.23783,-0.96853 -2.44279,-9.17691 -4.90314,-18.24102 -2.46048,-9.06416 -4.3298,-16.4803 -4.1545,-16.4803 0.37848,0 14.28593,9.69751 16.35579,11.40508 1.37935,1.13844 1.90235,0.76447 13.22539,-9.48307 11.16163,-10.10143 11.84493,-10.86893 12.85292,-14.43622 0.58592,-2.07245 3.7704,-15.83328 7.07755,-30.5802 3.30723,-14.74678 6.07475,-26.71985 6.14964,-26.60667 0.0797,0.11279 6.17342,15.52361 13.55203,34.24541 7.37862,18.72172 13.41553,33.65718 13.41553,33.1899 0,-0.46668 -0.53959,-3.81194 -1.19894,-7.43276 -0.65777,-3.62079 -3.17301,-18.19881 -5.58703,-32.39569 -2.4136,-14.19624 -4.5187,-26.54712 -4.67772,-27.44566 -0.30176,-1.71317 -2.0355,-3.52739 -32.58814,-34.12001 -10.40775,-10.42161 -23.94896,-23.98903 -30.0914,-30.14975 -16.45382,-16.50307 -16.06076,-16.14341 -15.61695,-14.2936 0.53801,2.24039 4.14384,27.63898 3.95831,27.87662 -0.0797,0.1098 -4.04547,-7.32608 -8.80059,-16.52209 -4.75528,-9.19604 -9.21678,-17.01354 -9.91462,-17.3723 -0.69766,-0.35888 -5.87537,-1.57726 -11.50584,-2.70771 -5.63064,-1.13045 -10.7534,-2.20096 -11.38432,-2.37951 -0.99461,-0.28198 -1.0952,0.0299 -0.75355,2.36349 0.21695,1.47818 2.59154,10.37323 5.27732,19.76667 l 4.88332,17.07896 -3.04209,14.53 c -1.67344,7.99147 -4.67772,22.37758 -6.67682,31.96917 -3.45317,16.56993 -3.66823,17.30219 -4.31335,14.69325 -1.30753,-5.28636 -12.53126,-60.15904 -12.5244,-61.23092 0.004,-0.59524 1.15107,-5.01378 2.54973,-9.81893 3.39699,-11.67096 8.05843,-29.16772 7.84383,-29.44226 -0.16921,-0.21491 -21.19039,4.0294 -23.82315,4.80976 -0.89564,0.26618 -4.15978,5.90822 -10.10714,17.47647 -4.83081,9.39621 -8.86942,17.08391 -8.97448,17.08391 -0.11167,0 0.7376,-6.34388 1.8749,-14.09755 1.13671,-7.7537 2.00154,-14.34633 1.92252,-14.65036 -0.0797,-0.30462 -8.56353,7.91628 -18.85446,18.26734 -10.29105,10.35103 -27.76884,27.92136 -38.83964,39.04514 l -20.12891,20.22498 -2.316,13.52987 c -1.27398,7.44143 -3.96726,23.15093 -5.98554,34.91003 -2.01841,11.75906 -3.60055,21.45631 -3.51608,21.54928 0.0797,0.0889 6.15539,-15.15721 13.49105,-33.8893 7.33583,-18.73215 13.47831,-34.05824 13.64977,-34.05798 0.17262,3e-4 3.23716,13.13492 6.81218,29.18805 5.24586,23.5558 6.80213,29.57527 8.06572,31.19697 2.05114,2.63273 22.03911,20.62621 22.91254,20.62621 0.37038,0 4.41824,-2.6808 8.99426,-5.95671 4.57615,-3.27638 8.51563,-5.95676 8.75477,-5.95676 0.24124,0 0.23783,0.62528 0,1.38975 -0.24123,0.76417 -2.49453,8.98328 -5.01007,18.26405 l -4.5733,16.87422 12.73001,8.03847 c 7.00155,4.42114 12.6229,8.1757 12.49184,8.34343 -0.12787,0.17005 -5.24032,-0.40716 -11.35386,-1.27729 -12.14967,-1.7295 -16.38945,-1.96414 -16.38945,-0.90764 0,1.14497 4.38998,4.48083 8.9963,6.83568 3.97826,2.03399 15.04953,5.83409 21.09492,7.24097 l 2.48192,0.5776 -3.41247,1.12443 c -2.14184,0.70577 -7.17075,1.17659 -13.50656,1.26375 -11.54782,0.16022 -12.39108,0.81091 -6.15876,4.76046 5.94915,3.76964 16.45655,5.42073 24.16356,3.79681 1.62088,-0.3418 2.94691,-0.37298 2.94691,-0.0701 0,1.36288 -11.89262,7.24952 -16.95333,8.39172 -1.30434,0.2948 -2.14261,0.80245 -1.86131,1.12857 0.53958,0.62527 10.79858,5.2579 12.92043,5.83452 0.68331,0.18585 1.33946,0.37854 1.45923,0.42916 0.12786,0.0508 3.33105,-1.66062 7.13495,-3.80343 z m -21.29038,-77.94407 c 0.0128,-0.6369 0.81743,-5.38506 1.78774,-10.55183 l 1.76443,-9.39421 -2.15957,-5.69622 c -1.18777,-3.13269 -2.24925,-5.81661 -2.35861,-5.96358 -0.11167,-0.14783 -3.31478,-0.78819 -7.12285,-1.42474 -8.31688,-1.39009 -12.43196,-3.24323 -17.20207,-7.74662 -4.62133,-4.36316 -7.45031,-8.54304 -9.17114,-13.55152 -1.37935,-4.01351 -3.40833,-13.34649 -3.40833,-15.67515 0,-0.67924 -3.49247,-4.73364 -7.76098,-9.00981 -4.26851,-4.27618 -7.68881,-7.8448 -7.6005,-7.93038 0.0797,-0.0859 7.57689,0.80485 16.64105,1.97854 l 16.48046,2.13401 9.88828,7.18051 c 5.43859,3.94942 9.95899,6.95416 10.04538,6.67722 0.0797,-0.27558 -1.65873,-6.17119 -3.87767,-13.09848 -2.21912,-6.92724 -4.03495,-12.96282 -4.03495,-13.41245 0,-0.44934 1.03927,-2.46248 2.31088,-4.47323 4.4141,-6.98312 18.16365,-27.12616 18.16365,-26.60966 0,0.2854 -0.99461,9.42603 -2.21127,20.31193 -1.21654,10.88593 -2.12382,20.28112 -2.01637,20.87824 0.11167,0.59716 4.03844,6.84051 8.7361,13.87422 l 8.54133,12.78859 -1.06485,12.66943 c -0.58591,6.96818 -1.14148,12.56967 -1.23729,12.44778 -0.0959,-0.12262 -0.88605,-5.5228 -1.75693,-12.0022 -0.87169,-6.47936 -1.80497,-12.28636 -2.07527,-12.90442 -0.52045,-1.18949 -10.04218,-10.55678 -10.73359,-10.55922 -0.22504,-7.7e-4 0.15983,1.87501 0.83653,4.1683 3.00505,10.09109 7.16756,28.9206 8.90996,40.30731 0.28556,1.86382 0.19477,1.82084 -1.46558,-0.69812 l -1.76903,-2.68366 -1.60925,3.47791 c -3.1818,6.87636 -13.4925,25.62426 -13.46952,24.49138 z m -4.41441,-44.02461 c 2.79544,-1.26251 7.86698,-5.59808 8.32115,-7.11352 0.15983,-0.52334 -1.92038,-2.50802 -4.74344,-4.53095 l -5.02286,-3.59899 -2.4185,3.91673 c -1.32986,2.15418 -2.6495,3.6134 -2.93195,3.24268 -1.0313,-1.35284 -3.56556,-8.69019 -3.93994,-11.40334 -0.361,-2.61282 -0.73918,-2.99649 -6.05626,-6.14072 l -5.67164,-3.35384 0.34182,6.38229 c 0.42451,7.92093 2.45937,13.66137 6.42949,18.13502 4.66476,5.25633 10.35528,6.87521 15.69248,4.46464 z m 84.93611,35.1143 c -2.91312,-5.3463 -6.33773,-11.83147 -7.6101,-14.41153 l -2.31348,-4.69116 -1.47354,2.30867 c -1.11275,1.74231 -1.47993,1.97597 -1.49592,0.95293 -0.0298,-2.24873 4.04791,-21.75034 6.99435,-33.39212 1.51987,-6.0064 2.64089,-10.92075 2.49036,-10.92075 -0.21055,0 -4.64371,4.16296 -10.65683,10.01123 -0.12786,0.1192 -1.001,5.86498 -1.95695,12.77265 -0.95629,6.90772 -1.7903,12.38075 -1.85513,12.16242 -0.0639,-0.22088 -0.58749,-5.82593 -1.16381,-12.46115 l -1.04733,-12.06415 8.5498,-12.95368 c 7.47503,-11.32527 8.54742,-13.30316 8.5308,-15.73411 -0.0128,-1.52924 -0.95471,-11.00082 -2.09777,-21.04786 -1.1431,-10.04703 -2.03009,-18.34232 -1.97055,-18.43401 0.37208,-0.57246 20.4533,30.41395 20.38213,31.44968 -0.0477,0.70415 -1.92346,6.96442 -4.16669,13.91144 -2.24354,6.9469 -3.99902,12.73331 -3.90116,12.85858 0.0959,0.12561 4.76249,-3.04875 10.36581,-7.05307 l 10.18808,-7.28083 16.01111,-2.0372 c 8.80617,-1.12045 16.01128,-1.79259 16.01128,-1.49391 0,0.29822 -3.22297,3.70888 -7.16215,7.57811 -4.98531,4.89701 -7.25553,7.63857 -7.46944,9.02105 -2.63706,17.03679 -5.75646,23.65496 -14.59711,30.96958 -3.94412,3.2634 -8.75094,5.02489 -16.37365,6.00042 -2.389,0.30762 -4.7829,0.84813 -5.32044,1.20509 -0.53801,0.35675 -1.89213,3.19102 -3.01063,6.29697 l -2.03329,5.6473 1.8677,10.08519 c 1.02658,5.5469 1.80356,10.1706 1.72518,10.27489 -0.0797,0.10681 -2.52611,-4.18454 -5.43936,-9.5308 z m 21.5357,-36.15443 c 3.07308,-2.02921 6.58932,-6.70426 8.26067,-10.98348 1.66227,-4.25588 2.97091,-13.26928 2.21702,-15.27029 -0.53638,-1.42602 -0.8621,-1.32758 -5.81421,1.76188 -5.08496,3.17179 -5.26712,3.3814 -5.95119,6.84606 -0.7679,3.89008 -3.00905,9.93463 -3.96326,10.68958 -0.32903,0.25976 -1.51825,-1.13174 -2.64583,-3.09198 -1.12712,-1.96064 -2.27116,-3.57841 -2.54338,-3.59545 -0.79983,-0.0508 -9.74269,6.41211 -9.74269,7.04033 0,1.25837 3.59992,4.8563 6.8248,6.82065 2.82468,1.72052 4.05698,2.02117 7.15337,1.74423 2.07493,-0.18585 4.8378,-1.05906 6.20441,-1.96123 z m -73.63859,25.41897 c 1.54856,-2.78496 13.58222,-17.64946 14.28738,-17.64946 1.32667,0 15.49079,17.4848 15.56743,19.21741 0.0128,0.30463 -2.27896,-1.06029 -5.09421,-3.03238 -2.81526,-1.97183 -6.3171,-4.29925 -7.78173,-5.17177 l -2.6631,-1.58654 -7.7897,5.24727 c -7.08739,4.77414 -7.67569,5.04236 -6.5259,2.97564 z m -83.17614,55.86373 c 4.86256,-1.61029 14.18522,-3.40152 21.04415,-4.04329 l 5.70821,-0.53401 0.70564,-4.35005 c 0.38785,-2.39267 0.61144,-4.45114 0.49649,-4.57462 -0.11166,-0.12261 -7.04954,-7.12005 -15.40998,-15.54804 -8.36061,-8.42786 -15.36629,-15.64439 -15.56827,-16.0366 -0.20117,-0.39222 -1.29633,-5.87643 -2.43239,-12.18716 -1.13509,-6.31068 -2.29686,-11.47395 -2.57973,-11.47395 -0.28258,0 -0.51568,0.32299 -0.51568,0.71721 0,0.39478 -5.7357,12.94685 -12.74582,27.89354 -7.01028,14.94683 -12.66407,27.47933 -12.56399,27.85014 0.31625,1.16898 6.36645,10.95502 6.80357,11.00291 0.22845,0.0256 2.96835,-6.29833 6.08643,-14.05204 3.11791,-7.75371 5.89882,-14.395 6.17935,-14.75845 0.27959,-0.36316 1.20055,1.95965 2.04539,5.1625 5.01728,19.02989 7.50201,26.93997 8.3341,26.53118 0.47574,-0.23413 2.46065,-0.95315 4.41206,-1.5997 z m 205.09595,-14.02521 c 2.27022,-8.12499 4.12786,-15.18365 4.12786,-15.68605 0,-2.61475 1.51348,0.33795 6.55245,12.78714 3.05023,7.5353 5.63639,14.14732 5.7467,14.69325 0.36569,1.80738 1.1223,1.04748 4.66923,-4.69176 l 3.51352,-5.68455 -1.16701,-2.45646 c -4.56021,-9.59325 -24.2491,-51.37584 -24.7782,-52.58251 -0.81739,-1.86378 -0.71361,-2.23942 -3.21624,11.71808 l -1.94199,10.83424 -15.79843,16.07984 c -11.31315,11.5145 -15.71574,16.44355 -15.5066,17.36098 0.15983,0.70478 0.47254,2.59069 0.69447,4.19107 l 0.40234,2.90993 5.99028,0.52602 c 7.34895,0.64519 15.72981,2.28368 21.5014,4.20308 2.38883,0.79421 4.50974,1.24773 4.71347,1.00736 0.20458,-0.24054 2.2279,-7.08468 4.49824,-15.20971 z M 142.14492,246.74235 c 0.53481,-1.85642 2.18352,-7.60455 3.66533,-12.77346 l 2.69426,-9.39805 -7.03569,-26.66166 c -3.86971,-14.66395 -6.94742,-26.7748 -6.83951,-26.91301 0.11167,-0.13843 1.99672,0.44967 4.19716,1.30609 2.20058,0.85641 4.21119,1.56026 4.46841,1.56312 0.257,0.003 -3.18628,-9.37583 -7.65225,-20.84248 l -8.12018,-20.84863 3.11744,3.97116 c 4.65069,5.92493 39.74534,53.15174 39.60661,53.29884 -0.0639,0.0701 -4.72639,-0.73264 -10.35686,-1.78302 -5.63064,-1.0503 -10.607,-1.81315 -11.059,-1.69455 -0.45178,0.1192 5.20788,6.96339 12.57725,15.21087 7.3695,8.2476 13.52378,15.25388 13.67624,15.56966 0.15983,0.31403 -3.8322,0.41016 -8.85472,0.21149 l -9.13184,-0.36273 5.89421,7.80168 c 3.24194,4.29092 5.93138,7.92008 5.9769,8.06479 0.16579,0.5232 18.84068,-18.93137 18.84068,-19.62586 0,-0.39221 -1.90747,-5.47721 -4.2385,-11.30023 -10.70951,-26.75083 -24.42965,-50.10112 -44.24947,-75.30707 -6.5328,-8.3081 -20.92665,-24.63138 -21.71996,-24.63138 -0.14363,0 1.57733,19.03181 3.82598,42.29289 l 4.08937,42.29289 6.08149,12.18289 6.08161,12.18284 -1.53423,2.11316 c -0.84292,1.16245 -1.99463,3.04455 -2.55753,4.18304 -0.99303,2.00835 -2.85945,12.5342 -2.85945,16.12923 0,1.63814 9.05299,17.09916 10.0308,17.13095 0.22845,0.004 0.85093,-1.50536 1.38574,-3.36205 z m 233.16003,-3.97121 c 2.53059,-4.04059 4.76709,-7.70402 4.97001,-8.14083 0.50608,-1.09072 -1.0585,-12.20006 -2.21992,-15.76018 -0.52203,-1.59709 -1.67949,-4.13168 -2.57398,-5.63268 -1.91629,-3.21597 -2.31045,-1.89651 5.08189,-17.00077 l 5.18585,-10.59554 3.71997,-39.83828 c 2.04603,-21.91098 3.87866,-40.82107 4.07262,-42.02235 0.19478,-1.20095 0.15983,-2.18434 -0.0797,-2.18434 -0.84773,0 -13.12421,13.94292 -21.28301,24.17068 -19.75994,24.77089 -33.31517,47.75605 -44.57837,75.58973 -2.49321,6.16183 -4.53336,11.41585 -4.53336,11.67562 0,0.25976 3.14076,3.5884 6.97982,7.39695 3.83906,3.80861 8.10629,8.09478 9.48261,9.5249 l 2.50263,2.60035 5.82955,-7.98916 5.82938,-7.98921 -9.10759,0.30121 c -5.00909,0.16663 -9.10758,0.25977 -9.10758,0.21149 0,-0.0508 6.19528,-7.0232 13.76723,-15.49686 7.57195,-8.47358 13.36527,-15.50421 12.87402,-15.62359 -0.49172,-0.1192 -5.43778,0.62468 -10.99272,1.65417 -5.55478,1.02915 -10.0219,1.59491 -9.92707,1.25709 0.42152,-1.50028 42.06628,-56.7838 42.02413,-55.78742 -0.0128,0.36871 -3.58678,9.69516 -7.9361,20.72503 -4.34911,11.02992 -7.7565,20.05169 -7.57195,20.04836 0.1854,-0.003 2.13613,-0.70675 4.33636,-1.56317 2.20028,-0.85637 4.12245,-1.40132 4.27107,-1.21124 0.14363,0.18927 -2.8783,12.28944 -6.7266,26.88686 l -6.99721,26.54067 3.62225,12.79961 c 1.99207,7.03978 3.81656,12.79966 4.05408,12.79966 0.23783,0 2.50285,-3.30599 5.03326,-7.34667 z"
       id="path1" />
  </g>
</svg>
