<?xml version="1.0" encoding="UTF-8" standalone="no"?>
<!-- Created with Inkscape (http://www.inkscape.org/) -->

<svg
   width="400"
   height="400"
   viewBox="0 0 400 400"
   version="1.1"
   id="svg1"
   xml:space="preserve"
   xmlns="http://www.w3.org/2000/svg"
   xmlns:svg="http://www.w3.org/2000/svg"><defs
     id="defs1" /><g
     id="layer1"><path
       style="fill:#999999;stroke-width:0.508337"
       d="m 137.22473,368.4897 c -15.82797,-24.92253 -14.42478,-22.47742 -13.42999,-23.40193 1.16171,-1.07959 11.63827,-7.80166 11.77226,-7.5534 0.0581,0.10782 1.00569,2.86828 2.1056,6.13442 1.09988,3.26615 2.7004,7.84725 3.55671,10.18021 l 1.55698,4.24175 1.98248,-7.00325 c 2.22062,-7.8445 3.99842,-11.42549 8.04311,-16.20104 l 2.74884,-3.24557 -0.99116,-2.89372 c -0.54511,-1.59155 -1.13571,-3.08635 -1.31243,-3.32175 -0.44818,-0.59703 -8.0581,2.59929 -13.47061,5.65791 -9.58802,5.41822 -18.05412,12.31263 -27.23432,22.17831 -3.32525,3.57357 -3.37999,3.60748 -1.84796,1.14525 0.86833,-1.39556 3.38035,-4.83538 5.58229,-7.64404 l 4.00349,-5.10667 -5.23204,-8.18415 c -2.87759,-4.50129 -5.23542,-8.35305 -5.23959,-8.5595 -0.0144,-0.69841 17.25588,-7.19793 19.26797,-7.25146 0.17285,-0.005 1.18397,2.77233 2.2469,6.17093 l 1.93258,6.17929 4.14974,-2.6081 c 2.28231,-1.43445 6.41135,-3.67932 9.17558,-4.98858 3.1929,-1.5123 4.99646,-2.66005 4.94524,-3.14702 -0.0443,-0.42158 -0.32691,-2.38237 -0.62792,-4.3573 l -0.54728,-3.59076 -4.62641,0.36824 c -15.47676,1.23191 -26.15287,4.88084 -41.02406,14.02141 -3.68461,2.26472 -6.622235,3.96348 -6.52816,3.77499 0.09408,-0.18848 2.13216,-2.06339 4.529,-4.16645 2.3968,-2.10307 4.35785,-3.9203 4.35785,-4.03828 0,-0.11804 -3.23826,-5.35812 -7.196146,-11.64476 -3.957889,-6.28664 -7.163901,-11.57185 -7.124425,-11.74492 0.03925,-0.17307 2.357465,-13.29444 5.151122,-29.15859 2.793609,-15.86415 5.935429,-33.58245 6.981829,-39.37401 l 1.90257,-10.53012 3.31886,-3.32628 c 1.82541,-1.82946 3.32874,-3.49614 3.34085,-3.70374 0.0211,-0.36308 -1.28754,-2.53532 -8.58595,-14.25208 l -3.3535,-5.38371 1.47879,-11.02845 1.47881,-11.02843 -3.2147,-6.39494 -3.214686,-6.39492 -1.653477,-18.09815 C 95.470002,129.26237 94.17991,115.43378 93.51247,108.48615 L 92.298994,95.854108 89.74667,93.100595 c -7.031215,-7.585413 -20.672013,-18.52906 -33.5301,-26.900311 -4.070923,-2.650393 -6.990498,-4.687581 -6.487906,-4.527085 0.502578,0.160496 3.483851,1.084112 6.625021,2.052482 6.746106,2.079697 19.251875,7.15971 23.512779,9.55121 1.657171,0.930108 2.894311,1.453342 2.749245,1.162743 C 82.138526,73.483876 73.131685,64.555679 67.830837,59.783786 56.052458,49.180842 43.586801,39.950467 27.569074,29.971397 21.412364,26.135754 16.525978,22.996358 16.710477,22.99493 c 0.87742,-0.0075 12.09995,3.072465 16.569838,4.54643 20.099413,6.627908 38.56676,17.080391 54.272828,30.718308 2.710274,2.353398 4.780349,3.970551 4.60015,3.593669 -2.296432,-4.803501 -13.100892,-20.346322 -19.05263,-27.408259 -2.162822,-2.566273 -3.81428,-4.66593 -3.669951,-4.66593 0.505926,0 8.663296,6.410802 12.50929,9.83088 14.79529,13.156916 26.946098,29.298423 35.817828,47.581478 2.60327,5.364838 3.39115,6.493433 7.19721,10.309703 15.94257,15.985211 31.43445,35.720121 42.87573,54.618811 2.87436,4.74787 3.50989,5.50498 4.39125,5.23116 2.81943,-0.87594 28.9972,-5.97289 30.68196,-5.97395 1.70415,-0.001 28.09778,5.10017 30.91223,5.97456 0.93889,0.29169 1.61778,-0.55119 5.57527,-6.92216 11.92257,-19.19362 26.54224,-37.67611 41.8827,-52.94907 3.46723,-3.45192 4.68632,-5.087654 6.27655,-8.421338 10.83413,-22.712234 25.43994,-41.061843 44.46871,-55.867019 2.47302,-1.924129 4.58947,-3.383237 4.7032,-3.24249 0.1137,0.140747 -1.08729,1.663642 -2.66884,3.38417 -4.64338,5.051345 -15.50112,20.329831 -19.55171,27.512173 -1.25167,2.21945 -1.1449,2.15346 4.12817,-2.551147 13.85459,-12.361023 32.91905,-23.405185 51.72898,-29.966884 5.03918,-1.757895 18.58823,-5.441648 19.15478,-5.207882 0.23376,0.09639 -1.38513,1.172953 -3.59758,2.392219 -4.88396,2.691607 -18.61276,11.53828 -25.23121,16.25878 -10.97996,7.831264 -27.74676,22.368867 -35.26322,30.574882 l -2.46798,2.694406 3.88364,-2.027422 c 5.7821,-3.018493 14.87055,-6.708936 22.84494,-9.276377 3.89506,-1.254061 7.27634,-2.281373 7.51398,-2.282923 0.23762,-0.0017 -2.33243,1.743117 -5.71124,3.877035 -7.80881,4.931733 -13.89736,9.271752 -20.53559,14.63819 -5.92187,4.787287 -14.81119,12.949379 -16.27542,14.943947 -0.85988,1.171301 -1.15865,3.427635 -2.64622,19.98409 -0.92235,10.26504 -2.19352,24.1044 -2.82492,30.75416 l -1.148,12.09044 -3.17773,6.17259 -3.17772,6.1726 1.37493,10.10208 c 0.75622,5.55616 1.37495,10.61546 1.37495,11.24291 0,0.62744 -2.11635,4.53321 -4.703,8.67951 -2.58663,4.14628 -5.19401,8.40633 -5.7941,9.46679 l -1.09117,1.92809 3.29309,3.72758 3.29306,3.72757 2.46127,13.85638 c 1.35374,7.62101 4.44796,25.14754 6.87614,38.94782 2.42813,13.80029 4.50725,25.38965 4.62024,25.75417 0.11298,0.36449 -3.10234,5.8419 -7.14525,12.17203 -4.04291,6.33011 -7.18354,11.68949 -6.97922,11.90974 0.20432,0.22025 1.95584,1.73645 3.89233,3.36937 5.32355,4.48908 5.20827,5.00986 -0.34391,1.55326 -15.02549,-9.35439 -25.08716,-13.07369 -39.2719,-14.51686 -8.60049,-0.87502 -7.72434,-1.26252 -8.4,3.71515 -0.32038,2.35998 -0.51464,4.35376 -0.43177,4.43063 0.0828,0.0768 2.10393,0.99928 4.49122,2.04981 2.38732,1.05055 6.46349,3.22691 9.05816,4.83641 4.00344,2.4833 4.75742,2.78631 4.98011,2.00142 0.59904,-2.11116 3.45224,-11.12022 3.57898,-11.30091 0.29547,-0.42111 7.13373,1.7971 13.13473,4.2607 4.43741,1.82167 6.24009,2.80844 6.07913,3.32764 -0.12582,0.40594 -2.4259,4.21228 -5.11118,8.45853 l -4.88242,7.72044 2.50289,3.20177 c 2.8563,3.6539 8.12529,11.27329 8.12529,11.74988 0,0.17511 -1.36297,-1.22757 -3.02877,-3.11705 -9.92187,-11.2539 -23.70664,-21.47841 -35.59794,-26.40386 -2.67551,-1.10822 -4.92583,-1.93279 -5.00076,-1.83241 -0.0749,0.10045 -0.66931,1.55822 -1.32079,3.23964 l -1.18452,3.05711 3.31233,4.03416 c 3.73624,4.55045 5.91045,9.13498 8.02325,16.91766 0.73985,2.72535 1.42872,5.05857 1.53079,5.18489 0.10201,0.12631 1.8079,-4.34251 3.7908,-9.93077 1.98289,-5.58826 3.70672,-10.16048 3.83077,-10.16048 0.60781,0 11.93789,8.05592 11.93789,8.48809 0,0.27447 -2.39968,4.26692 -5.33265,8.87211 -2.93296,4.6052 -8.20644,12.89512 -11.71884,18.42205 -3.51247,5.52693 -6.46427,9.95241 -6.55958,9.83441 -0.0954,-0.11804 -1.19858,-5.02178 -2.45171,-10.89731 -3.91362,-18.34994 -5.77602,-24.19655 -8.90262,-27.9477 l -1.54606,-1.85491 -3.08452,1.70655 -3.08452,1.70655 -4.58877,10.61223 c -2.52383,5.83674 -4.99998,10.93745 -5.50257,11.33494 -0.50254,0.39747 -6.79371,3.17038 -13.98038,6.16203 l -13.06657,5.43934 -13.63193,-5.65998 c -7.49757,-3.11298 -13.83028,-5.90547 -14.07267,-6.2055 -0.24237,-0.30005 -2.43256,-5.20328 -4.867,-10.89608 l -4.42635,-10.35053 -3.01096,-1.93033 c -2.91939,-1.8716 -3.04691,-1.90121 -4.1909,-0.97336 -3.20616,2.60039 -6.01489,11.1558 -9.91177,30.19102 -1.09834,5.36511 -2.09977,9.75072 -2.22542,9.74577 -0.12567,-0.005 -4.44334,-6.64571 -9.59488,-14.75725 z m 76.67808,-5.61247 c 5.41815,-2.18887 10.13741,-4.2739 10.48731,-4.63337 0.70312,-0.72231 3.9136,-8.34901 3.65131,-8.67374 -0.0906,-0.11217 -1.23929,0.14692 -2.5526,0.5757 -2.36491,0.77223 -2.42592,0.75922 -6.37534,-1.36006 -2.19318,-1.17686 -6.69134,-3.34001 -9.99601,-4.80699 l -6.00844,-2.66727 -4.72866,2.08832 c -2.60076,1.14858 -6.99031,3.22965 -9.75455,4.62463 -5.12006,2.58383 -6.1755,2.74572 -9.7828,1.50064 -1.05329,-0.36355 -1.01236,-0.17167 0.93157,4.36615 l 2.0333,4.74641 10.03398,4.06539 c 5.5187,2.23597 10.52357,4.08533 11.12192,4.10969 0.59834,0.0244 5.52093,-1.7466 10.93901,-3.9355 z m -26.71502,-23.67914 c 2.80124,-1.52569 6.52702,-3.51817 8.2794,-4.4277 3.49043,-1.81159 3.76895,-2.32061 3.8502,-7.03609 0.0443,-2.58416 -0.0265,-2.72285 -3.15275,-6.16218 -1.75905,-1.93519 -3.19828,-3.76286 -3.19828,-4.0615 0,-0.29863 0.51401,-1.29913 1.14225,-2.22332 1.80995,-2.66261 1.27415,-5.66182 -1.4015,-7.84513 -1.27269,-1.0385 -3.84749,-1.4845 -4.42721,-0.76687 -0.14835,0.18364 0.0219,1.35736 0.37849,2.60827 l 0.64825,2.27436 -1.25418,-0.99799 c -4.60344,-3.66291 -6.38886,-6.79099 -7.64734,-13.3982 -1.01875,-5.34865 -0.87419,-6.78673 1.48144,-14.73785 l 2.17027,-7.32545 0.31052,5.31225 c 0.30506,5.21822 1.61339,15.77548 2.01698,16.27502 0.11297,0.13985 1.13169,-0.30265 2.26375,-0.98344 1.13201,-0.6808 2.53885,-1.2378 3.12628,-1.2378 0.58743,0 3.25759,1.01802 5.93364,2.26227 2.67605,1.24424 5.15669,2.26226 5.51253,2.26226 0.35583,0 2.75724,-1.01802 5.33653,-2.26226 5.32886,-2.57064 6.23455,-2.68178 9.03564,-1.10867 1.10542,0.62082 2.11951,0.99302 2.25357,0.8271 0.51875,-0.64215 1.86358,-12.67046 1.89717,-16.96823 0.042,-5.37374 0.14625,-5.22563 2.93845,4.17261 1.97198,6.63745 2.02649,6.99219 1.58973,10.34884 -0.51035,3.92297 -1.8566,8.99666 -2.92039,11.00633 -0.73607,1.39059 -5.66848,6.42577 -6.29522,6.4264 -0.19491,1.9e-4 -0.0261,-0.78613 0.37577,-1.74739 0.98283,-2.35267 0.58528,-3.34236 -1.34266,-3.34236 -1.77551,0 -4.20812,2.16224 -4.87488,4.33301 -0.47681,1.55242 0.12192,3.87311 1.45335,5.63274 l 0.90753,1.19944 -3.50285,3.95624 -3.50291,3.95624 0.32764,3.49447 c 0.25207,2.68842 0.55391,3.67136 1.30842,4.2613 0.53947,0.42176 4.45139,2.60412 8.69324,4.84971 l 7.71242,4.0829 4.47934,-1.81602 c 6.52811,-2.6466 6.79157,-3.04042 2.78329,-4.16089 -3.62893,-1.01443 -9.79294,-4.01362 -10.54052,-5.12865 -0.38525,-0.57457 0.0847,-0.61484 2.36728,-0.20291 3.99576,0.7211 10.52548,0.15378 14.08171,-1.22345 2.9702,-1.15026 5.91753,-3.18647 6.20618,-4.28763 0.0942,-0.35938 -2.47487,-0.5851 -7.04669,-0.61916 -4.57932,-0.0341 -8.27462,-0.35928 -10.1648,-0.89445 l -2.96984,-0.84083 3.42674,-0.73207 c 8.23048,-1.75828 18.24103,-6.21323 20.30489,-9.03617 0.84973,-1.16221 0.84467,-1.16815 -0.99553,-1.16815 -1.5961,0 -4.64594,0.35415 -17.25333,2.00342 -2.10533,0.2754 -1.53892,-0.16992 7.22211,-5.67836 8.77437,-5.51678 9.48225,-6.07378 9.1901,-7.23097 -0.17412,-0.68957 -1.79895,-6.53476 -3.61072,-12.98929 -1.81179,-6.45453 -3.18853,-11.73552 -3.0594,-11.73552 0.27907,0 10.52036,6.90555 12.04463,8.1215 1.01645,0.81087 1.4008,0.54439 9.73931,-6.75284 8.21951,-7.19312 8.72274,-7.73966 9.46496,-10.2799 0.43113,-1.47559 2.77657,-11.27474 5.21208,-21.77591 2.4355,-10.50119 4.4734,-19.02711 4.52863,-18.9465 0.0553,0.0806 4.5461,11.05424 9.97976,24.38586 5.43368,13.3316 9.87939,23.96705 9.87939,23.63431 0,-0.33274 -0.39705,-2.7145 -0.88231,-5.29281 -0.48528,-2.5783 -2.33676,-12.95925 -4.11443,-23.06875 -1.77761,-10.10951 -3.32777,-18.90447 -3.44478,-19.54437 -0.22306,-1.21976 -1.49917,-2.51179 -23.99828,-24.29658 -7.66449,-7.42114 -17.63629,-17.08236 -22.15959,-21.4694 -12.11678,-11.75171 -11.82737,-11.49559 -11.50054,-10.17837 0.3958,1.59536 3.05162,19.68154 2.91491,19.85075 -0.0626,0.0776 -2.97902,-5.21683 -6.48083,-11.76525 -3.5018,-6.54841 -6.78732,-12.11522 -7.30115,-12.37069 -0.51383,-0.25546 -4.32669,-1.12306 -8.47307,-1.92799 -4.14635,-0.80494 -7.91891,-1.56741 -8.38344,-1.6944 -0.73273,-0.20029 -0.8062,0.0226 -0.55455,1.68301 0.15955,1.05263 1.90833,7.3867 3.88621,14.07572 l 3.59619,12.16183 -2.2403,10.34669 c -1.23216,5.69067 -3.44469,15.93491 -4.91677,22.76494 -2.54307,11.79937 -2.70138,12.32083 -3.17651,10.463 -0.96277,-3.7644 -9.2281,-42.83883 -9.22308,-43.60208 0.004,-0.4239 0.84778,-3.57029 1.87771,-6.99196 2.50156,-8.31083 5.93425,-20.77011 5.77624,-20.96567 -0.12365,-0.15303 -15.60472,2.86935 -17.54352,3.42503 -0.66017,0.18922 -3.06327,4.2072 -7.44306,12.44483 -3.55746,6.69097 -6.53145,12.1654 -6.6089,12.1654 -0.0775,0 0.54384,-4.51747 1.3807,-10.03881 0.83682,-5.52136 1.47392,-10.21594 1.41576,-10.43241 -0.0582,-0.21646 -6.30625,5.63715 -13.8846,13.00805 -7.57835,7.37089 -20.44924,19.88257 -28.60191,27.80371 l -14.82306,14.40209 -1.70553,9.63451 c -0.93804,5.29898 -2.92153,16.4856 -4.40783,24.85916 -1.48629,8.37355 -2.65147,15.27884 -2.58929,15.3451 0.0622,0.0662 4.53293,-10.79332 9.93508,-24.13235 5.40214,-13.33901 9.92543,-24.25261 10.05176,-24.25241 0.1264,1.9e-4 2.38379,9.35326 5.01648,20.78458 3.86316,16.77392 5.00926,21.06033 5.93968,22.21516 1.51056,1.87478 16.22987,14.68774 16.87308,14.68774 0.27305,0 3.25363,-1.9088 6.62344,-4.24177 3.36985,-2.33296 6.27103,-4.24175 6.44711,-4.24175 0.17609,0 0.17541,0.44539 0,0.98974 -0.17686,0.54436 -1.83709,6.39691 -3.68945,13.00566 l -3.36789,12.01592 9.37455,5.72412 c 5.15604,3.14828 9.29565,5.82186 9.19915,5.94131 -0.0965,0.1194 -3.85901,-0.28982 -8.36115,-0.90947 -8.94713,-1.23145 -12.06939,-1.3986 -12.06939,-0.64614 0,0.81543 3.23293,3.19075 6.62502,4.86763 2.92969,1.44827 11.08263,4.15442 15.53456,5.15626 l 1.82759,0.41127 -2.51294,0.80069 c -1.57726,0.50257 -5.2807,0.83763 -9.94631,0.89985 -8.50394,0.11338 -9.125,0.57762 -4.53541,3.38984 4.38098,2.68437 12.11878,3.86008 17.79423,2.70371 1.19366,-0.24321 2.17027,-0.26572 2.17027,-0.0501 0,0.97046 -8.75783,5.16233 -12.48462,5.97566 -0.96113,0.20975 -1.57794,0.57141 -1.37069,0.80368 0.39718,0.44513 7.95223,3.74412 9.51478,4.15472 0.50259,0.13202 0.98629,0.26964 1.0749,0.30573 0.0886,0.0361 2.45304,-1.18269 5.25433,-2.7084 z m -15.67843,-55.50337 c 0.0101,-0.4534 0.60196,-3.83467 1.31659,-7.51391 l 1.29938,-6.68953 -1.59032,-4.05624 c -0.8747,-2.23093 -1.65631,-4.14191 -1.73691,-4.24662 -0.0806,-0.10466 -2.44108,-0.56123 -5.24538,-1.01449 -6.12464,-0.98992 -9.15492,-2.30951 -12.66769,-5.51637 -3.40331,-3.10693 -5.48648,-6.08341 -6.75378,-9.64987 -1.01552,-2.85801 -2.50993,-9.50396 -2.50993,-11.16219 0,-0.48367 -2.57189,-3.37077 -5.71525,-6.4158 -3.14339,-3.04502 -5.66204,-5.58624 -5.59702,-5.64716 0.0651,-0.0609 5.5796,0.57308 12.25457,1.40889 l 12.13633,1.51964 7.28187,5.11329 c 4.00504,2.81229 7.33391,4.95193 7.39756,4.75477 0.0636,-0.19718 -1.22139,-4.39448 -2.85563,-9.32734 -1.63423,-4.93285 -2.9713,-9.23076 -2.9713,-9.5509 0,-0.32014 0.76581,-1.75357 1.70177,-3.18538 3.25059,-4.9726 13.37588,-19.3163 13.37588,-18.94857 0,0.20344 -0.73283,6.71225 -1.62853,14.46403 -0.89565,7.75179 -1.56387,14.44205 -1.48492,14.86723 0.0789,0.42521 2.974,4.87109 6.43341,9.87973 l 6.28984,9.10664 -0.7838,9.0218 c -0.43109,4.96198 -0.84115,8.95079 -0.91129,8.86401 -0.0701,-0.0868 -0.65232,-3.93278 -1.29384,-8.5467 -0.64153,-4.61391 -1.32925,-8.74904 -1.52824,-9.18916 -0.38288,-0.8469 -7.39513,-7.51741 -7.90433,-7.51914 -0.16436,-5.5e-4 0.11268,1.33515 0.61567,2.96822 2.21312,7.18583 5.27826,20.59415 6.56137,28.70252 0.21,1.32718 0.14386,1.2967 -1.0791,-0.49707 l -1.30281,-1.911 -1.18505,2.47656 c -2.34298,4.89657 -9.93598,18.2468 -9.91912,17.44011 z m -3.25074,-31.34962 c 2.05842,-0.89897 5.79318,-3.98631 6.12772,-5.06546 0.11558,-0.37298 -1.41419,-1.786 -3.49311,-3.22645 l -3.69886,-2.56284 -1.78105,2.78907 c -0.97954,1.534 -1.95118,2.57309 -2.15917,2.30908 -0.7589,-0.96332 -2.62579,-6.18819 -2.90144,-8.12023 -0.26545,-1.86046 -0.54424,-2.13384 -4.45987,-4.37275 l -4.17679,-2.38822 0.25167,4.54479 c 0.31233,5.64039 1.81105,9.72813 4.73478,12.91377 3.4352,3.74298 7.62565,4.89583 11.55612,3.17924 z m 62.54763,25.00465 c -2.14523,-3.80703 -4.66708,-8.4251 -5.60413,-10.26239 l -1.70368,-3.3405 -1.08574,1.64381 c -0.81934,1.24048 -1.08979,1.40694 -1.10222,0.6784 -0.0274,-1.60105 2.9809,-15.48815 5.15071,-23.77815 1.11946,-4.2771 1.94475,-7.77654 1.8339,-7.77654 -0.15626,0 -3.41961,2.96442 -7.84778,7.12888 -0.0887,0.0835 -0.73729,4.1764 -1.44111,9.09533 -0.7038,4.91893 -1.31851,8.81627 -1.36603,8.66072 -0.0475,-0.15553 -0.43327,-4.14858 -0.8572,-8.87344 l -0.77079,-8.59067 6.29613,-9.22422 c 5.50467,-8.06467 6.29437,-9.4731 6.28221,-11.20417 -0.007,-1.08899 -0.70285,-7.83358 -1.54481,-14.988 -0.84193,-7.15443 -1.49503,-13.06146 -1.45121,-13.12673 0.27337,-0.40764 15.06193,21.65752 15.00963,22.39505 -0.0356,0.50154 -1.41634,4.95933 -3.06845,9.90621 -1.65209,4.9469 -2.94488,9.06731 -2.87284,9.15651 0.072,0.0892 3.50715,-2.1709 7.63355,-5.02244 l 7.5025,-5.1846 11.79083,-1.45068 c 6.48495,-0.79786 11.79082,-1.2766 11.79082,-1.06384 0,0.21275 -2.37341,2.6411 -5.27426,5.39634 -3.67132,3.4871 -5.34302,5.43933 -5.5006,6.42381 -1.94189,12.13172 -4.23907,16.84451 -10.74947,22.05318 -2.9045,2.32377 -6.44427,3.57814 -12.05773,4.27285 -1.75907,0.21769 -3.52215,0.60396 -3.91791,0.85839 -0.39582,0.25443 -1.3935,2.27224 -2.2171,4.48401 l -1.49743,4.02143 1.37543,7.18159 c 0.7565,3.94988 1.32812,7.24238 1.27032,7.31666 -0.0579,0.0743 -1.8603,-2.97978 -4.00554,-6.7868 z m 15.85913,-25.7453 c 2.2632,-1.44508 4.85241,-4.77405 6.08324,-7.82128 1.22413,-3.03056 2.18781,-9.44894 1.63269,-10.87384 -0.39559,-1.01537 -0.63468,-0.94533 -4.2817,1.25455 -3.74446,2.25864 -3.87865,2.4079 -4.38238,4.87503 -0.5656,2.77013 -2.216,7.07444 -2.91866,7.612 -0.2418,0.185 -1.11858,-0.80584 -1.94836,-2.20185 -0.82973,-1.39601 -1.67252,-2.54812 -1.87282,-2.56026 -0.58918,-0.0356 -7.17464,4.56601 -7.17464,5.01335 0,0.89616 2.65102,3.45809 5.02588,4.85693 2.07999,1.22516 2.98757,1.43914 5.26777,1.24196 1.52815,-0.13218 3.56267,-0.75404 4.56898,-1.39659 z m -54.22816,18.10066 c 1.14066,-1.98291 10.00206,-12.56807 10.52142,-12.56807 0.97721,0 11.40756,12.45081 11.46395,13.68462 0.0101,0.21657 -1.67824,-0.75514 -3.75142,-2.15936 -2.07317,-1.40422 -4.65196,-3.06149 -5.73056,-3.68283 l -1.96114,-1.12971 -5.73642,3.73652 c -5.21918,3.39963 -5.6525,3.59066 -4.80583,2.11883 z m -61.25173,39.78012 c 3.5809,-1.14679 10.44612,-2.42228 15.49718,-2.87921 l 4.20361,-0.38029 0.51954,-3.09764 c 0.28569,-1.70371 0.45013,-3.1696 0.36534,-3.25754 -0.0847,-0.088 -5.19142,-5.07017 -11.34814,-11.07163 -6.15671,-6.00147 -11.31573,-11.14027 -11.4645,-11.41958 -0.14876,-0.2793 -0.95483,-4.18456 -1.79117,-8.67835 -0.8364,-4.4938 -1.69131,-8.17054 -1.89979,-8.17054 -0.20854,0 -0.3791,0.22994 -0.3791,0.511 0,0.28104 -4.22379,9.21929 -9.3862,19.86278 -5.1624,10.64348 -9.32588,19.56782 -9.2522,19.83186 0.23239,0.83254 4.68839,7.80096 5.01017,7.83504 0.16892,0.0179 2.1859,-4.48495 4.48214,-10.00631 2.29623,-5.52134 4.344,-10.25056 4.55057,-10.50938 0.20661,-0.25882 0.88442,1.39547 1.50625,3.67617 3.69471,13.55107 5.52451,19.18372 6.13729,18.89263 0.35008,-0.16629 1.81215,-0.67885 3.24901,-1.13901 z m 151.0347,-9.98721 c 1.67185,-5.78574 3.03971,-10.81223 3.03971,-11.16994 0,-1.86185 1.11414,0.24061 4.8253,9.10561 2.24635,5.36581 4.15069,10.07416 4.23193,10.46299 0.26898,1.28721 0.82621,0.74577 3.43844,-3.34098 l 2.58741,-4.04794 -0.85983,-1.74912 c -3.35812,-6.8313 -17.85724,-36.58436 -18.24685,-37.4436 -0.60177,-1.32724 -0.52593,-1.59446 -2.3686,8.34433 l -1.43037,7.71499 -11.63419,11.45033 c -8.33109,8.19939 -11.5732,11.70934 -11.41924,12.36263 0.11832,0.50176 0.34835,1.84476 0.51133,2.98444 l 0.29624,2.07212 4.41131,0.37456 c 5.41185,0.45952 11.58364,1.62613 15.83379,2.99295 1.75907,0.56571 3.32107,0.88851 3.47111,0.71736 0.15005,-0.17115 1.64068,-5.04498 3.31251,-10.83073 z M 119.5885,197.61113 c 0.39338,-1.32201 1.60809,-5.41518 2.69926,-9.09591 l 1.98404,-6.69225 -5.18119,-18.98559 c -2.84963,-10.44208 -5.11612,-19.06613 -5.03658,-19.16454 0.0795,-0.0985 1.47035,0.32005 3.09079,0.92996 1.62039,0.60991 3.10114,1.11087 3.29058,1.11324 0.18939,0.003 -2.3465,-6.67644 -5.63529,-14.84181 l -5.97972,-14.84613 2.29556,2.82784 c 3.42491,4.21911 29.26888,37.84894 29.16677,37.95369 -0.0485,0.0498 -3.48062,-0.5216 -7.62698,-1.26967 -4.14636,-0.74808 -7.81108,-1.2911 -8.14389,-1.20672 -0.33281,0.0844 3.83516,4.95859 9.26207,10.83159 5.42696,5.87302 9.95902,10.86216 10.07127,11.08699 0.11226,0.22484 -2.82208,0.29234 -6.52071,0.15007 l -6.72478,-0.25879 4.34054,5.55553 c 2.3873,3.05555 4.36796,5.63985 4.40145,5.7429 0.12105,0.37257 13.87449,-13.48088 13.87449,-13.97545 0,-0.27919 -1.40459,-3.90024 -3.1213,-8.04679 -7.88651,-19.04912 -17.9903,-35.67666 -32.58574,-53.62562 -4.81078,-5.9161 -15.41058,-17.53982 -15.99478,-17.53982 -0.10663,0 1.16121,13.5524 2.81752,30.11644 l 3.01146,30.11643 4.47847,8.67534 4.47847,8.67534 -1.12954,1.50487 c -0.62124,0.82767 -1.46884,2.16809 -1.88347,2.97869 -0.73155,1.43013 -2.10576,8.92552 -2.10576,11.48552 0,1.16648 6.66675,12.17618 7.38682,12.19881 0.16768,0.005 0.62673,-1.07207 1.02017,-2.39408 z m 171.70131,-2.82784 c 1.86356,-2.87731 3.51059,-5.48599 3.66004,-5.79706 0.37328,-0.77677 -0.77916,-8.68754 -1.63488,-11.2227 -0.38384,-1.13722 -1.23678,-2.94217 -1.89536,-4.01099 -1.41112,-2.29009 -1.70158,-1.35056 3.74237,-12.10614 l 3.81885,-7.54497 2.73942,-28.36852 c 1.50673,-15.60269 2.85631,-29.068406 2.99914,-29.923826 0.14284,-0.855421 0.11586,-1.555309 -0.06,-1.555309 -0.62381,0 -9.66483,9.928655 -15.673,17.211715 -14.55139,17.63919 -24.53362,34.00674 -32.82785,53.82686 -1.83618,4.38782 -3.33852,8.12918 -3.33852,8.31415 0,0.18496 2.31305,2.55525 5.14011,5.26731 2.82708,2.71207 5.96944,5.76424 6.98307,6.78262 l 1.84295,1.85159 4.29288,-5.68904 4.29288,-5.68903 -6.70695,0.21467 c -3.68882,0.11804 -6.70694,0.18575 -6.70694,0.1504 0,-0.0353 4.56221,-5.00118 10.1383,-11.03517 5.57608,-6.03399 9.84236,-11.04045 9.48064,-11.12546 -0.36173,-0.085 -4.00453,0.44506 -8.09519,1.17792 -4.09061,0.73285 -7.38028,1.13567 -7.31038,0.89517 0.31061,-1.06837 30.97795,-40.43535 30.94693,-39.72585 -0.0115,0.26268 -2.64138,6.90386 -5.84414,14.75817 -3.20281,7.85431 -5.71207,14.27862 -5.57613,14.27624 0.13591,-0.001 1.57292,-0.50333 3.19335,-1.11324 1.6204,-0.60991 3.03582,-0.99799 3.14535,-0.8624 0.10951,0.13563 -2.11961,8.75123 -4.95361,19.1459 l -5.15281,18.89939 2.66742,9.11455 c 1.4671,5.013 2.81056,9.11456 2.98556,9.11456 0.17499,0 1.84289,-2.35418 3.70645,-5.23151 z"
       id="path1" /></g></svg>
