<?xml version="1.0" encoding="UTF-8" standalone="no"?>
<!-- Created with Inkscape (http://www.inkscape.org/) -->

<svg
   width="353.44077"
   height="93.665192"
   viewBox="0 0 353.44077 93.665192"
   version="1.1"
   id="svg1"
   xml:space="preserve"
   xmlns="http://www.w3.org/2000/svg"
   xmlns:svg="http://www.w3.org/2000/svg"><defs
     id="defs1"><rect
       x="459.45651"
       y="361.14938"
       width="224.5542"
       height="77.610901"
       id="rect1" /></defs><g
     id="layer1"
     transform="translate(-316.89542,-279.62057)"><g
       id="layer1-0"
       style="fill:#b3b3b3"
       transform="matrix(1.2079332,0,0,1.0705826,21.648324,-208.00604)"><path
         style="fill:#b3b3b3;stroke-width:0.134949"
         d="m 279.39708,539.38384 c -4.59314,-6.05262 -4.18595,-5.45881 -3.89727,-5.68333 0.33712,-0.26219 3.37733,-1.89469 3.41622,-1.8344 0.0169,0.0262 0.29183,0.69658 0.61101,1.48979 0.31918,0.79321 0.78364,1.90576 1.03214,2.47234 l 0.45182,1.03015 0.5753,-1.7008 c 0.6444,-1.90509 1.16031,-2.77476 2.33404,-3.93454 l 0.79769,-0.78821 -0.28762,-0.70277 c -0.15819,-0.38652 -0.32957,-0.74953 -0.38086,-0.80671 -0.13006,-0.14499 -2.33839,0.63126 -3.90906,1.37407 -2.78236,1.31586 -5.23916,2.99021 -7.90317,5.38617 -0.96497,0.86787 -0.98085,0.8761 -0.53627,0.27813 0.25198,-0.33892 0.98095,-1.17431 1.61994,-1.85641 l 1.16177,-1.24019 -1.51829,-1.98759 c -0.83506,-1.09317 -1.51927,-2.0286 -1.52048,-2.07873 -0.004,-0.16962 5.00751,-1.74808 5.5914,-1.76108 0.0502,-10e-4 0.34358,0.67328 0.65204,1.49866 l 0.56082,1.50068 1.20421,-0.63339 c 0.66231,-0.34837 1.86052,-0.89355 2.66268,-1.21152 0.92655,-0.36727 1.44993,-0.64601 1.43507,-0.76427 -0.0129,-0.10239 -0.0949,-0.57858 -0.18221,-1.0582 l -0.15882,-0.87205 -1.34255,0.0894 c -4.49122,0.29918 -7.58935,1.18535 -11.90485,3.40521 -1.06924,0.55 -1.92172,0.96256 -1.89442,0.91678 0.0273,-0.0457 0.61874,-0.50111 1.31428,-1.01185 0.69554,-0.51075 1.26462,-0.95207 1.26462,-0.98073 0,-0.0287 -0.93972,-1.30126 -2.08827,-2.82802 -1.14855,-1.52676 -2.0789,-2.81031 -2.06745,-2.85234 0.0114,-0.0421 0.68412,-3.22865 1.49482,-7.08138 0.81068,-3.85273 1.72241,-8.15576 2.02606,-9.56228 l 0.55212,-2.55731 0.9631,-0.80782 c 0.52972,-0.44429 0.96598,-0.84906 0.96949,-0.89948 0.006,-0.0882 -0.37363,-0.61572 -2.49158,-3.46122 l -0.97315,-1.30748 0.42914,-2.67834 0.42913,-2.67834 -0.93288,-1.55305 -0.93288,-1.55306 -0.47982,-4.39528 c -0.26389,-2.41739 -0.63827,-5.77577 -0.83195,-7.46305 l -0.35214,-3.06779 -0.74067,-0.66871 c -2.0404,-1.84217 -5.99885,-4.49992 -9.73016,-6.53294 -1.18135,-0.64367 -2.02859,-1.13842 -1.88274,-1.09944 0.14585,0.039 1.01099,0.26329 1.92253,0.49846 1.95767,0.50507 5.58674,1.73879 6.82322,2.31958 0.48089,0.22589 0.8399,0.35296 0.79781,0.28238 -0.13848,-0.23211 -2.75219,-2.40039 -4.29046,-3.55928 -3.41799,-2.575 -7.03542,-4.81667 -11.68363,-7.24016 -1.78663,-0.93151 -3.20462,-1.69395 -3.15108,-1.69429 0.25462,-0.002 3.51131,0.74617 4.80843,1.10414 5.83269,1.60963 11.19177,4.14809 15.74954,7.46017 0.7865,0.57154 1.38722,0.96428 1.33492,0.87275 -0.6664,-1.16657 -3.80176,-4.94126 -5.52891,-6.6563 -0.62763,-0.62324 -1.10687,-1.13316 -1.06499,-1.13316 0.14681,0 2.51402,1.55691 3.63009,2.3875 4.29347,3.19526 7.81954,7.11535 10.39405,11.55552 0.75545,1.30289 0.98408,1.57698 2.08856,2.50379 4.62641,3.88213 9.12203,8.6749 12.4422,13.26459 0.83411,1.15306 1.01854,1.33693 1.2743,1.27043 0.81817,-0.21273 8.41475,-1.45057 8.90366,-1.45082 0.49453,-2.7e-4 8.15374,1.23862 8.97047,1.45097 0.27246,0.0708 0.46947,-0.13387 1.6179,-1.6811 3.45984,-4.66132 7.70234,-9.14993 12.15402,-12.85908 1.00616,-0.83833 1.35993,-1.23558 1.8214,-2.04519 3.14398,-5.51583 7.38246,-9.97218 12.90446,-13.56772 0.71765,-0.46729 1.33182,-0.82165 1.36482,-0.78747 0.033,0.0342 -0.31551,0.40403 -0.77447,0.82187 -1.34747,1.22676 -4.4983,4.93726 -5.67374,6.68154 -0.36323,0.53901 -0.33224,0.52299 1.19796,-0.61956 4.02049,-3.00197 9.55284,-5.68413 15.01132,-7.27769 1.46233,-0.42691 5.39416,-1.32154 5.55857,-1.26477 0.0678,0.0234 -0.40195,0.28486 -1.04399,0.58097 -1.41729,0.65368 -5.40128,2.80216 -7.3219,3.94857 -3.18629,1.90188 -8.05188,5.43245 -10.23309,7.42533 l -0.71619,0.65436 1.127,-0.49237 c 1.67792,-0.73307 4.31531,-1.62932 6.62941,-2.25284 1.13032,-0.30456 2.11154,-0.55405 2.1805,-0.55442 0.069,-4.2e-4 -0.67685,0.42332 -1.65736,0.94156 -2.26605,1.19771 -4.03289,2.25172 -5.95925,3.555 -1.71848,1.16262 -4.29809,3.14485 -4.723,3.62925 -0.24953,0.28446 -0.33623,0.83243 -0.76791,4.85328 -0.26766,2.49295 -0.63654,5.85394 -0.81976,7.46888 l -0.33315,2.93626 -0.92215,1.49906 -0.92215,1.49906 0.399,2.45336 c 0.21944,1.34936 0.39899,2.57805 0.39899,2.73043 0,0.15238 -0.61414,1.10093 -1.36477,2.10788 -0.75061,1.00696 -1.50726,2.04155 -1.6814,2.29908 l -0.31665,0.46826 0.95563,0.90527 0.95562,0.90527 0.71424,3.36512 c 0.39285,1.85082 1.29076,6.10727 1.9954,9.45877 0.70462,3.35151 1.30797,6.16607 1.34076,6.25459 0.0328,0.0885 -0.90028,1.41876 -2.0735,2.95608 -1.17321,1.53731 -2.0846,2.83888 -2.02531,2.89237 0.0593,0.0535 0.56757,0.42171 1.12952,0.81828 1.54486,1.0902 1.5114,1.21668 -0.0998,0.37721 -4.36027,-2.27178 -7.28008,-3.17504 -11.39638,-3.52553 -2.49579,-0.2125 -2.24154,-0.30661 -2.43761,0.90226 -0.093,0.57314 -0.14935,1.05734 -0.1253,1.07601 0.0241,0.0186 0.61054,0.24269 1.30332,0.49781 0.69277,0.25514 1.87564,0.78369 2.6286,1.17456 1.16177,0.60309 1.38056,0.67667 1.44518,0.48606 0.17384,-0.51271 1.00182,-2.70063 1.0386,-2.74451 0.0857,-0.10227 2.07015,0.43644 3.81159,1.03474 1.2877,0.44241 1.81083,0.68205 1.76411,0.80814 -0.0365,0.0986 -0.70397,1.02299 -1.48322,2.05422 l -1.41684,1.87497 0.72632,0.77757 c 0.82887,0.88738 2.3579,2.73781 2.3579,2.85355 0,0.0425 -0.39553,-0.29812 -0.87893,-0.757 -2.87925,-2.7331 -6.87948,-5.21619 -10.33023,-6.41238 -0.77641,-0.26914 -1.42943,-0.46939 -1.45118,-0.44501 -0.0218,0.0244 -0.19423,0.37843 -0.38329,0.78677 l -0.34373,0.74244 0.96121,0.97973 c 1.08423,1.10511 1.71516,2.2185 2.32828,4.10858 0.2147,0.66188 0.4146,1.22851 0.44422,1.25919 0.0296,0.0307 0.52464,-1.05461 1.10006,-2.41176 0.57542,-1.35715 1.07566,-2.46755 1.11166,-2.46755 0.17638,0 3.46428,1.95644 3.46428,2.06139 0,0.0667 -0.69637,1.03626 -1.5475,2.15466 -0.85112,1.11841 -2.38144,3.13168 -3.40071,4.47394 -1.01928,1.34225 -1.87587,2.41702 -1.90353,2.38836 -0.0277,-0.0287 -0.34782,-1.21958 -0.71147,-2.64649 -1.1357,-4.45643 -1.67615,-5.87632 -2.58347,-6.78732 l -0.44865,-0.45047 -0.8951,0.41444 -0.89511,0.41445 -1.33162,2.57726 c -0.73239,1.4175 -1.45095,2.65625 -1.5968,2.75278 -0.14584,0.0965 -1.97148,0.76995 -4.05699,1.49649 l -3.79181,1.32099 -3.95588,-1.37457 c -2.17573,-0.75601 -4.01343,-1.43419 -4.08377,-1.50705 -0.0703,-0.0729 -0.70591,-1.26366 -1.41237,-2.6462 l -1.28449,-2.5137 -0.87375,-0.4688 c -0.84719,-0.45453 -0.8842,-0.46172 -1.21617,-0.23639 -0.9304,0.63153 -1.74547,2.70928 -2.87632,7.33212 -0.31873,1.30296 -0.60933,2.36804 -0.6458,2.36684 -0.0364,-10e-4 -1.28941,-1.61397 -2.78435,-3.58392 z m 22.25136,-1.36302 c 1.5723,-0.53159 2.94179,-1.03795 3.04333,-1.12525 0.20404,-0.17542 1.1357,-2.02762 1.05957,-2.10649 -0.0263,-0.0272 -0.35963,0.0357 -0.74074,0.13982 -0.68628,0.18754 -0.70397,0.18438 -1.85007,-0.3303 -0.63644,-0.28581 -1.94177,-0.81115 -2.90075,-1.16742 l -1.7436,-0.64776 -1.37223,0.50716 c -0.75472,0.27894 -2.02853,0.78435 -2.83069,1.12313 -1.4858,0.6275 -1.79208,0.66682 -2.83889,0.36444 -0.30565,-0.0883 -0.29377,-0.0417 0.27034,1.06035 l 0.59004,1.1527 2.91179,0.98731 c 1.60147,0.54303 3.05385,0.99216 3.22749,0.99807 0.17364,0.006 1.60212,-0.42418 3.17441,-0.95576 z m -7.75248,-5.75066 c 0.81289,-0.37053 1.89408,-0.85442 2.40261,-1.0753 1.01289,-0.43996 1.09372,-0.56358 1.11729,-1.70877 0.0129,-0.62758 -0.008,-0.66126 -0.91489,-1.49653 -0.51047,-0.46998 -0.92812,-0.91384 -0.92812,-0.98637 0,-0.0725 0.14916,-0.3155 0.33147,-0.53995 0.52523,-0.64664 0.36975,-1.37501 -0.4067,-1.90525 -0.36933,-0.25221 -1.11651,-0.36052 -1.28474,-0.18624 -0.043,0.0446 0.006,0.32965 0.10984,0.63344 l 0.18811,0.55234 -0.36395,-0.24236 c -1.33589,-0.88957 -1.854,-1.64925 -2.2192,-3.25385 -0.29563,-1.29897 -0.25368,-1.64821 0.4299,-3.5792 l 0.6298,-1.77904 0.0901,1.29011 c 0.0885,1.26729 0.4682,3.8312 0.58532,3.95252 0.0328,0.034 0.32841,-0.0735 0.65692,-0.23884 0.3285,-0.16533 0.73675,-0.30061 0.90722,-0.30061 0.17047,0 0.94533,0.24724 1.7219,0.54941 0.77657,0.30217 1.49643,0.54941 1.59969,0.54941 0.10326,0 0.80013,-0.24724 1.54861,-0.54941 1.5464,-0.6243 1.80922,-0.65129 2.62207,-0.26925 0.32078,0.15077 0.61506,0.24116 0.65396,0.20087 0.15055,-0.15595 0.54081,-3.07711 0.55055,-4.12086 0.0122,-1.30506 0.0424,-1.26909 0.85272,1.01335 0.57225,1.61195 0.58807,1.6981 0.46133,2.51329 -0.1481,0.95273 -0.53877,2.18491 -0.84748,2.67297 -0.2136,0.33771 -1.64495,1.56055 -1.82682,1.5607 -0.0566,5e-5 -0.008,-0.19092 0.10904,-0.42437 0.28521,-0.57136 0.16985,-0.81172 -0.38962,-0.81172 -0.51524,0 -1.22116,0.52512 -1.41465,1.05231 -0.13837,0.37702 0.0354,0.94061 0.42175,1.36795 l 0.26336,0.2913 -1.0165,0.9608 -1.01651,0.9608 0.0951,0.84866 c 0.0731,0.65291 0.16074,0.89162 0.37969,1.03489 0.15655,0.10242 1.29176,0.63243 2.52271,1.17779 l 2.23808,0.99156 1.29987,-0.44103 c 1.89441,-0.64275 1.97086,-0.73839 0.80768,-1.0105 -1.05308,-0.24637 -2.84183,-0.97475 -3.05877,-1.24554 -0.1118,-0.13954 0.0246,-0.14932 0.68697,-0.0493 1.15954,0.17512 3.05441,0.0373 4.08639,-0.29713 0.86194,-0.27935 1.71722,-0.77386 1.80099,-1.04128 0.0274,-0.0873 -0.71819,-0.1421 -2.04489,-0.15037 -1.32888,-0.008 -2.40123,-0.0873 -2.94975,-0.21722 l -0.86182,-0.20421 0.99441,-0.17778 c 2.38842,-0.42701 5.2934,-1.50893 5.89232,-2.1945 0.24658,-0.28225 0.24511,-0.2837 -0.2889,-0.2837 -0.46317,0 -1.34821,0.086 -5.00677,0.48654 -0.61095,0.0669 -0.44659,-0.0413 2.09579,-1.37903 2.54626,-1.33978 2.75168,-1.47506 2.6669,-1.75609 -0.0505,-0.16747 -0.52204,-1.58702 -1.04781,-3.15454 -0.52576,-1.56754 -0.92528,-2.85007 -0.88781,-2.85007 0.081,0 3.05293,1.67707 3.49525,1.97237 0.29497,0.19693 0.40651,0.13221 2.82627,-1.63997 2.38524,-1.74691 2.53127,-1.87964 2.74666,-2.49656 0.12511,-0.35836 0.80573,-2.73816 1.5125,-5.28844 0.70676,-2.55029 1.29814,-4.62088 1.31417,-4.6013 0.016,0.0196 1.31924,2.6846 2.89605,5.92229 1.5768,3.23768 2.86691,5.82058 2.86691,5.73977 0,-0.0808 -0.11521,-0.65924 -0.25604,-1.2854 -0.14082,-0.62616 -0.6781,-3.14725 -1.19397,-5.60242 -0.51585,-2.45517 -0.96569,-4.5911 -0.99965,-4.7465 -0.0647,-0.29622 -0.43505,-0.61001 -6.9641,-5.9006 -2.22417,-1.80229 -5.11791,-4.14859 -6.43053,-5.21401 -3.51619,-2.85399 -3.43221,-2.79179 -3.33737,-2.47189 0.11486,0.38744 0.88556,4.77981 0.84589,4.8209 -0.0182,0.0188 -0.86449,-1.26695 -1.88069,-2.85728 -1.0162,-1.59033 -1.96962,-2.94227 -2.11873,-3.00432 -0.14911,-0.062 -1.25557,-0.27274 -2.45881,-0.46822 -1.20324,-0.19549 -2.29801,-0.38066 -2.43281,-0.41149 -0.21264,-0.0486 -0.23395,0.005 -0.16092,0.40873 0.0463,0.25563 0.55378,1.79391 1.12774,3.41838 l 1.04359,2.9536 -0.65012,2.51277 c -0.35757,1.38202 -0.99962,3.86991 -1.42681,5.52864 -0.73798,2.86556 -0.78392,2.9922 -0.92179,2.54102 -0.27939,-0.91422 -2.67793,-10.40374 -2.67647,-10.5891 0.001,-0.10294 0.24602,-0.86706 0.5449,-1.69805 0.72593,-2.01834 1.72207,-5.04418 1.67622,-5.09167 -0.0359,-0.0371 -4.52837,0.69684 -5.09099,0.8318 -0.19158,0.0459 -0.88894,1.02175 -2.15992,3.02232 -1.03234,1.62495 -1.89537,2.95445 -1.91785,2.95445 -0.0225,0 0.15782,-1.0971 0.40067,-2.438 0.24283,-1.34089 0.42772,-2.48101 0.41084,-2.53358 -0.0169,-0.0526 -1.83002,1.36902 -4.0292,3.1591 -2.19917,1.79007 -5.9342,4.82863 -8.30004,6.75234 l -4.30153,3.49765 -0.49493,2.33982 c -0.27221,1.28689 -0.84781,4.00365 -1.27912,6.03723 -0.43131,2.03358 -0.76943,3.71059 -0.75139,3.72667 0.018,0.0161 1.31542,-2.62123 2.88308,-5.86072 1.56766,-3.23948 2.88028,-5.88992 2.91694,-5.88988 0.0366,5e-5 0.69175,2.27151 1.45574,5.04769 1.12106,4.07368 1.45365,5.11466 1.72365,5.39512 0.43835,0.4553 4.70978,3.56703 4.89643,3.56703 0.0792,0 0.94417,-0.46356 1.92207,-1.03014 0.9779,-0.56658 1.81979,-1.03015 1.8709,-1.03015 0.0511,0 0.0509,0.10817 0,0.24037 -0.0513,0.1322 -0.53311,1.55354 -1.07065,3.15852 l -0.97734,2.91815 2.72042,1.39016 c 1.49625,0.76458 2.69752,1.41388 2.66952,1.44288 -0.028,0.029 -1.11986,-0.0704 -2.42634,-0.22087 -2.59638,-0.29906 -3.50243,-0.33965 -3.50243,-0.15692 0,0.19804 0.93816,0.7749 1.92252,1.18215 0.85017,0.35172 3.21609,1.00893 4.50801,1.25223 l 0.53034,0.0999 -0.72923,0.19446 c -0.45771,0.12205 -1.53242,0.20342 -2.88634,0.21853 -2.46777,0.0275 -2.648,0.14028 -1.31614,0.82325 1.27132,0.65192 3.51677,0.93745 5.16374,0.65661 0.34639,-0.0591 0.6298,-0.0645 0.6298,-0.0121 0,0.23568 -2.54145,1.25371 -3.62293,1.45123 -0.27892,0.051 -0.45791,0.13877 -0.39777,0.19518 0.11526,0.1081 2.30767,0.90929 2.76111,1.00901 0.14585,0.0321 0.28622,0.0655 0.31193,0.0742 0.0257,0.009 0.71185,-0.28723 1.52476,-0.65775 z m -4.54976,-13.47942 c 0.003,-0.11011 0.17469,-0.93127 0.38206,-1.8248 l 0.37708,-1.62461 -0.4615,-0.98509 c -0.25383,-0.54179 -0.48065,-1.00589 -0.50404,-1.03132 -0.0234,-0.0254 -0.70838,-0.1363 -1.52216,-0.24637 -1.77732,-0.24041 -2.65669,-0.56089 -3.67607,-1.3397 -0.98761,-0.75454 -1.59213,-1.4774 -1.95989,-2.34354 -0.29469,-0.69409 -0.72836,-2.30811 -0.72836,-2.71082 0,-0.11746 -0.74634,-0.81862 -1.65852,-1.55812 -0.91219,-0.73952 -1.64307,-1.35667 -1.62421,-1.37146 0.0188,-0.0148 1.61915,0.13917 3.55618,0.34216 l 3.52186,0.36906 2.11314,1.24179 c 1.16223,0.68299 2.12824,1.20262 2.14671,1.15474 0.0185,-0.0479 -0.35444,-1.06723 -0.82868,-2.26521 -0.47424,-1.19799 -0.86224,-2.24176 -0.86224,-2.31952 0,-0.0777 0.22223,-0.42586 0.49383,-0.77359 0.9433,-1.20763 3.88158,-4.69111 3.88158,-4.6018 0,0.0494 -0.21266,1.63012 -0.47259,3.51269 -0.25991,1.88259 -0.45382,3.50737 -0.43091,3.61062 0.0229,0.10327 0.86303,1.18298 1.86692,2.39937 l 1.82527,2.21162 -0.22746,2.19101 c -0.1251,1.20505 -0.24409,2.17376 -0.26445,2.15269 -0.0203,-0.0211 -0.18929,-0.9551 -0.37546,-2.07563 -0.18616,-1.12052 -0.38574,-2.12477 -0.44348,-2.23166 -0.11111,-0.20567 -2.14601,-1.82566 -2.29378,-1.82607 -0.0477,-1.4e-4 0.0327,0.32424 0.17867,0.72085 0.64223,1.74513 1.53171,5.00144 1.90406,6.97062 0.0609,0.32232 0.0417,0.31492 -0.31315,-0.12072 l -0.37807,-0.4641 -0.34389,0.60145 c -0.67991,1.18917 -2.88334,4.43138 -2.87845,4.23546 z m -0.94334,-7.61348 c 0.59734,-0.21833 1.68114,-0.96811 1.77822,-1.23019 0.0335,-0.0906 -0.41039,-0.43374 -1.01367,-0.78357 l -1.07339,-0.6224 -0.51684,0.67734 c -0.28425,0.37255 -0.56622,0.6249 -0.62657,0.56079 -0.22023,-0.23396 -0.76199,-1.50286 -0.84198,-1.97206 -0.077,-0.45184 -0.15794,-0.51823 -1.29422,-1.06196 l -1.21207,-0.58 0.073,1.10374 c 0.0906,1.36981 0.52556,2.36255 1.374,3.1362 0.99687,0.90901 2.2129,1.18899 3.35349,0.77211 z m 18.15082,6.07256 c -0.62253,-0.92456 -1.35435,-2.04609 -1.62627,-2.49229 l -0.4944,-0.81127 -0.31507,0.39921 c -0.23777,0.30126 -0.31625,0.34169 -0.31986,0.16475 -0.008,-0.38883 0.86504,-3.76141 1.4947,-5.7747 0.32485,-1.03872 0.56435,-1.88859 0.53218,-1.88859 -0.0453,0 -0.99234,0.71993 -2.27736,1.7313 -0.0258,0.0203 -0.21396,1.01427 -0.4182,2.20887 -0.20424,1.1946 -0.38262,2.1411 -0.39642,2.10332 -0.0138,-0.0377 -0.12573,-1.00751 -0.24874,-2.15498 l -0.22368,-2.08631 1.82708,-2.24017 c 1.59742,-1.95856 1.82658,-2.30061 1.82305,-2.72101 -0.002,-0.26447 -0.20396,-1.90245 -0.44829,-3.63996 -0.24432,-1.7375 -0.43384,-3.17207 -0.42113,-3.18792 0.0793,-0.099 4.37085,5.2597 4.35567,5.43881 -0.0104,0.1218 -0.41101,1.20441 -0.89044,2.40579 -0.47942,1.2014 -0.85458,2.20207 -0.83367,2.22373 0.0209,0.0217 1.01775,-0.52722 2.21519,-1.21973 l 2.17716,-1.25912 3.42161,-0.35231 c 1.88187,-0.19377 3.42159,-0.31003 3.42159,-0.25837 0,0.0517 -0.68874,0.64141 -1.53054,1.31055 -1.06539,0.84687 -1.5505,1.32098 -1.59623,1.56007 -0.56352,2.94628 -1.23014,4.09081 -3.1194,5.35578 -0.84287,0.56435 -1.87008,0.86898 -3.49906,1.03769 -0.51046,0.0529 -1.0221,0.14668 -1.13695,0.20847 -0.11486,0.0618 -0.40438,0.55183 -0.64338,1.08897 l -0.43455,0.97664 0.39914,1.7441 c 0.21953,0.95926 0.38541,1.75887 0.36864,1.7769 -0.0168,0.018 -0.53984,-0.72366 -1.16237,-1.64822 z m 4.60219,-6.25244 c 0.65676,-0.35094 1.40812,-1.15941 1.7653,-1.89945 0.35523,-0.736 0.63489,-2.29475 0.4738,-2.6408 -0.1148,-0.24659 -0.18418,-0.22958 -1.24251,0.30468 -1.08662,0.54853 -1.12556,0.58478 -1.27174,1.18394 -0.16413,0.67275 -0.64306,1.71808 -0.84697,1.84863 -0.0702,0.0449 -0.3246,-0.1957 -0.5654,-0.53473 -0.24078,-0.33904 -0.48535,-0.61884 -0.54348,-0.62179 -0.17097,-0.009 -2.08202,1.1089 -2.08202,1.21753 0,0.21764 0.7693,0.83983 1.45848,1.17955 0.60359,0.29754 0.86696,0.3495 1.52865,0.30162 0.44346,-0.0321 1.03386,-0.18313 1.32589,-0.33918 z m -15.73657,4.39588 c 0.331,-0.48156 2.90252,-3.05224 3.05323,-3.05224 0.28358,0 3.31038,3.02377 3.32675,3.32341 0.003,0.0526 -0.48702,-0.18339 -1.08863,-0.52442 -0.60162,-0.34103 -1.34997,-0.74351 -1.66297,-0.8944 l -0.56911,-0.27436 -1.66465,0.90744 c -1.51457,0.82563 -1.64032,0.87202 -1.39462,0.51457 z m -17.77476,9.66091 c 1.03915,-0.27851 3.03138,-0.58827 4.49716,-0.69924 l 1.21985,-0.0924 0.15076,-0.75229 c 0.0829,-0.41376 0.13063,-0.76976 0.10602,-0.79112 -0.0246,-0.0214 -1.50651,-1.23133 -3.29313,-2.68883 -1.78663,-1.4575 -3.28374,-2.7055 -3.3269,-2.77333 -0.0431,-0.0678 -0.27709,-1.01625 -0.51979,-2.1076 -0.24271,-1.09135 -0.4908,-1.98428 -0.5513,-1.98428 -0.0605,0 -0.11001,0.0559 -0.11001,0.1241 0,0.0682 -1.22571,2.23898 -2.7238,4.82382 -1.49809,2.58486 -2.7063,4.7522 -2.68491,4.81632 0.0674,0.20219 1.36053,1.89452 1.45391,1.9028 0.049,0.004 0.63432,-1.0892 1.30067,-2.43011 0.66636,-1.3409 1.2606,-2.48943 1.32054,-2.55228 0.06,-0.0628 0.25666,0.3389 0.43711,0.89279 1.07217,3.29097 1.60316,4.65891 1.78099,4.58822 0.10159,-0.0404 0.52587,-0.16487 0.94283,-0.27662 z m 43.82904,-2.42547 c 0.48516,-1.40512 0.8821,-2.62583 0.8821,-2.71271 0,-0.45216 0.32332,0.0584 1.40026,2.21137 0.65188,1.30313 1.2045,2.44659 1.22807,2.54101 0.0781,0.31261 0.23977,0.18112 0.99781,-0.81138 l 0.75085,-0.98307 -0.24952,-0.42479 c -0.9745,-1.65903 -5.18202,-8.88478 -5.29508,-9.09346 -0.17463,-0.32233 -0.15263,-0.38723 -0.68735,2.02649 l -0.41509,1.87364 -3.37614,2.7808 c -2.41761,1.99128 -3.35845,2.8437 -3.31377,3.00235 0.0343,0.12186 0.10109,0.44802 0.14839,0.7248 l 0.086,0.50323 1.28013,0.091 c 1.57047,0.1116 3.36147,0.39492 4.59483,0.72686 0.51047,0.13739 0.96375,0.21579 1.00729,0.17422 0.0435,-0.0416 0.47611,-1.22521 0.96126,-2.63032 z m -47.19439,-24.744 c 0.11416,-0.32106 0.46666,-1.31512 0.7833,-2.20901 l 0.57575,-1.62526 -1.50354,-4.6108 c -0.82693,-2.53593 -1.48465,-4.63035 -1.46157,-4.65425 0.0231,-0.0239 0.42669,0.0777 0.89693,0.22585 0.47022,0.14812 0.89992,0.26978 0.95489,0.27036 0.055,5.5e-4 -0.68093,-1.62143 -1.63531,-3.60445 l -1.73527,-3.60549 0.66616,0.68676 c 0.99387,1.02464 8.49359,9.1919 8.46395,9.21734 -0.0141,0.0121 -1.01004,-0.12667 -2.21328,-0.30835 -1.20324,-0.18167 -2.26672,-0.31355 -2.36329,-0.29306 -0.0966,0.0205 1.11293,1.20423 2.68778,2.63053 1.57485,1.42631 2.89002,2.63796 2.92259,2.69256 0.0326,0.0546 -0.81894,0.071 -1.89225,0.0364 l -1.95148,-0.0629 1.25959,1.34921 c 0.69278,0.74206 1.26754,1.36968 1.27726,1.3947 0.0351,0.0905 4.02627,-3.27393 4.02627,-3.39404 0,-0.0678 -0.4076,-0.9472 -0.90577,-1.95422 -2.28861,-4.62623 -5.22064,-8.66435 -9.45612,-13.02339 -1.39605,-1.43677 -4.47203,-4.25967 -4.64156,-4.25967 -0.031,0 0.33698,3.2913 0.81762,7.314 l 0.8739,7.314 1.29962,2.10687 1.29962,2.10688 -0.32779,0.36546 c -0.18028,0.20101 -0.42624,0.52654 -0.54657,0.7234 -0.21229,0.34732 -0.61107,2.16763 -0.61107,2.78934 0,0.28329 1.93463,2.95708 2.1436,2.96257 0.0486,10e-4 0.18187,-0.26036 0.29604,-0.58141 z m 49.82632,-0.68676 c 0.54079,-0.69878 1.01874,-1.33232 1.06211,-1.40786 0.10833,-0.18865 -0.2261,-2.10983 -0.47442,-2.72552 -0.11139,-0.27618 -0.35891,-0.71453 -0.55002,-0.9741 -0.40949,-0.55617 -0.49378,-0.32799 1.086,-2.94006 l 1.1082,-1.83236 0.79496,-6.88951 c 0.43724,-3.78923 0.82888,-7.05948 0.87033,-7.26722 0.0414,-0.20775 0.0336,-0.37772 -0.0174,-0.37772 -0.18102,0 -2.80465,2.41125 -4.54817,4.17999 -4.2227,4.28381 -7.11946,8.25879 -9.52638,13.07226 -0.53284,1.06561 -0.96881,1.97424 -0.96881,2.01915 0,0.0449 0.67123,0.62057 1.49162,1.27921 0.82039,0.65865 1.73228,1.39989 2.02643,1.64721 l 0.53481,0.44968 1.24576,-1.38163 1.24575,-1.38163 -1.9463,0.0521 c -1.07046,0.0287 -1.9463,0.0451 -1.9463,0.0365 0,-0.009 1.32392,-1.21457 2.94205,-2.67997 1.61814,-1.46541 2.85618,-2.68126 2.75121,-2.70191 -0.10497,-0.0207 -1.16209,0.10809 -2.34916,0.28607 -1.18706,0.17798 -2.1417,0.27581 -2.12141,0.2174 0.0901,-0.25946 8.98955,-9.82003 8.98055,-9.64773 -0.003,0.0638 -0.76651,1.67666 -1.69592,3.58414 -0.92944,1.90748 -1.6576,3.46767 -1.61816,3.46709 0.0394,-5.5e-4 0.45645,-0.12224 0.92669,-0.27036 0.47022,-0.14812 0.88097,-0.24237 0.91275,-0.20944 0.0318,0.0329 -0.61509,2.12531 -1.43749,4.64973 l -1.49531,4.58986 0.77407,2.21354 c 0.42574,1.21744 0.8156,2.21353 0.86638,2.21353 0.0508,0 0.5348,-0.57173 1.07558,-1.27051 z"
         id="path1" /><text
         xml:space="preserve"
         id="text1"
         style="font-weight:bold;font-size:37.3333px;font-family:'Nimbus Sans';-inkscape-font-specification:'Nimbus Sans Bold';writing-mode:lr-tb;direction:ltr;white-space:pre;shape-inside:url(#rect1);display:inline;fill:#b3b3b3;stroke-width:0.143622"
         transform="translate(-120.71114,139.99343)"><tspan
           x="459.45703"
           y="393.03108"
           id="tspan1">Caracal OS</tspan></text></g></g></svg>
